%TF.GenerationSoftware,KiCad,Pcbnew,9.0.3*%
%TF.CreationDate,2025-09-24T11:10:32-04:00*%
%TF.ProjectId,eib-64-cnt-a64,6569622d-3634-42d6-936e-742d6136342e,A*%
%TF.SameCoordinates,Original*%
%TF.FileFunction,Legend,Top*%
%TF.FilePolarity,Positive*%
%FSLAX46Y46*%
G04 Gerber Fmt 4.6, Leading zero omitted, Abs format (unit mm)*
G04 Created by KiCad (PCBNEW 9.0.3) date 2025-09-24 11:10:32*
%MOMM*%
%LPD*%
G01*
G04 APERTURE LIST*
%ADD10C,0.150000*%
%ADD11C,0.300000*%
%ADD12C,0.120000*%
G04 APERTURE END LIST*
D10*
X143732385Y-81267616D02*
G75*
G02*
X129300000Y-82400000I-6732385J-6732384D01*
G01*
D11*
X143849757Y-79707142D02*
X143778328Y-79850000D01*
X143778328Y-79850000D02*
X143778328Y-80064285D01*
X143778328Y-80064285D02*
X143849757Y-80278571D01*
X143849757Y-80278571D02*
X143992614Y-80421428D01*
X143992614Y-80421428D02*
X144135471Y-80492857D01*
X144135471Y-80492857D02*
X144421185Y-80564285D01*
X144421185Y-80564285D02*
X144635471Y-80564285D01*
X144635471Y-80564285D02*
X144921185Y-80492857D01*
X144921185Y-80492857D02*
X145064042Y-80421428D01*
X145064042Y-80421428D02*
X145206900Y-80278571D01*
X145206900Y-80278571D02*
X145278328Y-80064285D01*
X145278328Y-80064285D02*
X145278328Y-79921428D01*
X145278328Y-79921428D02*
X145206900Y-79707142D01*
X145206900Y-79707142D02*
X145135471Y-79635714D01*
X145135471Y-79635714D02*
X144635471Y-79635714D01*
X144635471Y-79635714D02*
X144635471Y-79921428D01*
X138616424Y-79707142D02*
X138544995Y-79850000D01*
X138544995Y-79850000D02*
X138544995Y-80064285D01*
X138544995Y-80064285D02*
X138616424Y-80278571D01*
X138616424Y-80278571D02*
X138759281Y-80421428D01*
X138759281Y-80421428D02*
X138902138Y-80492857D01*
X138902138Y-80492857D02*
X139187852Y-80564285D01*
X139187852Y-80564285D02*
X139402138Y-80564285D01*
X139402138Y-80564285D02*
X139687852Y-80492857D01*
X139687852Y-80492857D02*
X139830709Y-80421428D01*
X139830709Y-80421428D02*
X139973567Y-80278571D01*
X139973567Y-80278571D02*
X140044995Y-80064285D01*
X140044995Y-80064285D02*
X140044995Y-79921428D01*
X140044995Y-79921428D02*
X139973567Y-79707142D01*
X139973567Y-79707142D02*
X139902138Y-79635714D01*
X139902138Y-79635714D02*
X139402138Y-79635714D01*
X139402138Y-79635714D02*
X139402138Y-79921428D01*
X137428328Y-80880000D02*
X135928328Y-80880000D01*
X137536900Y-80294285D02*
X137594042Y-80122857D01*
X137594042Y-80122857D02*
X137594042Y-79837142D01*
X137594042Y-79837142D02*
X137536900Y-79722857D01*
X137536900Y-79722857D02*
X137479757Y-79665714D01*
X137479757Y-79665714D02*
X137365471Y-79608571D01*
X137365471Y-79608571D02*
X137251185Y-79608571D01*
X137251185Y-79608571D02*
X137136900Y-79665714D01*
X137136900Y-79665714D02*
X137079757Y-79722857D01*
X137079757Y-79722857D02*
X137022614Y-79837142D01*
X137022614Y-79837142D02*
X136965471Y-80065714D01*
X136965471Y-80065714D02*
X136908328Y-80179999D01*
X136908328Y-80179999D02*
X136851185Y-80237142D01*
X136851185Y-80237142D02*
X136736900Y-80294285D01*
X136736900Y-80294285D02*
X136622614Y-80294285D01*
X136622614Y-80294285D02*
X136508328Y-80237142D01*
X136508328Y-80237142D02*
X136451185Y-80179999D01*
X136451185Y-80179999D02*
X136394042Y-80065714D01*
X136394042Y-80065714D02*
X136394042Y-79779999D01*
X136394042Y-79779999D02*
X136451185Y-79608571D01*
X142661661Y-79635714D02*
X141947375Y-80135714D01*
X142661661Y-80492857D02*
X141161661Y-80492857D01*
X141161661Y-80492857D02*
X141161661Y-79921428D01*
X141161661Y-79921428D02*
X141233090Y-79778571D01*
X141233090Y-79778571D02*
X141304518Y-79707142D01*
X141304518Y-79707142D02*
X141447375Y-79635714D01*
X141447375Y-79635714D02*
X141661661Y-79635714D01*
X141661661Y-79635714D02*
X141804518Y-79707142D01*
X141804518Y-79707142D02*
X141875947Y-79778571D01*
X141875947Y-79778571D02*
X141947375Y-79921428D01*
X141947375Y-79921428D02*
X141947375Y-80492857D01*
X132194995Y-81665714D02*
X130694995Y-81665714D01*
X132194995Y-80808571D02*
X131337852Y-81451428D01*
X130694995Y-80808571D02*
X131552138Y-81665714D01*
X131160709Y-80008571D02*
X131160709Y-79894285D01*
X131160709Y-79894285D02*
X131217852Y-79779999D01*
X131217852Y-79779999D02*
X131274995Y-79722857D01*
X131274995Y-79722857D02*
X131389281Y-79665714D01*
X131389281Y-79665714D02*
X131617852Y-79608571D01*
X131617852Y-79608571D02*
X131903567Y-79608571D01*
X131903567Y-79608571D02*
X132132138Y-79665714D01*
X132132138Y-79665714D02*
X132246424Y-79722857D01*
X132246424Y-79722857D02*
X132303567Y-79779999D01*
X132303567Y-79779999D02*
X132360709Y-79894285D01*
X132360709Y-79894285D02*
X132360709Y-80008571D01*
X132360709Y-80008571D02*
X132303567Y-80122857D01*
X132303567Y-80122857D02*
X132246424Y-80179999D01*
X132246424Y-80179999D02*
X132132138Y-80237142D01*
X132132138Y-80237142D02*
X131903567Y-80294285D01*
X131903567Y-80294285D02*
X131617852Y-80294285D01*
X131617852Y-80294285D02*
X131389281Y-80237142D01*
X131389281Y-80237142D02*
X131274995Y-80179999D01*
X131274995Y-80179999D02*
X131217852Y-80122857D01*
X131217852Y-80122857D02*
X131160709Y-80008571D01*
D10*
X129021065Y-122963220D02*
X129021065Y-122629887D01*
X129544875Y-122487030D02*
X129544875Y-122963220D01*
X129544875Y-122963220D02*
X128544875Y-122963220D01*
X128544875Y-122963220D02*
X128544875Y-122487030D01*
X129544875Y-122058458D02*
X128544875Y-122058458D01*
X129021065Y-121248935D02*
X129068684Y-121106078D01*
X129068684Y-121106078D02*
X129116303Y-121058459D01*
X129116303Y-121058459D02*
X129211541Y-121010840D01*
X129211541Y-121010840D02*
X129354398Y-121010840D01*
X129354398Y-121010840D02*
X129449636Y-121058459D01*
X129449636Y-121058459D02*
X129497256Y-121106078D01*
X129497256Y-121106078D02*
X129544875Y-121201316D01*
X129544875Y-121201316D02*
X129544875Y-121582268D01*
X129544875Y-121582268D02*
X128544875Y-121582268D01*
X128544875Y-121582268D02*
X128544875Y-121248935D01*
X128544875Y-121248935D02*
X128592494Y-121153697D01*
X128592494Y-121153697D02*
X128640113Y-121106078D01*
X128640113Y-121106078D02*
X128735351Y-121058459D01*
X128735351Y-121058459D02*
X128830589Y-121058459D01*
X128830589Y-121058459D02*
X128925827Y-121106078D01*
X128925827Y-121106078D02*
X128973446Y-121153697D01*
X128973446Y-121153697D02*
X129021065Y-121248935D01*
X129021065Y-121248935D02*
X129021065Y-121582268D01*
X129163922Y-120582268D02*
X129163922Y-119820364D01*
X128544875Y-118915602D02*
X128544875Y-119106078D01*
X128544875Y-119106078D02*
X128592494Y-119201316D01*
X128592494Y-119201316D02*
X128640113Y-119248935D01*
X128640113Y-119248935D02*
X128782970Y-119344173D01*
X128782970Y-119344173D02*
X128973446Y-119391792D01*
X128973446Y-119391792D02*
X129354398Y-119391792D01*
X129354398Y-119391792D02*
X129449636Y-119344173D01*
X129449636Y-119344173D02*
X129497256Y-119296554D01*
X129497256Y-119296554D02*
X129544875Y-119201316D01*
X129544875Y-119201316D02*
X129544875Y-119010840D01*
X129544875Y-119010840D02*
X129497256Y-118915602D01*
X129497256Y-118915602D02*
X129449636Y-118867983D01*
X129449636Y-118867983D02*
X129354398Y-118820364D01*
X129354398Y-118820364D02*
X129116303Y-118820364D01*
X129116303Y-118820364D02*
X129021065Y-118867983D01*
X129021065Y-118867983D02*
X128973446Y-118915602D01*
X128973446Y-118915602D02*
X128925827Y-119010840D01*
X128925827Y-119010840D02*
X128925827Y-119201316D01*
X128925827Y-119201316D02*
X128973446Y-119296554D01*
X128973446Y-119296554D02*
X129021065Y-119344173D01*
X129021065Y-119344173D02*
X129116303Y-119391792D01*
X128878208Y-117963221D02*
X129544875Y-117963221D01*
X128497256Y-118201316D02*
X129211541Y-118439411D01*
X129211541Y-118439411D02*
X129211541Y-117820364D01*
X131059580Y-122391792D02*
X131107200Y-122439411D01*
X131107200Y-122439411D02*
X131154819Y-122582268D01*
X131154819Y-122582268D02*
X131154819Y-122677506D01*
X131154819Y-122677506D02*
X131107200Y-122820363D01*
X131107200Y-122820363D02*
X131011961Y-122915601D01*
X131011961Y-122915601D02*
X130916723Y-122963220D01*
X130916723Y-122963220D02*
X130726247Y-123010839D01*
X130726247Y-123010839D02*
X130583390Y-123010839D01*
X130583390Y-123010839D02*
X130392914Y-122963220D01*
X130392914Y-122963220D02*
X130297676Y-122915601D01*
X130297676Y-122915601D02*
X130202438Y-122820363D01*
X130202438Y-122820363D02*
X130154819Y-122677506D01*
X130154819Y-122677506D02*
X130154819Y-122582268D01*
X130154819Y-122582268D02*
X130202438Y-122439411D01*
X130202438Y-122439411D02*
X130250057Y-122391792D01*
X131154819Y-121963220D02*
X130154819Y-121963220D01*
X130154819Y-121963220D02*
X131154819Y-121391792D01*
X131154819Y-121391792D02*
X130154819Y-121391792D01*
X130154819Y-121058458D02*
X130154819Y-120487030D01*
X131154819Y-120772744D02*
X130154819Y-120772744D01*
X130869104Y-119439410D02*
X130869104Y-118963220D01*
X131154819Y-119534648D02*
X130154819Y-119201315D01*
X130154819Y-119201315D02*
X131154819Y-118867982D01*
X130154819Y-118106077D02*
X130154819Y-118296553D01*
X130154819Y-118296553D02*
X130202438Y-118391791D01*
X130202438Y-118391791D02*
X130250057Y-118439410D01*
X130250057Y-118439410D02*
X130392914Y-118534648D01*
X130392914Y-118534648D02*
X130583390Y-118582267D01*
X130583390Y-118582267D02*
X130964342Y-118582267D01*
X130964342Y-118582267D02*
X131059580Y-118534648D01*
X131059580Y-118534648D02*
X131107200Y-118487029D01*
X131107200Y-118487029D02*
X131154819Y-118391791D01*
X131154819Y-118391791D02*
X131154819Y-118201315D01*
X131154819Y-118201315D02*
X131107200Y-118106077D01*
X131107200Y-118106077D02*
X131059580Y-118058458D01*
X131059580Y-118058458D02*
X130964342Y-118010839D01*
X130964342Y-118010839D02*
X130726247Y-118010839D01*
X130726247Y-118010839D02*
X130631009Y-118058458D01*
X130631009Y-118058458D02*
X130583390Y-118106077D01*
X130583390Y-118106077D02*
X130535771Y-118201315D01*
X130535771Y-118201315D02*
X130535771Y-118391791D01*
X130535771Y-118391791D02*
X130583390Y-118487029D01*
X130583390Y-118487029D02*
X130631009Y-118534648D01*
X130631009Y-118534648D02*
X130726247Y-118582267D01*
X130488152Y-117153696D02*
X131154819Y-117153696D01*
X130107200Y-117391791D02*
X130821485Y-117629886D01*
X130821485Y-117629886D02*
X130821485Y-117010839D01*
X130154819Y-115677505D02*
X130154819Y-115487029D01*
X130154819Y-115487029D02*
X130202438Y-115391791D01*
X130202438Y-115391791D02*
X130297676Y-115296553D01*
X130297676Y-115296553D02*
X130488152Y-115248934D01*
X130488152Y-115248934D02*
X130821485Y-115248934D01*
X130821485Y-115248934D02*
X131011961Y-115296553D01*
X131011961Y-115296553D02*
X131107200Y-115391791D01*
X131107200Y-115391791D02*
X131154819Y-115487029D01*
X131154819Y-115487029D02*
X131154819Y-115677505D01*
X131154819Y-115677505D02*
X131107200Y-115772743D01*
X131107200Y-115772743D02*
X131011961Y-115867981D01*
X131011961Y-115867981D02*
X130821485Y-115915600D01*
X130821485Y-115915600D02*
X130488152Y-115915600D01*
X130488152Y-115915600D02*
X130297676Y-115867981D01*
X130297676Y-115867981D02*
X130202438Y-115772743D01*
X130202438Y-115772743D02*
X130154819Y-115677505D01*
X130488152Y-114820362D02*
X131488152Y-114820362D01*
X130535771Y-114820362D02*
X130488152Y-114725124D01*
X130488152Y-114725124D02*
X130488152Y-114534648D01*
X130488152Y-114534648D02*
X130535771Y-114439410D01*
X130535771Y-114439410D02*
X130583390Y-114391791D01*
X130583390Y-114391791D02*
X130678628Y-114344172D01*
X130678628Y-114344172D02*
X130964342Y-114344172D01*
X130964342Y-114344172D02*
X131059580Y-114391791D01*
X131059580Y-114391791D02*
X131107200Y-114439410D01*
X131107200Y-114439410D02*
X131154819Y-114534648D01*
X131154819Y-114534648D02*
X131154819Y-114725124D01*
X131154819Y-114725124D02*
X131107200Y-114820362D01*
X130488152Y-114058457D02*
X130488152Y-113677505D01*
X130154819Y-113915600D02*
X131011961Y-113915600D01*
X131011961Y-113915600D02*
X131107200Y-113867981D01*
X131107200Y-113867981D02*
X131154819Y-113772743D01*
X131154819Y-113772743D02*
X131154819Y-113677505D01*
X131154819Y-113344171D02*
X130488152Y-113344171D01*
X130678628Y-113344171D02*
X130583390Y-113296552D01*
X130583390Y-113296552D02*
X130535771Y-113248933D01*
X130535771Y-113248933D02*
X130488152Y-113153695D01*
X130488152Y-113153695D02*
X130488152Y-113058457D01*
X131154819Y-112582266D02*
X131107200Y-112677504D01*
X131107200Y-112677504D02*
X131059580Y-112725123D01*
X131059580Y-112725123D02*
X130964342Y-112772742D01*
X130964342Y-112772742D02*
X130678628Y-112772742D01*
X130678628Y-112772742D02*
X130583390Y-112725123D01*
X130583390Y-112725123D02*
X130535771Y-112677504D01*
X130535771Y-112677504D02*
X130488152Y-112582266D01*
X130488152Y-112582266D02*
X130488152Y-112439409D01*
X130488152Y-112439409D02*
X130535771Y-112344171D01*
X130535771Y-112344171D02*
X130583390Y-112296552D01*
X130583390Y-112296552D02*
X130678628Y-112248933D01*
X130678628Y-112248933D02*
X130964342Y-112248933D01*
X130964342Y-112248933D02*
X131059580Y-112296552D01*
X131059580Y-112296552D02*
X131107200Y-112344171D01*
X131107200Y-112344171D02*
X131154819Y-112439409D01*
X131154819Y-112439409D02*
X131154819Y-112582266D01*
X131154819Y-111391790D02*
X130154819Y-111391790D01*
X131107200Y-111391790D02*
X131154819Y-111487028D01*
X131154819Y-111487028D02*
X131154819Y-111677504D01*
X131154819Y-111677504D02*
X131107200Y-111772742D01*
X131107200Y-111772742D02*
X131059580Y-111820361D01*
X131059580Y-111820361D02*
X130964342Y-111867980D01*
X130964342Y-111867980D02*
X130678628Y-111867980D01*
X130678628Y-111867980D02*
X130583390Y-111820361D01*
X130583390Y-111820361D02*
X130535771Y-111772742D01*
X130535771Y-111772742D02*
X130488152Y-111677504D01*
X130488152Y-111677504D02*
X130488152Y-111487028D01*
X130488152Y-111487028D02*
X130535771Y-111391790D01*
X131107200Y-110534647D02*
X131154819Y-110629885D01*
X131154819Y-110629885D02*
X131154819Y-110820361D01*
X131154819Y-110820361D02*
X131107200Y-110915599D01*
X131107200Y-110915599D02*
X131011961Y-110963218D01*
X131011961Y-110963218D02*
X130631009Y-110963218D01*
X130631009Y-110963218D02*
X130535771Y-110915599D01*
X130535771Y-110915599D02*
X130488152Y-110820361D01*
X130488152Y-110820361D02*
X130488152Y-110629885D01*
X130488152Y-110629885D02*
X130535771Y-110534647D01*
X130535771Y-110534647D02*
X130631009Y-110487028D01*
X130631009Y-110487028D02*
X130726247Y-110487028D01*
X130726247Y-110487028D02*
X130821485Y-110963218D01*
X132764763Y-122391792D02*
X132288572Y-122725125D01*
X132764763Y-122963220D02*
X131764763Y-122963220D01*
X131764763Y-122963220D02*
X131764763Y-122582268D01*
X131764763Y-122582268D02*
X131812382Y-122487030D01*
X131812382Y-122487030D02*
X131860001Y-122439411D01*
X131860001Y-122439411D02*
X131955239Y-122391792D01*
X131955239Y-122391792D02*
X132098096Y-122391792D01*
X132098096Y-122391792D02*
X132193334Y-122439411D01*
X132193334Y-122439411D02*
X132240953Y-122487030D01*
X132240953Y-122487030D02*
X132288572Y-122582268D01*
X132288572Y-122582268D02*
X132288572Y-122963220D01*
X132717144Y-121582268D02*
X132764763Y-121677506D01*
X132764763Y-121677506D02*
X132764763Y-121867982D01*
X132764763Y-121867982D02*
X132717144Y-121963220D01*
X132717144Y-121963220D02*
X132621905Y-122010839D01*
X132621905Y-122010839D02*
X132240953Y-122010839D01*
X132240953Y-122010839D02*
X132145715Y-121963220D01*
X132145715Y-121963220D02*
X132098096Y-121867982D01*
X132098096Y-121867982D02*
X132098096Y-121677506D01*
X132098096Y-121677506D02*
X132145715Y-121582268D01*
X132145715Y-121582268D02*
X132240953Y-121534649D01*
X132240953Y-121534649D02*
X132336191Y-121534649D01*
X132336191Y-121534649D02*
X132431429Y-122010839D01*
X132098096Y-121201315D02*
X132764763Y-120963220D01*
X132764763Y-120963220D02*
X132098096Y-120725125D01*
X132669524Y-120344172D02*
X132717144Y-120296553D01*
X132717144Y-120296553D02*
X132764763Y-120344172D01*
X132764763Y-120344172D02*
X132717144Y-120391791D01*
X132717144Y-120391791D02*
X132669524Y-120344172D01*
X132669524Y-120344172D02*
X132764763Y-120344172D01*
X132479048Y-119153696D02*
X132479048Y-118677506D01*
X132764763Y-119248934D02*
X131764763Y-118915601D01*
X131764763Y-118915601D02*
X132764763Y-118582268D01*
D11*
X129578328Y-81665714D02*
X128078328Y-81665714D01*
X129578328Y-80808571D02*
X128721185Y-81451428D01*
X128078328Y-80808571D02*
X128935471Y-81665714D01*
X129744042Y-79608571D02*
X129744042Y-80294285D01*
X129744042Y-79951428D02*
X128544042Y-79951428D01*
X128544042Y-79951428D02*
X128715471Y-80065714D01*
X128715471Y-80065714D02*
X128829757Y-80179999D01*
X128829757Y-80179999D02*
X128886900Y-80294285D01*
X134383090Y-80349999D02*
X134383090Y-79635714D01*
X134811661Y-80492856D02*
X133311661Y-79992856D01*
X133311661Y-79992856D02*
X134811661Y-79492856D01*
D10*
X136666666Y-74854819D02*
X136666666Y-75569104D01*
X136666666Y-75569104D02*
X136619047Y-75711961D01*
X136619047Y-75711961D02*
X136523809Y-75807200D01*
X136523809Y-75807200D02*
X136380952Y-75854819D01*
X136380952Y-75854819D02*
X136285714Y-75854819D01*
X137571428Y-75188152D02*
X137571428Y-75854819D01*
X137333333Y-74807200D02*
X137095238Y-75521485D01*
X137095238Y-75521485D02*
X137714285Y-75521485D01*
X136666666Y-83554819D02*
X136666666Y-84269104D01*
X136666666Y-84269104D02*
X136619047Y-84411961D01*
X136619047Y-84411961D02*
X136523809Y-84507200D01*
X136523809Y-84507200D02*
X136380952Y-84554819D01*
X136380952Y-84554819D02*
X136285714Y-84554819D01*
X137047619Y-83554819D02*
X137666666Y-83554819D01*
X137666666Y-83554819D02*
X137333333Y-83935771D01*
X137333333Y-83935771D02*
X137476190Y-83935771D01*
X137476190Y-83935771D02*
X137571428Y-83983390D01*
X137571428Y-83983390D02*
X137619047Y-84031009D01*
X137619047Y-84031009D02*
X137666666Y-84126247D01*
X137666666Y-84126247D02*
X137666666Y-84364342D01*
X137666666Y-84364342D02*
X137619047Y-84459580D01*
X137619047Y-84459580D02*
X137571428Y-84507200D01*
X137571428Y-84507200D02*
X137476190Y-84554819D01*
X137476190Y-84554819D02*
X137190476Y-84554819D01*
X137190476Y-84554819D02*
X137095238Y-84507200D01*
X137095238Y-84507200D02*
X137047619Y-84459580D01*
D12*
%TO.C,J4*%
X127920000Y-79280000D02*
X127920000Y-77900000D01*
X129300000Y-79280000D02*
X127920000Y-79280000D01*
%TD*%
M02*
