%TF.GenerationSoftware,KiCad,Pcbnew,9.0.3*%
%TF.CreationDate,2025-09-24T11:10:32-04:00*%
%TF.ProjectId,eib-64-cnt-a64,6569622d-3634-42d6-936e-742d6136342e,A*%
%TF.SameCoordinates,Original*%
%TF.FileFunction,Legend,Bot*%
%TF.FilePolarity,Positive*%
%FSLAX46Y46*%
G04 Gerber Fmt 4.6, Leading zero omitted, Abs format (unit mm)*
G04 Created by KiCad (PCBNEW 9.0.3) date 2025-09-24 11:10:32*
%MOMM*%
%LPD*%
G01*
G04 APERTURE LIST*
%ADD10C,0.300000*%
%ADD11C,0.150000*%
%ADD12C,0.200000*%
G04 APERTURE END LIST*
D10*
X140016909Y-79705714D02*
X140088338Y-79848572D01*
X140088338Y-79848572D02*
X140088338Y-80062857D01*
X140088338Y-80062857D02*
X140016909Y-80277143D01*
X140016909Y-80277143D02*
X139874052Y-80420000D01*
X139874052Y-80420000D02*
X139731195Y-80491429D01*
X139731195Y-80491429D02*
X139445481Y-80562857D01*
X139445481Y-80562857D02*
X139231195Y-80562857D01*
X139231195Y-80562857D02*
X138945481Y-80491429D01*
X138945481Y-80491429D02*
X138802624Y-80420000D01*
X138802624Y-80420000D02*
X138659767Y-80277143D01*
X138659767Y-80277143D02*
X138588338Y-80062857D01*
X138588338Y-80062857D02*
X138588338Y-79920000D01*
X138588338Y-79920000D02*
X138659767Y-79705714D01*
X138659767Y-79705714D02*
X138731195Y-79634286D01*
X138731195Y-79634286D02*
X139231195Y-79634286D01*
X139231195Y-79634286D02*
X139231195Y-79920000D01*
X145250242Y-79705714D02*
X145321671Y-79848572D01*
X145321671Y-79848572D02*
X145321671Y-80062857D01*
X145321671Y-80062857D02*
X145250242Y-80277143D01*
X145250242Y-80277143D02*
X145107385Y-80420000D01*
X145107385Y-80420000D02*
X144964528Y-80491429D01*
X144964528Y-80491429D02*
X144678814Y-80562857D01*
X144678814Y-80562857D02*
X144464528Y-80562857D01*
X144464528Y-80562857D02*
X144178814Y-80491429D01*
X144178814Y-80491429D02*
X144035957Y-80420000D01*
X144035957Y-80420000D02*
X143893100Y-80277143D01*
X143893100Y-80277143D02*
X143821671Y-80062857D01*
X143821671Y-80062857D02*
X143821671Y-79920000D01*
X143821671Y-79920000D02*
X143893100Y-79705714D01*
X143893100Y-79705714D02*
X143964528Y-79634286D01*
X143964528Y-79634286D02*
X144464528Y-79634286D01*
X144464528Y-79634286D02*
X144464528Y-79920000D01*
X128121671Y-81664285D02*
X129621671Y-81664285D01*
X128121671Y-80807142D02*
X128978814Y-81449999D01*
X129621671Y-80807142D02*
X128764528Y-81664285D01*
X127955957Y-79607142D02*
X127955957Y-80292856D01*
X127955957Y-79949999D02*
X129155957Y-79949999D01*
X129155957Y-79949999D02*
X128984528Y-80064285D01*
X128984528Y-80064285D02*
X128870242Y-80178570D01*
X128870242Y-80178570D02*
X128813100Y-80292856D01*
X133783575Y-80348571D02*
X133783575Y-79634286D01*
X133355004Y-80491428D02*
X134855004Y-79991428D01*
X134855004Y-79991428D02*
X133355004Y-79491428D01*
X130738338Y-81664285D02*
X132238338Y-81664285D01*
X130738338Y-80807142D02*
X131595481Y-81449999D01*
X132238338Y-80807142D02*
X131381195Y-81664285D01*
X131772624Y-80007142D02*
X131772624Y-79892856D01*
X131772624Y-79892856D02*
X131715481Y-79778570D01*
X131715481Y-79778570D02*
X131658338Y-79721428D01*
X131658338Y-79721428D02*
X131544052Y-79664285D01*
X131544052Y-79664285D02*
X131315481Y-79607142D01*
X131315481Y-79607142D02*
X131029767Y-79607142D01*
X131029767Y-79607142D02*
X130801195Y-79664285D01*
X130801195Y-79664285D02*
X130686909Y-79721428D01*
X130686909Y-79721428D02*
X130629767Y-79778570D01*
X130629767Y-79778570D02*
X130572624Y-79892856D01*
X130572624Y-79892856D02*
X130572624Y-80007142D01*
X130572624Y-80007142D02*
X130629767Y-80121428D01*
X130629767Y-80121428D02*
X130686909Y-80178570D01*
X130686909Y-80178570D02*
X130801195Y-80235713D01*
X130801195Y-80235713D02*
X131029767Y-80292856D01*
X131029767Y-80292856D02*
X131315481Y-80292856D01*
X131315481Y-80292856D02*
X131544052Y-80235713D01*
X131544052Y-80235713D02*
X131658338Y-80178570D01*
X131658338Y-80178570D02*
X131715481Y-80121428D01*
X131715481Y-80121428D02*
X131772624Y-80007142D01*
X141205004Y-79634286D02*
X141919290Y-80134286D01*
X141205004Y-80491429D02*
X142705004Y-80491429D01*
X142705004Y-80491429D02*
X142705004Y-79920000D01*
X142705004Y-79920000D02*
X142633575Y-79777143D01*
X142633575Y-79777143D02*
X142562147Y-79705714D01*
X142562147Y-79705714D02*
X142419290Y-79634286D01*
X142419290Y-79634286D02*
X142205004Y-79634286D01*
X142205004Y-79634286D02*
X142062147Y-79705714D01*
X142062147Y-79705714D02*
X141990718Y-79777143D01*
X141990718Y-79777143D02*
X141919290Y-79920000D01*
X141919290Y-79920000D02*
X141919290Y-80491429D01*
X135971671Y-80878571D02*
X137471671Y-80878571D01*
X135863100Y-80292856D02*
X135805957Y-80121428D01*
X135805957Y-80121428D02*
X135805957Y-79835713D01*
X135805957Y-79835713D02*
X135863100Y-79721428D01*
X135863100Y-79721428D02*
X135920242Y-79664285D01*
X135920242Y-79664285D02*
X136034528Y-79607142D01*
X136034528Y-79607142D02*
X136148814Y-79607142D01*
X136148814Y-79607142D02*
X136263100Y-79664285D01*
X136263100Y-79664285D02*
X136320242Y-79721428D01*
X136320242Y-79721428D02*
X136377385Y-79835713D01*
X136377385Y-79835713D02*
X136434528Y-80064285D01*
X136434528Y-80064285D02*
X136491671Y-80178570D01*
X136491671Y-80178570D02*
X136548814Y-80235713D01*
X136548814Y-80235713D02*
X136663100Y-80292856D01*
X136663100Y-80292856D02*
X136777385Y-80292856D01*
X136777385Y-80292856D02*
X136891671Y-80235713D01*
X136891671Y-80235713D02*
X136948814Y-80178570D01*
X136948814Y-80178570D02*
X137005957Y-80064285D01*
X137005957Y-80064285D02*
X137005957Y-79778570D01*
X137005957Y-79778570D02*
X136948814Y-79607142D01*
D11*
X141633333Y-96354819D02*
X141633333Y-97069104D01*
X141633333Y-97069104D02*
X141680952Y-97211961D01*
X141680952Y-97211961D02*
X141776190Y-97307200D01*
X141776190Y-97307200D02*
X141919047Y-97354819D01*
X141919047Y-97354819D02*
X142014285Y-97354819D01*
X141204761Y-96450057D02*
X141157142Y-96402438D01*
X141157142Y-96402438D02*
X141061904Y-96354819D01*
X141061904Y-96354819D02*
X140823809Y-96354819D01*
X140823809Y-96354819D02*
X140728571Y-96402438D01*
X140728571Y-96402438D02*
X140680952Y-96450057D01*
X140680952Y-96450057D02*
X140633333Y-96545295D01*
X140633333Y-96545295D02*
X140633333Y-96640533D01*
X140633333Y-96640533D02*
X140680952Y-96783390D01*
X140680952Y-96783390D02*
X141252380Y-97354819D01*
X141252380Y-97354819D02*
X140633333Y-97354819D01*
X141333333Y-113354819D02*
X141333333Y-114069104D01*
X141333333Y-114069104D02*
X141380952Y-114211961D01*
X141380952Y-114211961D02*
X141476190Y-114307200D01*
X141476190Y-114307200D02*
X141619047Y-114354819D01*
X141619047Y-114354819D02*
X141714285Y-114354819D01*
X140333333Y-114354819D02*
X140904761Y-114354819D01*
X140619047Y-114354819D02*
X140619047Y-113354819D01*
X140619047Y-113354819D02*
X140714285Y-113497676D01*
X140714285Y-113497676D02*
X140809523Y-113592914D01*
X140809523Y-113592914D02*
X140904761Y-113640533D01*
D12*
%TO.C,J2*%
X134205000Y-97395000D02*
X135730000Y-97395000D01*
X134205000Y-110605000D02*
X134205000Y-97395000D01*
X134205000Y-110605000D02*
X135730000Y-110605000D01*
X135730000Y-96380000D02*
X138270000Y-96380000D01*
X135730000Y-97395000D02*
X135730000Y-96380000D01*
X135730000Y-110605000D02*
X135730000Y-111620000D01*
X135730000Y-111620000D02*
X138270000Y-111620000D01*
X138270000Y-97395000D02*
X138270000Y-96380000D01*
X138270000Y-110605000D02*
X138270000Y-111620000D01*
X139795000Y-110605000D02*
X138270000Y-110605000D01*
X139795000Y-110605000D02*
X139795000Y-98300000D01*
%TO.C,J1*%
X134205000Y-114395000D02*
X135730000Y-114395000D01*
X134205000Y-127605000D02*
X134205000Y-114395000D01*
X134205000Y-127605000D02*
X135730000Y-127605000D01*
X135730000Y-113380000D02*
X138270000Y-113380000D01*
X135730000Y-114395000D02*
X135730000Y-113380000D01*
X135730000Y-127605000D02*
X135730000Y-128620000D01*
X135730000Y-128620000D02*
X138270000Y-128620000D01*
X138270000Y-114395000D02*
X138270000Y-113380000D01*
X138270000Y-127605000D02*
X138270000Y-128620000D01*
X139795000Y-127605000D02*
X138270000Y-127605000D01*
X139795000Y-127605000D02*
X139795000Y-115300000D01*
%TD*%
M02*
