%TF.GenerationSoftware,KiCad,Pcbnew,9.0.3*%
%TF.CreationDate,2025-09-24T11:10:32-04:00*%
%TF.ProjectId,eib-64-cnt-a64,6569622d-3634-42d6-936e-742d6136342e,A*%
%TF.SameCoordinates,Original*%
%TF.FileFunction,Copper,L2,Inr*%
%TF.FilePolarity,Positive*%
%FSLAX46Y46*%
G04 Gerber Fmt 4.6, Leading zero omitted, Abs format (unit mm)*
G04 Created by KiCad (PCBNEW 9.0.3) date 2025-09-24 11:10:32*
%MOMM*%
%LPD*%
G01*
G04 APERTURE LIST*
%TA.AperFunction,ComponentPad*%
%ADD10R,1.700000X1.700000*%
%TD*%
%TA.AperFunction,ComponentPad*%
%ADD11C,1.700000*%
%TD*%
%TA.AperFunction,ComponentPad*%
%ADD12R,0.910000X0.910000*%
%TD*%
%TA.AperFunction,ComponentPad*%
%ADD13C,0.910000*%
%TD*%
%TA.AperFunction,ViaPad*%
%ADD14C,0.400000*%
%TD*%
%TA.AperFunction,Conductor*%
%ADD15C,0.120000*%
%TD*%
G04 APERTURE END LIST*
D10*
%TO.N,/K1*%
%TO.C,J4*%
X129300000Y-77900000D03*
D11*
%TO.N,/K0*%
X131840000Y-77900000D03*
%TO.N,/Vcoax*%
X134380000Y-77900000D03*
%TO.N,/Istim*%
X136920000Y-77900000D03*
%TO.N,GND*%
X139460000Y-77900000D03*
%TO.N,/Ref*%
X142000000Y-77900000D03*
%TO.N,GND*%
X144540000Y-77900000D03*
%TD*%
D12*
%TO.N,/Elec31*%
%TO.C,J2*%
X138905000Y-98285000D03*
D13*
%TO.N,/Elec30*%
X138905000Y-99555000D03*
%TO.N,/Elec29*%
X138905000Y-100825000D03*
%TO.N,/Elec28*%
X138905000Y-102095000D03*
%TO.N,/Elec27*%
X138905000Y-103365000D03*
%TO.N,/Elec25*%
X138905000Y-104635000D03*
%TO.N,/Elec23*%
X138905000Y-105905000D03*
%TO.N,/Elec21*%
X138905000Y-107175000D03*
%TO.N,/Elec19*%
X138905000Y-108445000D03*
%TO.N,/Elec17*%
X138905000Y-109715000D03*
%TO.N,/Ref*%
X137635000Y-98285000D03*
%TO.N,GND*%
X137635000Y-99555000D03*
%TO.N,unconnected-(J2-PadB3)*%
X137635000Y-100825000D03*
%TO.N,unconnected-(J2-PadB4)*%
X137635000Y-102095000D03*
%TO.N,/Elec26*%
X137635000Y-103365000D03*
%TO.N,/Elec24*%
X137635000Y-104635000D03*
%TO.N,/Elec22*%
X137635000Y-105905000D03*
%TO.N,/Elec20*%
X137635000Y-107175000D03*
%TO.N,/Elec18*%
X137635000Y-108445000D03*
%TO.N,/Elec16*%
X137635000Y-109715000D03*
%TO.N,/Ref*%
X136365000Y-98285000D03*
%TO.N,GND*%
X136365000Y-99555000D03*
%TO.N,unconnected-(J2-PadC3)*%
X136365000Y-100825000D03*
%TO.N,unconnected-(J2-PadC4)*%
X136365000Y-102095000D03*
%TO.N,/Elec37*%
X136365000Y-103365000D03*
%TO.N,/Elec39*%
X136365000Y-104635000D03*
%TO.N,/Elec41*%
X136365000Y-105905000D03*
%TO.N,/Elec43*%
X136365000Y-107175000D03*
%TO.N,/Elec45*%
X136365000Y-108445000D03*
%TO.N,/Elec47*%
X136365000Y-109715000D03*
%TO.N,/Elec32*%
X135095000Y-98285000D03*
%TO.N,/Elec33*%
X135095000Y-99555000D03*
%TO.N,/Elec34*%
X135095000Y-100825000D03*
%TO.N,/Elec35*%
X135095000Y-102095000D03*
%TO.N,/Elec36*%
X135095000Y-103365000D03*
%TO.N,/Elec38*%
X135095000Y-104635000D03*
%TO.N,/Elec40*%
X135095000Y-105905000D03*
%TO.N,/Elec42*%
X135095000Y-107175000D03*
%TO.N,/Elec44*%
X135095000Y-108445000D03*
%TO.N,/Elec46*%
X135095000Y-109715000D03*
%TD*%
D12*
%TO.N,/Elec15*%
%TO.C,J1*%
X138905000Y-115285000D03*
D13*
%TO.N,/Elec14*%
X138905000Y-116555000D03*
%TO.N,/Elec13*%
X138905000Y-117825000D03*
%TO.N,/Elec12*%
X138905000Y-119095000D03*
%TO.N,/Elec11*%
X138905000Y-120365000D03*
%TO.N,/Elec9*%
X138905000Y-121635000D03*
%TO.N,/Elec7*%
X138905000Y-122905000D03*
%TO.N,/Elec5*%
X138905000Y-124175000D03*
%TO.N,/Elec3*%
X138905000Y-125445000D03*
%TO.N,/Elec1*%
X138905000Y-126715000D03*
%TO.N,/Ref*%
X137635000Y-115285000D03*
%TO.N,GND*%
X137635000Y-116555000D03*
%TO.N,unconnected-(J1-PadB3)*%
X137635000Y-117825000D03*
%TO.N,unconnected-(J1-PadB4)*%
X137635000Y-119095000D03*
%TO.N,/Elec10*%
X137635000Y-120365000D03*
%TO.N,/Elec8*%
X137635000Y-121635000D03*
%TO.N,/Elec6*%
X137635000Y-122905000D03*
%TO.N,/Elec4*%
X137635000Y-124175000D03*
%TO.N,/Elec2*%
X137635000Y-125445000D03*
%TO.N,/Elec0*%
X137635000Y-126715000D03*
%TO.N,/Ref*%
X136365000Y-115285000D03*
%TO.N,GND*%
X136365000Y-116555000D03*
%TO.N,unconnected-(J1-PadC3)*%
X136365000Y-117825000D03*
%TO.N,unconnected-(J1-PadC4)*%
X136365000Y-119095000D03*
%TO.N,/Elec53*%
X136365000Y-120365000D03*
%TO.N,/Elec55*%
X136365000Y-121635000D03*
%TO.N,/Elec57*%
X136365000Y-122905000D03*
%TO.N,/Elec59*%
X136365000Y-124175000D03*
%TO.N,/Elec61*%
X136365000Y-125445000D03*
%TO.N,/Elec63*%
X136365000Y-126715000D03*
%TO.N,/Elec48*%
X135095000Y-115285000D03*
%TO.N,/Elec49*%
X135095000Y-116555000D03*
%TO.N,/Elec50*%
X135095000Y-117825000D03*
%TO.N,/Elec51*%
X135095000Y-119095000D03*
%TO.N,/Elec52*%
X135095000Y-120365000D03*
%TO.N,/Elec54*%
X135095000Y-121635000D03*
%TO.N,/Elec56*%
X135095000Y-122905000D03*
%TO.N,/Elec58*%
X135095000Y-124175000D03*
%TO.N,/Elec60*%
X135095000Y-125445000D03*
%TO.N,/Elec62*%
X135095000Y-126715000D03*
%TD*%
D14*
%TO.N,/Istim*%
X145200000Y-88000000D03*
%TO.N,/Ref*%
X138300000Y-112700000D03*
%TO.N,/Elec0*%
X144450000Y-82600000D03*
%TO.N,/Elec1*%
X143950000Y-83200000D03*
%TO.N,/Elec2*%
X143450000Y-82600000D03*
%TO.N,/Elec3*%
X142950000Y-83200000D03*
%TO.N,/Elec4*%
X142500000Y-82600000D03*
%TO.N,/Elec5*%
X142050000Y-83200000D03*
%TO.N,/Elec6*%
X141600000Y-82600000D03*
%TO.N,/Elec7*%
X141100000Y-83200000D03*
%TO.N,/Elec8*%
X140600000Y-82600000D03*
%TO.N,/Elec9*%
X140250000Y-83250000D03*
%TO.N,/Elec10*%
X139750000Y-82600000D03*
%TO.N,/Elec11*%
X139250000Y-83200000D03*
%TO.N,/Elec12*%
X138750000Y-82600000D03*
%TO.N,/Elec13*%
X138400000Y-83250000D03*
%TO.N,/Elec14*%
X137900000Y-82600000D03*
%TO.N,/Elec15*%
X137450000Y-83200000D03*
%TO.N,/Elec48*%
X137005000Y-82600000D03*
%TO.N,/Elec49*%
X136505000Y-83200000D03*
%TO.N,/Elec50*%
X136055000Y-82700000D03*
%TO.N,/Elec51*%
X135605000Y-83200000D03*
%TO.N,/Elec52*%
X135105000Y-82700000D03*
%TO.N,/Elec53*%
X134655000Y-83200000D03*
%TO.N,/Elec54*%
X134205000Y-82700000D03*
%TO.N,/Elec55*%
X133755000Y-83200000D03*
%TO.N,/Elec56*%
X133305000Y-82700000D03*
%TO.N,/Elec57*%
X132850000Y-83250000D03*
%TO.N,/Elec58*%
X132400000Y-82700000D03*
%TO.N,/Elec59*%
X131950000Y-83250000D03*
%TO.N,/Elec60*%
X131450000Y-82700000D03*
%TO.N,/Elec61*%
X131000000Y-83250000D03*
%TO.N,/Elec62*%
X130500000Y-82700000D03*
%TO.N,/Elec63*%
X130050000Y-83250000D03*
%TO.N,GND*%
X137000000Y-128000000D03*
X131500000Y-81700000D03*
X129400000Y-84200000D03*
X137000000Y-87000000D03*
X130000000Y-80500000D03*
X137000000Y-96000000D03*
X144900000Y-85500000D03*
X139900000Y-128300000D03*
X137000000Y-95000000D03*
X134400000Y-81400000D03*
X136000000Y-113000000D03*
X139966520Y-81031721D03*
X131048296Y-126000000D03*
X137000000Y-111000000D03*
X144900000Y-83900000D03*
X129200000Y-86200000D03*
X144900000Y-86500000D03*
X129400000Y-87900000D03*
X134700000Y-111100000D03*
X145900000Y-122700000D03*
X129100000Y-89600000D03*
X140900000Y-117900000D03*
X134600000Y-128400000D03*
X144300000Y-80900000D03*
X142300000Y-81100000D03*
X129700000Y-82700000D03*
X145100000Y-82200000D03*
X127900000Y-88500000D03*
X136900000Y-81100000D03*
X128000000Y-92300000D03*
X139300000Y-113600000D03*
%TD*%
D15*
%TO.N,GND*%
X138241000Y-100161000D02*
X139639000Y-100161000D01*
X136365000Y-116555000D02*
X135720000Y-117200000D01*
X137635000Y-99555000D02*
X138241000Y-98949000D01*
X138241000Y-98949000D02*
X138241000Y-97541000D01*
X137635000Y-99555000D02*
X138241000Y-100161000D01*
X135701000Y-114301000D02*
X135600000Y-114200000D01*
X136365000Y-99555000D02*
X135759000Y-98949000D01*
X135759000Y-98949000D02*
X135759000Y-97441000D01*
X139839000Y-117161000D02*
X140000000Y-117000000D01*
X137635000Y-116555000D02*
X138241000Y-117161000D01*
X138241000Y-117161000D02*
X139839000Y-117161000D01*
X137635000Y-116555000D02*
X138241000Y-115949000D01*
X138241000Y-97541000D02*
X138100000Y-97400000D01*
X135701000Y-115891000D02*
X135701000Y-114301000D01*
X136365000Y-116555000D02*
X135701000Y-115891000D01*
X139639000Y-100161000D02*
X139700000Y-100100000D01*
X135720000Y-117200000D02*
X134100000Y-117200000D01*
X138241000Y-115949000D02*
X138241000Y-114241000D01*
X138241000Y-114241000D02*
X138200000Y-114200000D01*
X135759000Y-97441000D02*
X135800000Y-97400000D01*
%TD*%
%TA.AperFunction,Conductor*%
%TO.N,GND*%
G36*
X136104082Y-116663076D02*
G01*
X136140944Y-116726924D01*
X136193076Y-116779056D01*
X136256924Y-116815918D01*
X136303683Y-116828447D01*
X136019934Y-117112195D01*
X136020421Y-117117135D01*
X136050612Y-117155432D01*
X136053014Y-117216570D01*
X136019022Y-117267444D01*
X136012733Y-117272013D01*
X135947143Y-117315839D01*
X135855839Y-117407143D01*
X135812315Y-117472282D01*
X135764265Y-117510161D01*
X135703127Y-117512563D01*
X135652253Y-117478570D01*
X135647685Y-117472282D01*
X135604160Y-117407143D01*
X135512857Y-117315840D01*
X135512856Y-117315839D01*
X135447716Y-117272314D01*
X135409838Y-117224266D01*
X135407436Y-117163128D01*
X135441428Y-117112254D01*
X135447702Y-117107695D01*
X135512857Y-117064160D01*
X135604160Y-116972857D01*
X135647987Y-116907265D01*
X135696034Y-116869388D01*
X135757172Y-116866986D01*
X135806484Y-116899934D01*
X135807802Y-116900064D01*
X136091552Y-116616314D01*
X136104082Y-116663076D01*
G37*
%TD.AperFunction*%
%TA.AperFunction,Conductor*%
G36*
X137374082Y-116663076D02*
G01*
X137410944Y-116726924D01*
X137463076Y-116779056D01*
X137526924Y-116815918D01*
X137573683Y-116828447D01*
X137289934Y-117112195D01*
X137290421Y-117117135D01*
X137320612Y-117155432D01*
X137323014Y-117216570D01*
X137289022Y-117267444D01*
X137282733Y-117272013D01*
X137217143Y-117315839D01*
X137125839Y-117407143D01*
X137082315Y-117472282D01*
X137034265Y-117510161D01*
X136973127Y-117512563D01*
X136922253Y-117478570D01*
X136917685Y-117472282D01*
X136874160Y-117407143D01*
X136782856Y-117315839D01*
X136717266Y-117272013D01*
X136679387Y-117223963D01*
X136676985Y-117162825D01*
X136709934Y-117113513D01*
X136710063Y-117112196D01*
X136426314Y-116828447D01*
X136473076Y-116815918D01*
X136536924Y-116779056D01*
X136589056Y-116726924D01*
X136625918Y-116663076D01*
X136638447Y-116616314D01*
X136922196Y-116900063D01*
X136926827Y-116899607D01*
X136965735Y-116868936D01*
X137026874Y-116866536D01*
X137076921Y-116899977D01*
X137077802Y-116900064D01*
X137361552Y-116616314D01*
X137374082Y-116663076D01*
G37*
%TD.AperFunction*%
%TA.AperFunction,Conductor*%
G36*
X138192196Y-116900063D02*
G01*
X138197135Y-116899577D01*
X138235434Y-116869387D01*
X138296572Y-116866985D01*
X138347445Y-116900979D01*
X138352013Y-116907266D01*
X138395839Y-116972856D01*
X138487143Y-117064160D01*
X138552282Y-117107685D01*
X138590161Y-117155735D01*
X138592563Y-117216873D01*
X138558570Y-117267747D01*
X138552282Y-117272315D01*
X138487143Y-117315839D01*
X138395839Y-117407143D01*
X138352315Y-117472282D01*
X138304265Y-117510161D01*
X138243127Y-117512563D01*
X138192253Y-117478570D01*
X138187685Y-117472282D01*
X138144160Y-117407143D01*
X138052856Y-117315839D01*
X137987266Y-117272013D01*
X137949387Y-117223963D01*
X137946985Y-117162825D01*
X137979934Y-117113513D01*
X137980063Y-117112196D01*
X137696314Y-116828447D01*
X137743076Y-116815918D01*
X137806924Y-116779056D01*
X137859056Y-116726924D01*
X137895918Y-116663076D01*
X137908447Y-116616314D01*
X138192196Y-116900063D01*
G37*
%TD.AperFunction*%
%TA.AperFunction,Conductor*%
G36*
X135807746Y-115631428D02*
G01*
X135812304Y-115637702D01*
X135855839Y-115702856D01*
X135855840Y-115702857D01*
X135947143Y-115794160D01*
X136012731Y-115837985D01*
X136050610Y-115886035D01*
X136053012Y-115947173D01*
X136020065Y-115996481D01*
X136019935Y-115997802D01*
X136303685Y-116281552D01*
X136256924Y-116294082D01*
X136193076Y-116330944D01*
X136140944Y-116383076D01*
X136104082Y-116446924D01*
X136091552Y-116493685D01*
X135807802Y-116209935D01*
X135802859Y-116210421D01*
X135764564Y-116240610D01*
X135703426Y-116243012D01*
X135652553Y-116209018D01*
X135647985Y-116202731D01*
X135604160Y-116137143D01*
X135512857Y-116045840D01*
X135493157Y-116032677D01*
X135447716Y-116002314D01*
X135409838Y-115954266D01*
X135407436Y-115893128D01*
X135441428Y-115842254D01*
X135447702Y-115837695D01*
X135512857Y-115794160D01*
X135604160Y-115702857D01*
X135647685Y-115637716D01*
X135695734Y-115599838D01*
X135756872Y-115597436D01*
X135807746Y-115631428D01*
G37*
%TD.AperFunction*%
%TA.AperFunction,Conductor*%
G36*
X137030229Y-115599679D02*
G01*
X137034266Y-115599838D01*
X137055386Y-115616488D01*
X137077746Y-115631428D01*
X137082304Y-115637702D01*
X137125839Y-115702856D01*
X137125840Y-115702857D01*
X137217143Y-115794160D01*
X137282731Y-115837985D01*
X137320610Y-115886035D01*
X137323012Y-115947173D01*
X137290065Y-115996481D01*
X137289935Y-115997802D01*
X137573685Y-116281552D01*
X137526924Y-116294082D01*
X137463076Y-116330944D01*
X137410944Y-116383076D01*
X137374082Y-116446924D01*
X137361552Y-116493685D01*
X137077802Y-116209935D01*
X137073168Y-116210391D01*
X137034264Y-116241061D01*
X136973126Y-116243463D01*
X136923077Y-116210021D01*
X136922195Y-116209934D01*
X136638447Y-116493683D01*
X136625918Y-116446924D01*
X136589056Y-116383076D01*
X136536924Y-116330944D01*
X136473076Y-116294082D01*
X136426314Y-116281552D01*
X136710064Y-115997802D01*
X136709577Y-115992861D01*
X136679388Y-115954565D01*
X136676986Y-115893427D01*
X136710979Y-115842553D01*
X136717240Y-115838003D01*
X136782857Y-115794160D01*
X136874160Y-115702857D01*
X136917685Y-115637716D01*
X136920855Y-115635217D01*
X136922254Y-115631428D01*
X136944613Y-115616488D01*
X136965734Y-115599838D01*
X136969770Y-115599679D01*
X136973128Y-115597436D01*
X137000000Y-115598491D01*
X137026872Y-115597436D01*
X137030229Y-115599679D01*
G37*
%TD.AperFunction*%
%TA.AperFunction,Conductor*%
G36*
X138181639Y-115733246D02*
G01*
X138206564Y-115737194D01*
X138210675Y-115741305D01*
X138216279Y-115742861D01*
X138231984Y-115762614D01*
X138249829Y-115780458D01*
X138252657Y-115788614D01*
X138254358Y-115790753D01*
X138254495Y-115793913D01*
X138258717Y-115806087D01*
X138261132Y-115818228D01*
X138261134Y-115818233D01*
X138292983Y-115865897D01*
X138305448Y-115884552D01*
X138371769Y-115928867D01*
X138383911Y-115931282D01*
X138391058Y-115935285D01*
X138399247Y-115935641D01*
X138417241Y-115949948D01*
X138437293Y-115961178D01*
X138440723Y-115968618D01*
X138447139Y-115973720D01*
X138453286Y-115995871D01*
X138462909Y-116016743D01*
X138461310Y-116024780D01*
X138463502Y-116032677D01*
X138456633Y-116048290D01*
X138450972Y-116076753D01*
X138442086Y-116089992D01*
X138438574Y-116094408D01*
X138395840Y-116137143D01*
X138349741Y-116206134D01*
X138347189Y-116209344D01*
X138324928Y-116224084D01*
X138303963Y-116240612D01*
X138299717Y-116240778D01*
X138296174Y-116243125D01*
X138269499Y-116241965D01*
X138242824Y-116243014D01*
X138239291Y-116240653D01*
X138235046Y-116240469D01*
X138214142Y-116223848D01*
X138193513Y-116210064D01*
X138192195Y-116209934D01*
X137908447Y-116493683D01*
X137895918Y-116446924D01*
X137859056Y-116383076D01*
X137806924Y-116330944D01*
X137743076Y-116294082D01*
X137696314Y-116281552D01*
X137980064Y-115997802D01*
X137979577Y-115992861D01*
X137968455Y-115978751D01*
X137949531Y-115954951D01*
X137949521Y-115954734D01*
X137949388Y-115954565D01*
X137948196Y-115924238D01*
X137946875Y-115893824D01*
X137946995Y-115893658D01*
X137946986Y-115893427D01*
X137980656Y-115842809D01*
X137983850Y-115840269D01*
X138052857Y-115794160D01*
X138095599Y-115751417D01*
X138100007Y-115747913D01*
X138123648Y-115739079D01*
X138146132Y-115727623D01*
X138151874Y-115728532D01*
X138157322Y-115726497D01*
X138181639Y-115733246D01*
G37*
%TD.AperFunction*%
%TA.AperFunction,Conductor*%
G36*
X136104082Y-99663076D02*
G01*
X136140944Y-99726924D01*
X136193076Y-99779056D01*
X136256924Y-99815918D01*
X136303683Y-99828447D01*
X136019934Y-100112195D01*
X136020421Y-100117135D01*
X136050612Y-100155432D01*
X136053014Y-100216570D01*
X136019022Y-100267444D01*
X136012733Y-100272013D01*
X135947143Y-100315839D01*
X135855839Y-100407143D01*
X135812315Y-100472282D01*
X135764265Y-100510161D01*
X135703127Y-100512563D01*
X135652253Y-100478570D01*
X135647685Y-100472282D01*
X135604160Y-100407143D01*
X135512857Y-100315840D01*
X135512856Y-100315839D01*
X135447716Y-100272314D01*
X135409838Y-100224266D01*
X135407436Y-100163128D01*
X135441428Y-100112254D01*
X135447702Y-100107695D01*
X135512857Y-100064160D01*
X135604160Y-99972857D01*
X135647987Y-99907265D01*
X135696034Y-99869388D01*
X135757172Y-99866986D01*
X135806484Y-99899934D01*
X135807802Y-99900064D01*
X136091552Y-99616314D01*
X136104082Y-99663076D01*
G37*
%TD.AperFunction*%
%TA.AperFunction,Conductor*%
G36*
X137374082Y-99663076D02*
G01*
X137410944Y-99726924D01*
X137463076Y-99779056D01*
X137526924Y-99815918D01*
X137573683Y-99828447D01*
X137289934Y-100112195D01*
X137290421Y-100117135D01*
X137320612Y-100155432D01*
X137323014Y-100216570D01*
X137289022Y-100267444D01*
X137282733Y-100272013D01*
X137217143Y-100315839D01*
X137125839Y-100407143D01*
X137082315Y-100472282D01*
X137034265Y-100510161D01*
X136973127Y-100512563D01*
X136922253Y-100478570D01*
X136917685Y-100472282D01*
X136874160Y-100407143D01*
X136782856Y-100315839D01*
X136717266Y-100272013D01*
X136679387Y-100223963D01*
X136676985Y-100162825D01*
X136709934Y-100113513D01*
X136710063Y-100112196D01*
X136426314Y-99828447D01*
X136473076Y-99815918D01*
X136536924Y-99779056D01*
X136589056Y-99726924D01*
X136625918Y-99663076D01*
X136638447Y-99616314D01*
X136922196Y-99900063D01*
X136926827Y-99899607D01*
X136965735Y-99868936D01*
X137026874Y-99866536D01*
X137076921Y-99899977D01*
X137077802Y-99900064D01*
X137361552Y-99616314D01*
X137374082Y-99663076D01*
G37*
%TD.AperFunction*%
%TA.AperFunction,Conductor*%
G36*
X138192196Y-99900063D02*
G01*
X138197135Y-99899577D01*
X138235434Y-99869387D01*
X138296572Y-99866985D01*
X138347445Y-99900979D01*
X138352013Y-99907266D01*
X138395839Y-99972856D01*
X138487143Y-100064160D01*
X138552282Y-100107685D01*
X138590161Y-100155735D01*
X138592563Y-100216873D01*
X138558570Y-100267747D01*
X138552282Y-100272315D01*
X138487143Y-100315839D01*
X138395839Y-100407143D01*
X138352315Y-100472282D01*
X138304265Y-100510161D01*
X138243127Y-100512563D01*
X138192253Y-100478570D01*
X138187685Y-100472282D01*
X138144160Y-100407143D01*
X138052856Y-100315839D01*
X137987266Y-100272013D01*
X137949387Y-100223963D01*
X137946985Y-100162825D01*
X137979934Y-100113513D01*
X137980063Y-100112196D01*
X137696314Y-99828447D01*
X137743076Y-99815918D01*
X137806924Y-99779056D01*
X137859056Y-99726924D01*
X137895918Y-99663076D01*
X137908447Y-99616314D01*
X138192196Y-99900063D01*
G37*
%TD.AperFunction*%
%TA.AperFunction,Conductor*%
G36*
X135807746Y-98631428D02*
G01*
X135812304Y-98637702D01*
X135855839Y-98702856D01*
X135855840Y-98702857D01*
X135947143Y-98794160D01*
X136012731Y-98837985D01*
X136050610Y-98886035D01*
X136053012Y-98947173D01*
X136020065Y-98996481D01*
X136019935Y-98997802D01*
X136303685Y-99281552D01*
X136256924Y-99294082D01*
X136193076Y-99330944D01*
X136140944Y-99383076D01*
X136104082Y-99446924D01*
X136091552Y-99493685D01*
X135807802Y-99209935D01*
X135802859Y-99210421D01*
X135764564Y-99240610D01*
X135703426Y-99243012D01*
X135652553Y-99209018D01*
X135647985Y-99202731D01*
X135604160Y-99137143D01*
X135512857Y-99045840D01*
X135493157Y-99032677D01*
X135447716Y-99002314D01*
X135409838Y-98954266D01*
X135407436Y-98893128D01*
X135441428Y-98842254D01*
X135447702Y-98837695D01*
X135512857Y-98794160D01*
X135604160Y-98702857D01*
X135647685Y-98637716D01*
X135695734Y-98599838D01*
X135756872Y-98597436D01*
X135807746Y-98631428D01*
G37*
%TD.AperFunction*%
%TA.AperFunction,Conductor*%
G36*
X137030229Y-98599679D02*
G01*
X137034266Y-98599838D01*
X137055386Y-98616488D01*
X137077746Y-98631428D01*
X137082304Y-98637702D01*
X137125839Y-98702856D01*
X137125840Y-98702857D01*
X137217143Y-98794160D01*
X137282731Y-98837985D01*
X137320610Y-98886035D01*
X137323012Y-98947173D01*
X137290065Y-98996481D01*
X137289935Y-98997802D01*
X137573685Y-99281552D01*
X137526924Y-99294082D01*
X137463076Y-99330944D01*
X137410944Y-99383076D01*
X137374082Y-99446924D01*
X137361552Y-99493685D01*
X137077802Y-99209935D01*
X137073168Y-99210391D01*
X137034264Y-99241061D01*
X136973126Y-99243463D01*
X136923077Y-99210021D01*
X136922195Y-99209934D01*
X136638447Y-99493683D01*
X136625918Y-99446924D01*
X136589056Y-99383076D01*
X136536924Y-99330944D01*
X136473076Y-99294082D01*
X136426314Y-99281552D01*
X136710064Y-98997802D01*
X136709577Y-98992861D01*
X136679388Y-98954565D01*
X136676986Y-98893427D01*
X136710979Y-98842553D01*
X136717240Y-98838003D01*
X136782857Y-98794160D01*
X136874160Y-98702857D01*
X136917685Y-98637716D01*
X136920855Y-98635217D01*
X136922254Y-98631428D01*
X136944613Y-98616488D01*
X136965734Y-98599838D01*
X136969770Y-98599679D01*
X136973128Y-98597436D01*
X137000000Y-98598491D01*
X137026872Y-98597436D01*
X137030229Y-98599679D01*
G37*
%TD.AperFunction*%
%TA.AperFunction,Conductor*%
G36*
X138181639Y-98733246D02*
G01*
X138206564Y-98737194D01*
X138210675Y-98741305D01*
X138216279Y-98742861D01*
X138231984Y-98762614D01*
X138249829Y-98780458D01*
X138252657Y-98788614D01*
X138254358Y-98790753D01*
X138254495Y-98793913D01*
X138258717Y-98806087D01*
X138261132Y-98818228D01*
X138261134Y-98818233D01*
X138292983Y-98865897D01*
X138305448Y-98884552D01*
X138371769Y-98928867D01*
X138383911Y-98931282D01*
X138391058Y-98935285D01*
X138399247Y-98935641D01*
X138417241Y-98949948D01*
X138437293Y-98961178D01*
X138440723Y-98968618D01*
X138447139Y-98973720D01*
X138453286Y-98995871D01*
X138462909Y-99016743D01*
X138461310Y-99024780D01*
X138463502Y-99032677D01*
X138456633Y-99048290D01*
X138450972Y-99076753D01*
X138442086Y-99089992D01*
X138438574Y-99094408D01*
X138395840Y-99137143D01*
X138349741Y-99206134D01*
X138347189Y-99209344D01*
X138324928Y-99224084D01*
X138303963Y-99240612D01*
X138299717Y-99240778D01*
X138296174Y-99243125D01*
X138269499Y-99241965D01*
X138242824Y-99243014D01*
X138239291Y-99240653D01*
X138235046Y-99240469D01*
X138214142Y-99223848D01*
X138193513Y-99210064D01*
X138192195Y-99209934D01*
X137908447Y-99493683D01*
X137895918Y-99446924D01*
X137859056Y-99383076D01*
X137806924Y-99330944D01*
X137743076Y-99294082D01*
X137696314Y-99281552D01*
X137980064Y-98997802D01*
X137979577Y-98992861D01*
X137968455Y-98978751D01*
X137949531Y-98954951D01*
X137949521Y-98954734D01*
X137949388Y-98954565D01*
X137948196Y-98924238D01*
X137946875Y-98893824D01*
X137946995Y-98893658D01*
X137946986Y-98893427D01*
X137980656Y-98842809D01*
X137983850Y-98840269D01*
X138052857Y-98794160D01*
X138095599Y-98751417D01*
X138100007Y-98747913D01*
X138123648Y-98739079D01*
X138146132Y-98727623D01*
X138151874Y-98728532D01*
X138157322Y-98726497D01*
X138181639Y-98733246D01*
G37*
%TD.AperFunction*%
%TA.AperFunction,Conductor*%
G36*
X145003234Y-76614926D02*
G01*
X145228409Y-76629684D01*
X145241237Y-76631373D01*
X145459384Y-76674766D01*
X145471888Y-76678117D01*
X145682497Y-76749609D01*
X145694449Y-76754559D01*
X145893937Y-76852937D01*
X145905132Y-76859400D01*
X145974052Y-76905451D01*
X146090063Y-76982968D01*
X146100337Y-76990851D01*
X146267558Y-77137501D01*
X146276714Y-77146658D01*
X146423352Y-77313866D01*
X146431236Y-77324140D01*
X146554799Y-77509068D01*
X146561274Y-77520283D01*
X146659643Y-77719759D01*
X146664598Y-77731723D01*
X146736086Y-77942322D01*
X146739438Y-77954831D01*
X146782827Y-78172968D01*
X146784517Y-78185807D01*
X146799288Y-78411197D01*
X146799500Y-78417671D01*
X146799500Y-122875942D01*
X146780593Y-122934133D01*
X146770504Y-122945946D01*
X139945946Y-129770504D01*
X139891429Y-129798281D01*
X139875942Y-129799500D01*
X134124058Y-129799500D01*
X134065867Y-129780593D01*
X134054054Y-129770504D01*
X127229496Y-122945946D01*
X127201719Y-122891429D01*
X127200500Y-122875942D01*
X127200500Y-115220436D01*
X134439500Y-115220436D01*
X134439500Y-115349563D01*
X134464690Y-115476201D01*
X134464690Y-115476203D01*
X134514101Y-115595493D01*
X134514101Y-115595494D01*
X134585839Y-115702856D01*
X134677143Y-115794160D01*
X134742282Y-115837685D01*
X134780161Y-115885735D01*
X134782563Y-115946873D01*
X134748570Y-115997747D01*
X134742282Y-116002315D01*
X134677143Y-116045839D01*
X134585839Y-116137143D01*
X134514101Y-116244505D01*
X134514101Y-116244506D01*
X134464690Y-116363796D01*
X134464690Y-116363798D01*
X134439500Y-116490436D01*
X134439500Y-116619563D01*
X134456293Y-116703988D01*
X134460855Y-116726924D01*
X134464690Y-116746201D01*
X134464690Y-116746203D01*
X134514101Y-116865493D01*
X134514101Y-116865494D01*
X134585839Y-116972856D01*
X134677143Y-117064160D01*
X134742282Y-117107685D01*
X134780161Y-117155735D01*
X134782563Y-117216873D01*
X134748570Y-117267747D01*
X134742282Y-117272315D01*
X134677143Y-117315839D01*
X134585839Y-117407143D01*
X134514101Y-117514505D01*
X134514101Y-117514506D01*
X134464690Y-117633796D01*
X134464690Y-117633798D01*
X134439500Y-117760436D01*
X134439500Y-117889563D01*
X134464690Y-118016201D01*
X134464690Y-118016203D01*
X134514101Y-118135493D01*
X134514101Y-118135494D01*
X134585839Y-118242856D01*
X134677143Y-118334160D01*
X134742282Y-118377685D01*
X134780161Y-118425735D01*
X134782563Y-118486873D01*
X134748570Y-118537747D01*
X134742282Y-118542315D01*
X134677143Y-118585839D01*
X134585839Y-118677143D01*
X134514101Y-118784505D01*
X134514101Y-118784506D01*
X134464690Y-118903796D01*
X134464690Y-118903798D01*
X134439500Y-119030436D01*
X134439500Y-119159563D01*
X134464690Y-119286201D01*
X134464690Y-119286203D01*
X134514101Y-119405493D01*
X134514101Y-119405494D01*
X134585839Y-119512856D01*
X134677143Y-119604160D01*
X134742282Y-119647685D01*
X134780161Y-119695735D01*
X134782563Y-119756873D01*
X134748570Y-119807747D01*
X134742282Y-119812315D01*
X134677143Y-119855839D01*
X134585839Y-119947143D01*
X134514101Y-120054505D01*
X134514101Y-120054506D01*
X134464690Y-120173796D01*
X134464690Y-120173798D01*
X134439500Y-120300436D01*
X134439500Y-120429563D01*
X134464690Y-120556201D01*
X134464690Y-120556203D01*
X134514101Y-120675493D01*
X134514101Y-120675494D01*
X134585839Y-120782856D01*
X134677143Y-120874160D01*
X134742282Y-120917685D01*
X134780161Y-120965735D01*
X134782563Y-121026873D01*
X134748570Y-121077747D01*
X134742282Y-121082315D01*
X134677143Y-121125839D01*
X134585839Y-121217143D01*
X134514101Y-121324505D01*
X134514101Y-121324506D01*
X134464690Y-121443796D01*
X134464690Y-121443798D01*
X134439500Y-121570436D01*
X134439500Y-121699563D01*
X134464690Y-121826201D01*
X134464690Y-121826203D01*
X134514101Y-121945493D01*
X134514101Y-121945494D01*
X134585839Y-122052856D01*
X134677143Y-122144160D01*
X134742282Y-122187685D01*
X134780161Y-122235735D01*
X134782563Y-122296873D01*
X134748570Y-122347747D01*
X134742282Y-122352315D01*
X134677143Y-122395839D01*
X134585839Y-122487143D01*
X134514101Y-122594505D01*
X134514101Y-122594506D01*
X134464690Y-122713796D01*
X134464690Y-122713798D01*
X134439500Y-122840436D01*
X134439500Y-122969563D01*
X134464690Y-123096201D01*
X134464690Y-123096203D01*
X134514101Y-123215493D01*
X134514101Y-123215494D01*
X134585839Y-123322856D01*
X134677143Y-123414160D01*
X134742282Y-123457685D01*
X134780161Y-123505735D01*
X134782563Y-123566873D01*
X134748570Y-123617747D01*
X134742282Y-123622315D01*
X134677143Y-123665839D01*
X134585839Y-123757143D01*
X134514101Y-123864505D01*
X134514101Y-123864506D01*
X134464690Y-123983796D01*
X134464690Y-123983798D01*
X134439500Y-124110436D01*
X134439500Y-124239563D01*
X134464690Y-124366201D01*
X134464690Y-124366203D01*
X134514101Y-124485493D01*
X134514101Y-124485494D01*
X134585839Y-124592856D01*
X134677143Y-124684160D01*
X134742282Y-124727685D01*
X134780161Y-124775735D01*
X134782563Y-124836873D01*
X134748570Y-124887747D01*
X134742282Y-124892315D01*
X134677143Y-124935839D01*
X134585839Y-125027143D01*
X134514101Y-125134505D01*
X134514101Y-125134506D01*
X134464690Y-125253796D01*
X134464690Y-125253798D01*
X134439500Y-125380436D01*
X134439500Y-125509563D01*
X134464690Y-125636201D01*
X134464690Y-125636203D01*
X134514101Y-125755493D01*
X134514101Y-125755494D01*
X134585839Y-125862856D01*
X134677143Y-125954160D01*
X134742282Y-125997685D01*
X134780161Y-126045735D01*
X134782563Y-126106873D01*
X134748570Y-126157747D01*
X134742282Y-126162315D01*
X134677143Y-126205839D01*
X134585839Y-126297143D01*
X134514101Y-126404505D01*
X134514101Y-126404506D01*
X134464690Y-126523796D01*
X134464690Y-126523798D01*
X134439500Y-126650436D01*
X134439500Y-126779563D01*
X134464690Y-126906201D01*
X134464690Y-126906203D01*
X134514101Y-127025493D01*
X134514101Y-127025494D01*
X134515399Y-127027436D01*
X134585840Y-127132857D01*
X134677143Y-127224160D01*
X134784504Y-127295897D01*
X134903798Y-127345310D01*
X135030439Y-127370500D01*
X135030440Y-127370500D01*
X135159560Y-127370500D01*
X135159561Y-127370500D01*
X135286202Y-127345310D01*
X135405496Y-127295897D01*
X135512857Y-127224160D01*
X135604160Y-127132857D01*
X135647685Y-127067716D01*
X135695734Y-127029838D01*
X135756872Y-127027436D01*
X135807746Y-127061428D01*
X135812304Y-127067702D01*
X135855840Y-127132857D01*
X135947143Y-127224160D01*
X136054504Y-127295897D01*
X136173798Y-127345310D01*
X136300439Y-127370500D01*
X136300440Y-127370500D01*
X136429560Y-127370500D01*
X136429561Y-127370500D01*
X136556202Y-127345310D01*
X136675496Y-127295897D01*
X136782857Y-127224160D01*
X136874160Y-127132857D01*
X136917685Y-127067716D01*
X136965734Y-127029838D01*
X137026872Y-127027436D01*
X137077746Y-127061428D01*
X137082304Y-127067702D01*
X137125840Y-127132857D01*
X137217143Y-127224160D01*
X137324504Y-127295897D01*
X137443798Y-127345310D01*
X137570439Y-127370500D01*
X137570440Y-127370500D01*
X137699560Y-127370500D01*
X137699561Y-127370500D01*
X137826202Y-127345310D01*
X137945496Y-127295897D01*
X138052857Y-127224160D01*
X138144160Y-127132857D01*
X138187685Y-127067716D01*
X138235734Y-127029838D01*
X138296872Y-127027436D01*
X138347746Y-127061428D01*
X138352304Y-127067702D01*
X138395840Y-127132857D01*
X138487143Y-127224160D01*
X138594504Y-127295897D01*
X138713798Y-127345310D01*
X138840439Y-127370500D01*
X138840440Y-127370500D01*
X138969560Y-127370500D01*
X138969561Y-127370500D01*
X139096202Y-127345310D01*
X139215496Y-127295897D01*
X139322857Y-127224160D01*
X139414160Y-127132857D01*
X139485897Y-127025496D01*
X139535310Y-126906202D01*
X139560500Y-126779561D01*
X139560500Y-126650439D01*
X139535310Y-126523798D01*
X139485898Y-126404506D01*
X139485898Y-126404505D01*
X139414160Y-126297143D01*
X139322857Y-126205840D01*
X139322856Y-126205839D01*
X139257716Y-126162314D01*
X139219838Y-126114266D01*
X139217436Y-126053128D01*
X139251428Y-126002254D01*
X139257702Y-125997695D01*
X139322857Y-125954160D01*
X139414160Y-125862857D01*
X139485897Y-125755496D01*
X139535310Y-125636202D01*
X139560500Y-125509561D01*
X139560500Y-125380439D01*
X139535310Y-125253798D01*
X139485898Y-125134506D01*
X139485898Y-125134505D01*
X139414160Y-125027143D01*
X139322857Y-124935840D01*
X139322856Y-124935839D01*
X139257716Y-124892314D01*
X139219838Y-124844266D01*
X139217436Y-124783128D01*
X139251428Y-124732254D01*
X139257702Y-124727695D01*
X139322857Y-124684160D01*
X139414160Y-124592857D01*
X139485897Y-124485496D01*
X139535310Y-124366202D01*
X139560500Y-124239561D01*
X139560500Y-124110439D01*
X139535310Y-123983798D01*
X139485898Y-123864506D01*
X139485898Y-123864505D01*
X139414160Y-123757143D01*
X139322857Y-123665840D01*
X139322856Y-123665839D01*
X139257716Y-123622314D01*
X139219838Y-123574266D01*
X139217436Y-123513128D01*
X139251428Y-123462254D01*
X139257702Y-123457695D01*
X139322857Y-123414160D01*
X139414160Y-123322857D01*
X139485897Y-123215496D01*
X139535310Y-123096202D01*
X139560500Y-122969561D01*
X139560500Y-122840439D01*
X139535310Y-122713798D01*
X139485898Y-122594506D01*
X139485898Y-122594505D01*
X139414160Y-122487143D01*
X139322857Y-122395840D01*
X139322856Y-122395839D01*
X139257716Y-122352314D01*
X139219838Y-122304266D01*
X139217436Y-122243128D01*
X139251428Y-122192254D01*
X139257702Y-122187695D01*
X139322857Y-122144160D01*
X139414160Y-122052857D01*
X139485897Y-121945496D01*
X139535310Y-121826202D01*
X139560500Y-121699561D01*
X139560500Y-121570439D01*
X139535310Y-121443798D01*
X139485898Y-121324506D01*
X139485898Y-121324505D01*
X139414160Y-121217143D01*
X139322857Y-121125840D01*
X139322856Y-121125839D01*
X139257716Y-121082314D01*
X139219838Y-121034266D01*
X139217436Y-120973128D01*
X139251428Y-120922254D01*
X139257702Y-120917695D01*
X139322857Y-120874160D01*
X139414160Y-120782857D01*
X139485897Y-120675496D01*
X139535310Y-120556202D01*
X139560500Y-120429561D01*
X139560500Y-120300439D01*
X139535310Y-120173798D01*
X139485898Y-120054506D01*
X139485898Y-120054505D01*
X139414160Y-119947143D01*
X139322857Y-119855840D01*
X139322856Y-119855839D01*
X139257716Y-119812314D01*
X139219838Y-119764266D01*
X139217436Y-119703128D01*
X139251428Y-119652254D01*
X139257702Y-119647695D01*
X139322857Y-119604160D01*
X139414160Y-119512857D01*
X139485897Y-119405496D01*
X139535310Y-119286202D01*
X139560500Y-119159561D01*
X139560500Y-119030439D01*
X139535310Y-118903798D01*
X139485898Y-118784506D01*
X139485898Y-118784505D01*
X139414160Y-118677143D01*
X139322857Y-118585840D01*
X139322856Y-118585839D01*
X139257716Y-118542314D01*
X139219838Y-118494266D01*
X139217436Y-118433128D01*
X139251428Y-118382254D01*
X139257702Y-118377695D01*
X139322857Y-118334160D01*
X139414160Y-118242857D01*
X139485897Y-118135496D01*
X139535310Y-118016202D01*
X139560500Y-117889561D01*
X139560500Y-117760439D01*
X139535310Y-117633798D01*
X139485898Y-117514506D01*
X139485898Y-117514505D01*
X139414160Y-117407143D01*
X139322857Y-117315840D01*
X139322856Y-117315839D01*
X139257716Y-117272314D01*
X139219838Y-117224266D01*
X139217436Y-117163128D01*
X139251428Y-117112254D01*
X139257702Y-117107695D01*
X139322857Y-117064160D01*
X139414160Y-116972857D01*
X139485897Y-116865496D01*
X139535310Y-116746202D01*
X139560500Y-116619561D01*
X139560500Y-116490439D01*
X139535310Y-116363798D01*
X139485898Y-116244506D01*
X139485898Y-116244505D01*
X139414160Y-116137143D01*
X139375400Y-116098383D01*
X139347623Y-116043866D01*
X139357194Y-115983434D01*
X139400459Y-115940169D01*
X139426085Y-115931282D01*
X139438231Y-115928867D01*
X139504552Y-115884552D01*
X139548867Y-115818231D01*
X139560500Y-115759748D01*
X139560500Y-114810252D01*
X139548867Y-114751769D01*
X139504552Y-114685448D01*
X139504548Y-114685445D01*
X139438233Y-114641134D01*
X139438231Y-114641133D01*
X139438228Y-114641132D01*
X139438227Y-114641132D01*
X139379758Y-114629501D01*
X139379748Y-114629500D01*
X138430252Y-114629500D01*
X138430251Y-114629500D01*
X138430241Y-114629501D01*
X138371772Y-114641132D01*
X138371766Y-114641134D01*
X138305451Y-114685445D01*
X138305445Y-114685451D01*
X138261134Y-114751766D01*
X138261132Y-114751771D01*
X138258717Y-114763913D01*
X138228818Y-114817296D01*
X138173252Y-114842909D01*
X138113243Y-114830970D01*
X138091616Y-114814599D01*
X138052856Y-114775839D01*
X137945493Y-114704101D01*
X137826202Y-114654690D01*
X137699563Y-114629500D01*
X137699561Y-114629500D01*
X137570439Y-114629500D01*
X137570436Y-114629500D01*
X137443798Y-114654690D01*
X137443796Y-114654690D01*
X137324506Y-114704101D01*
X137324505Y-114704101D01*
X137217143Y-114775839D01*
X137125839Y-114867143D01*
X137082315Y-114932282D01*
X137034265Y-114970161D01*
X136973127Y-114972563D01*
X136922253Y-114938570D01*
X136917685Y-114932282D01*
X136874160Y-114867143D01*
X136782856Y-114775839D01*
X136675493Y-114704101D01*
X136556202Y-114654690D01*
X136429563Y-114629500D01*
X136429561Y-114629500D01*
X136300439Y-114629500D01*
X136300436Y-114629500D01*
X136173798Y-114654690D01*
X136173796Y-114654690D01*
X136054506Y-114704101D01*
X136054505Y-114704101D01*
X135947143Y-114775839D01*
X135855839Y-114867143D01*
X135812315Y-114932282D01*
X135764265Y-114970161D01*
X135703127Y-114972563D01*
X135652253Y-114938570D01*
X135647685Y-114932282D01*
X135604160Y-114867143D01*
X135512856Y-114775839D01*
X135405493Y-114704101D01*
X135286202Y-114654690D01*
X135159563Y-114629500D01*
X135159561Y-114629500D01*
X135030439Y-114629500D01*
X135030436Y-114629500D01*
X134903798Y-114654690D01*
X134903796Y-114654690D01*
X134784506Y-114704101D01*
X134784505Y-114704101D01*
X134677143Y-114775839D01*
X134585839Y-114867143D01*
X134514101Y-114974505D01*
X134514101Y-114974506D01*
X134464690Y-115093796D01*
X134464690Y-115093798D01*
X134439500Y-115220436D01*
X127200500Y-115220436D01*
X127200500Y-112647273D01*
X137899500Y-112647273D01*
X137899500Y-112752727D01*
X137926793Y-112854587D01*
X137926794Y-112854589D01*
X137926794Y-112854590D01*
X137979518Y-112945910D01*
X137979520Y-112945913D01*
X138054087Y-113020480D01*
X138145413Y-113073207D01*
X138247273Y-113100500D01*
X138247275Y-113100500D01*
X138352725Y-113100500D01*
X138352727Y-113100500D01*
X138454587Y-113073207D01*
X138545913Y-113020480D01*
X138620480Y-112945913D01*
X138673207Y-112854587D01*
X138700500Y-112752727D01*
X138700500Y-112647273D01*
X138673207Y-112545413D01*
X138620480Y-112454087D01*
X138545913Y-112379520D01*
X138454587Y-112326793D01*
X138352727Y-112299500D01*
X138247273Y-112299500D01*
X138145413Y-112326793D01*
X138145412Y-112326793D01*
X138145410Y-112326794D01*
X138145409Y-112326794D01*
X138054089Y-112379518D01*
X137979518Y-112454089D01*
X137926794Y-112545409D01*
X137926794Y-112545410D01*
X137926793Y-112545412D01*
X137926793Y-112545413D01*
X137899500Y-112647273D01*
X127200500Y-112647273D01*
X127200500Y-98220436D01*
X134439500Y-98220436D01*
X134439500Y-98349563D01*
X134464690Y-98476201D01*
X134464690Y-98476203D01*
X134514101Y-98595493D01*
X134514101Y-98595494D01*
X134585839Y-98702856D01*
X134677143Y-98794160D01*
X134742282Y-98837685D01*
X134780161Y-98885735D01*
X134782563Y-98946873D01*
X134748570Y-98997747D01*
X134742282Y-99002315D01*
X134677143Y-99045839D01*
X134585839Y-99137143D01*
X134514101Y-99244505D01*
X134514101Y-99244506D01*
X134464690Y-99363796D01*
X134464690Y-99363798D01*
X134439500Y-99490436D01*
X134439500Y-99619563D01*
X134456293Y-99703988D01*
X134460855Y-99726924D01*
X134464690Y-99746201D01*
X134464690Y-99746203D01*
X134514101Y-99865493D01*
X134514101Y-99865494D01*
X134585839Y-99972856D01*
X134677143Y-100064160D01*
X134742282Y-100107685D01*
X134780161Y-100155735D01*
X134782563Y-100216873D01*
X134748570Y-100267747D01*
X134742282Y-100272315D01*
X134677143Y-100315839D01*
X134585839Y-100407143D01*
X134514101Y-100514505D01*
X134514101Y-100514506D01*
X134464690Y-100633796D01*
X134464690Y-100633798D01*
X134439500Y-100760436D01*
X134439500Y-100889563D01*
X134464690Y-101016201D01*
X134464690Y-101016203D01*
X134514101Y-101135493D01*
X134514101Y-101135494D01*
X134585839Y-101242856D01*
X134677143Y-101334160D01*
X134742282Y-101377685D01*
X134780161Y-101425735D01*
X134782563Y-101486873D01*
X134748570Y-101537747D01*
X134742282Y-101542315D01*
X134677143Y-101585839D01*
X134585839Y-101677143D01*
X134514101Y-101784505D01*
X134514101Y-101784506D01*
X134464690Y-101903796D01*
X134464690Y-101903798D01*
X134439500Y-102030436D01*
X134439500Y-102159563D01*
X134464690Y-102286201D01*
X134464690Y-102286203D01*
X134514101Y-102405493D01*
X134514101Y-102405494D01*
X134585839Y-102512856D01*
X134677143Y-102604160D01*
X134742282Y-102647685D01*
X134780161Y-102695735D01*
X134782563Y-102756873D01*
X134748570Y-102807747D01*
X134742282Y-102812315D01*
X134677143Y-102855839D01*
X134585839Y-102947143D01*
X134514101Y-103054505D01*
X134514101Y-103054506D01*
X134464690Y-103173796D01*
X134464690Y-103173798D01*
X134439500Y-103300436D01*
X134439500Y-103429563D01*
X134464690Y-103556201D01*
X134464690Y-103556203D01*
X134514101Y-103675493D01*
X134514101Y-103675494D01*
X134585839Y-103782856D01*
X134677143Y-103874160D01*
X134742282Y-103917685D01*
X134780161Y-103965735D01*
X134782563Y-104026873D01*
X134748570Y-104077747D01*
X134742282Y-104082315D01*
X134677143Y-104125839D01*
X134585839Y-104217143D01*
X134514101Y-104324505D01*
X134514101Y-104324506D01*
X134464690Y-104443796D01*
X134464690Y-104443798D01*
X134439500Y-104570436D01*
X134439500Y-104699563D01*
X134464690Y-104826201D01*
X134464690Y-104826203D01*
X134514101Y-104945493D01*
X134514101Y-104945494D01*
X134585839Y-105052856D01*
X134677143Y-105144160D01*
X134742282Y-105187685D01*
X134780161Y-105235735D01*
X134782563Y-105296873D01*
X134748570Y-105347747D01*
X134742282Y-105352315D01*
X134677143Y-105395839D01*
X134585839Y-105487143D01*
X134514101Y-105594505D01*
X134514101Y-105594506D01*
X134464690Y-105713796D01*
X134464690Y-105713798D01*
X134439500Y-105840436D01*
X134439500Y-105969563D01*
X134464690Y-106096201D01*
X134464690Y-106096203D01*
X134514101Y-106215493D01*
X134514101Y-106215494D01*
X134585839Y-106322856D01*
X134677143Y-106414160D01*
X134742282Y-106457685D01*
X134780161Y-106505735D01*
X134782563Y-106566873D01*
X134748570Y-106617747D01*
X134742282Y-106622315D01*
X134677143Y-106665839D01*
X134585839Y-106757143D01*
X134514101Y-106864505D01*
X134514101Y-106864506D01*
X134464690Y-106983796D01*
X134464690Y-106983798D01*
X134439500Y-107110436D01*
X134439500Y-107239563D01*
X134464690Y-107366201D01*
X134464690Y-107366203D01*
X134514101Y-107485493D01*
X134514101Y-107485494D01*
X134585839Y-107592856D01*
X134677143Y-107684160D01*
X134742282Y-107727685D01*
X134780161Y-107775735D01*
X134782563Y-107836873D01*
X134748570Y-107887747D01*
X134742282Y-107892315D01*
X134677143Y-107935839D01*
X134585839Y-108027143D01*
X134514101Y-108134505D01*
X134514101Y-108134506D01*
X134464690Y-108253796D01*
X134464690Y-108253798D01*
X134439500Y-108380436D01*
X134439500Y-108509563D01*
X134464690Y-108636201D01*
X134464690Y-108636203D01*
X134514101Y-108755493D01*
X134514101Y-108755494D01*
X134585839Y-108862856D01*
X134677143Y-108954160D01*
X134742282Y-108997685D01*
X134780161Y-109045735D01*
X134782563Y-109106873D01*
X134748570Y-109157747D01*
X134742282Y-109162315D01*
X134677143Y-109205839D01*
X134585839Y-109297143D01*
X134514101Y-109404505D01*
X134514101Y-109404506D01*
X134464690Y-109523796D01*
X134464690Y-109523798D01*
X134439500Y-109650436D01*
X134439500Y-109779563D01*
X134464690Y-109906201D01*
X134464690Y-109906203D01*
X134514101Y-110025493D01*
X134514101Y-110025494D01*
X134515399Y-110027436D01*
X134585840Y-110132857D01*
X134677143Y-110224160D01*
X134784504Y-110295897D01*
X134903798Y-110345310D01*
X135030439Y-110370500D01*
X135030440Y-110370500D01*
X135159560Y-110370500D01*
X135159561Y-110370500D01*
X135286202Y-110345310D01*
X135405496Y-110295897D01*
X135512857Y-110224160D01*
X135604160Y-110132857D01*
X135647685Y-110067716D01*
X135695734Y-110029838D01*
X135756872Y-110027436D01*
X135807746Y-110061428D01*
X135812304Y-110067702D01*
X135855840Y-110132857D01*
X135947143Y-110224160D01*
X136054504Y-110295897D01*
X136173798Y-110345310D01*
X136300439Y-110370500D01*
X136300440Y-110370500D01*
X136429560Y-110370500D01*
X136429561Y-110370500D01*
X136556202Y-110345310D01*
X136675496Y-110295897D01*
X136782857Y-110224160D01*
X136874160Y-110132857D01*
X136917685Y-110067716D01*
X136965734Y-110029838D01*
X137026872Y-110027436D01*
X137077746Y-110061428D01*
X137082304Y-110067702D01*
X137125840Y-110132857D01*
X137217143Y-110224160D01*
X137324504Y-110295897D01*
X137443798Y-110345310D01*
X137570439Y-110370500D01*
X137570440Y-110370500D01*
X137699560Y-110370500D01*
X137699561Y-110370500D01*
X137826202Y-110345310D01*
X137945496Y-110295897D01*
X138052857Y-110224160D01*
X138144160Y-110132857D01*
X138187685Y-110067716D01*
X138235734Y-110029838D01*
X138296872Y-110027436D01*
X138347746Y-110061428D01*
X138352304Y-110067702D01*
X138395840Y-110132857D01*
X138487143Y-110224160D01*
X138594504Y-110295897D01*
X138713798Y-110345310D01*
X138840439Y-110370500D01*
X138840440Y-110370500D01*
X138969560Y-110370500D01*
X138969561Y-110370500D01*
X139096202Y-110345310D01*
X139215496Y-110295897D01*
X139322857Y-110224160D01*
X139414160Y-110132857D01*
X139485897Y-110025496D01*
X139535310Y-109906202D01*
X139560500Y-109779561D01*
X139560500Y-109650439D01*
X139535310Y-109523798D01*
X139485898Y-109404506D01*
X139485898Y-109404505D01*
X139414160Y-109297143D01*
X139322857Y-109205840D01*
X139322856Y-109205839D01*
X139257716Y-109162314D01*
X139219838Y-109114266D01*
X139217436Y-109053128D01*
X139251428Y-109002254D01*
X139257702Y-108997695D01*
X139322857Y-108954160D01*
X139414160Y-108862857D01*
X139485897Y-108755496D01*
X139535310Y-108636202D01*
X139560500Y-108509561D01*
X139560500Y-108380439D01*
X139535310Y-108253798D01*
X139485898Y-108134506D01*
X139485898Y-108134505D01*
X139414160Y-108027143D01*
X139322857Y-107935840D01*
X139322856Y-107935839D01*
X139257716Y-107892314D01*
X139219838Y-107844266D01*
X139217436Y-107783128D01*
X139251428Y-107732254D01*
X139257702Y-107727695D01*
X139322857Y-107684160D01*
X139414160Y-107592857D01*
X139485897Y-107485496D01*
X139535310Y-107366202D01*
X139560500Y-107239561D01*
X139560500Y-107110439D01*
X139535310Y-106983798D01*
X139485898Y-106864506D01*
X139485898Y-106864505D01*
X139414160Y-106757143D01*
X139322857Y-106665840D01*
X139322856Y-106665839D01*
X139257716Y-106622314D01*
X139219838Y-106574266D01*
X139217436Y-106513128D01*
X139251428Y-106462254D01*
X139257702Y-106457695D01*
X139322857Y-106414160D01*
X139414160Y-106322857D01*
X139485897Y-106215496D01*
X139535310Y-106096202D01*
X139560500Y-105969561D01*
X139560500Y-105840439D01*
X139535310Y-105713798D01*
X139485898Y-105594506D01*
X139485898Y-105594505D01*
X139414160Y-105487143D01*
X139322857Y-105395840D01*
X139322856Y-105395839D01*
X139257716Y-105352314D01*
X139219838Y-105304266D01*
X139217436Y-105243128D01*
X139251428Y-105192254D01*
X139257702Y-105187695D01*
X139322857Y-105144160D01*
X139414160Y-105052857D01*
X139485897Y-104945496D01*
X139535310Y-104826202D01*
X139560500Y-104699561D01*
X139560500Y-104570439D01*
X139535310Y-104443798D01*
X139485898Y-104324506D01*
X139485898Y-104324505D01*
X139414160Y-104217143D01*
X139322857Y-104125840D01*
X139322856Y-104125839D01*
X139257716Y-104082314D01*
X139219838Y-104034266D01*
X139217436Y-103973128D01*
X139251428Y-103922254D01*
X139257702Y-103917695D01*
X139322857Y-103874160D01*
X139414160Y-103782857D01*
X139485897Y-103675496D01*
X139535310Y-103556202D01*
X139560500Y-103429561D01*
X139560500Y-103300439D01*
X139535310Y-103173798D01*
X139485898Y-103054506D01*
X139485898Y-103054505D01*
X139414160Y-102947143D01*
X139322857Y-102855840D01*
X139322856Y-102855839D01*
X139257716Y-102812314D01*
X139219838Y-102764266D01*
X139217436Y-102703128D01*
X139251428Y-102652254D01*
X139257702Y-102647695D01*
X139322857Y-102604160D01*
X139414160Y-102512857D01*
X139485897Y-102405496D01*
X139535310Y-102286202D01*
X139560500Y-102159561D01*
X139560500Y-102030439D01*
X139535310Y-101903798D01*
X139485898Y-101784506D01*
X139485898Y-101784505D01*
X139414160Y-101677143D01*
X139322857Y-101585840D01*
X139322856Y-101585839D01*
X139257716Y-101542314D01*
X139219838Y-101494266D01*
X139217436Y-101433128D01*
X139251428Y-101382254D01*
X139257702Y-101377695D01*
X139322857Y-101334160D01*
X139414160Y-101242857D01*
X139485897Y-101135496D01*
X139535310Y-101016202D01*
X139560500Y-100889561D01*
X139560500Y-100760439D01*
X139535310Y-100633798D01*
X139485898Y-100514506D01*
X139485898Y-100514505D01*
X139414160Y-100407143D01*
X139322857Y-100315840D01*
X139322856Y-100315839D01*
X139257716Y-100272314D01*
X139219838Y-100224266D01*
X139217436Y-100163128D01*
X139251428Y-100112254D01*
X139257702Y-100107695D01*
X139322857Y-100064160D01*
X139414160Y-99972857D01*
X139485897Y-99865496D01*
X139535310Y-99746202D01*
X139560500Y-99619561D01*
X139560500Y-99490439D01*
X139535310Y-99363798D01*
X139485898Y-99244506D01*
X139485898Y-99244505D01*
X139414160Y-99137143D01*
X139375400Y-99098383D01*
X139347623Y-99043866D01*
X139357194Y-98983434D01*
X139400459Y-98940169D01*
X139426085Y-98931282D01*
X139438231Y-98928867D01*
X139504552Y-98884552D01*
X139548867Y-98818231D01*
X139560500Y-98759748D01*
X139560500Y-97810252D01*
X139548867Y-97751769D01*
X139504552Y-97685448D01*
X139504548Y-97685445D01*
X139438233Y-97641134D01*
X139438231Y-97641133D01*
X139438228Y-97641132D01*
X139438227Y-97641132D01*
X139379758Y-97629501D01*
X139379748Y-97629500D01*
X138430252Y-97629500D01*
X138430251Y-97629500D01*
X138430241Y-97629501D01*
X138371772Y-97641132D01*
X138371766Y-97641134D01*
X138305451Y-97685445D01*
X138305445Y-97685451D01*
X138261134Y-97751766D01*
X138261132Y-97751771D01*
X138258717Y-97763913D01*
X138228818Y-97817296D01*
X138173252Y-97842909D01*
X138113243Y-97830970D01*
X138091616Y-97814599D01*
X138052856Y-97775839D01*
X137945493Y-97704101D01*
X137826202Y-97654690D01*
X137699563Y-97629500D01*
X137699561Y-97629500D01*
X137570439Y-97629500D01*
X137570436Y-97629500D01*
X137443798Y-97654690D01*
X137443796Y-97654690D01*
X137324506Y-97704101D01*
X137324505Y-97704101D01*
X137217143Y-97775839D01*
X137125839Y-97867143D01*
X137082315Y-97932282D01*
X137034265Y-97970161D01*
X136973127Y-97972563D01*
X136922253Y-97938570D01*
X136917685Y-97932282D01*
X136874160Y-97867143D01*
X136782856Y-97775839D01*
X136675493Y-97704101D01*
X136556202Y-97654690D01*
X136429563Y-97629500D01*
X136429561Y-97629500D01*
X136300439Y-97629500D01*
X136300436Y-97629500D01*
X136173798Y-97654690D01*
X136173796Y-97654690D01*
X136054506Y-97704101D01*
X136054505Y-97704101D01*
X135947143Y-97775839D01*
X135855839Y-97867143D01*
X135812315Y-97932282D01*
X135764265Y-97970161D01*
X135703127Y-97972563D01*
X135652253Y-97938570D01*
X135647685Y-97932282D01*
X135604160Y-97867143D01*
X135512856Y-97775839D01*
X135405493Y-97704101D01*
X135286202Y-97654690D01*
X135159563Y-97629500D01*
X135159561Y-97629500D01*
X135030439Y-97629500D01*
X135030436Y-97629500D01*
X134903798Y-97654690D01*
X134903796Y-97654690D01*
X134784506Y-97704101D01*
X134784505Y-97704101D01*
X134677143Y-97775839D01*
X134585839Y-97867143D01*
X134514101Y-97974505D01*
X134514101Y-97974506D01*
X134464690Y-98093796D01*
X134464690Y-98093798D01*
X134439500Y-98220436D01*
X127200500Y-98220436D01*
X127200500Y-87947273D01*
X144799500Y-87947273D01*
X144799500Y-88052727D01*
X144826793Y-88154587D01*
X144826794Y-88154589D01*
X144826794Y-88154590D01*
X144879518Y-88245910D01*
X144879520Y-88245913D01*
X144954087Y-88320480D01*
X145045413Y-88373207D01*
X145147273Y-88400500D01*
X145147275Y-88400500D01*
X145252725Y-88400500D01*
X145252727Y-88400500D01*
X145354587Y-88373207D01*
X145445913Y-88320480D01*
X145520480Y-88245913D01*
X145573207Y-88154587D01*
X145600500Y-88052727D01*
X145600500Y-87947273D01*
X145573207Y-87845413D01*
X145520480Y-87754087D01*
X145445913Y-87679520D01*
X145354587Y-87626793D01*
X145252727Y-87599500D01*
X145147273Y-87599500D01*
X145045413Y-87626793D01*
X145045412Y-87626793D01*
X145045410Y-87626794D01*
X145045409Y-87626794D01*
X144954089Y-87679518D01*
X144879518Y-87754089D01*
X144826794Y-87845409D01*
X144826794Y-87845410D01*
X144826793Y-87845412D01*
X144826793Y-87845413D01*
X144799500Y-87947273D01*
X127200500Y-87947273D01*
X127200500Y-83197273D01*
X129649500Y-83197273D01*
X129649500Y-83302727D01*
X129675837Y-83401019D01*
X129676794Y-83404589D01*
X129676794Y-83404590D01*
X129729518Y-83495910D01*
X129729520Y-83495913D01*
X129804087Y-83570480D01*
X129895413Y-83623207D01*
X129997273Y-83650500D01*
X129997275Y-83650500D01*
X130102725Y-83650500D01*
X130102727Y-83650500D01*
X130204587Y-83623207D01*
X130295913Y-83570480D01*
X130370480Y-83495913D01*
X130423207Y-83404587D01*
X130429373Y-83381571D01*
X130462697Y-83330259D01*
X130519818Y-83308332D01*
X130578919Y-83324167D01*
X130617424Y-83371717D01*
X130620624Y-83381563D01*
X130625837Y-83401019D01*
X130626794Y-83404589D01*
X130626794Y-83404590D01*
X130679518Y-83495910D01*
X130679520Y-83495913D01*
X130754087Y-83570480D01*
X130845413Y-83623207D01*
X130947273Y-83650500D01*
X130947275Y-83650500D01*
X131052725Y-83650500D01*
X131052727Y-83650500D01*
X131154587Y-83623207D01*
X131245913Y-83570480D01*
X131320480Y-83495913D01*
X131373207Y-83404587D01*
X131379373Y-83381571D01*
X131412697Y-83330259D01*
X131469818Y-83308332D01*
X131528919Y-83324167D01*
X131567424Y-83371717D01*
X131570624Y-83381563D01*
X131575837Y-83401019D01*
X131576794Y-83404589D01*
X131576794Y-83404590D01*
X131629518Y-83495910D01*
X131629520Y-83495913D01*
X131704087Y-83570480D01*
X131795413Y-83623207D01*
X131897273Y-83650500D01*
X131897275Y-83650500D01*
X132002725Y-83650500D01*
X132002727Y-83650500D01*
X132104587Y-83623207D01*
X132195913Y-83570480D01*
X132270480Y-83495913D01*
X132314264Y-83420075D01*
X132359733Y-83379136D01*
X132420583Y-83372740D01*
X132473571Y-83403333D01*
X132485732Y-83420071D01*
X132529520Y-83495913D01*
X132604087Y-83570480D01*
X132695413Y-83623207D01*
X132797273Y-83650500D01*
X132797275Y-83650500D01*
X132902725Y-83650500D01*
X132902727Y-83650500D01*
X133004587Y-83623207D01*
X133095913Y-83570480D01*
X133170480Y-83495913D01*
X133223207Y-83404587D01*
X133223209Y-83404577D01*
X133224684Y-83401019D01*
X133264415Y-83354488D01*
X133323908Y-83340198D01*
X133380439Y-83363607D01*
X133401888Y-83389393D01*
X133406532Y-83397437D01*
X133434520Y-83445913D01*
X133509087Y-83520480D01*
X133600413Y-83573207D01*
X133702273Y-83600500D01*
X133702275Y-83600500D01*
X133807725Y-83600500D01*
X133807727Y-83600500D01*
X133909587Y-83573207D01*
X134000913Y-83520480D01*
X134075480Y-83445913D01*
X134119264Y-83370075D01*
X134164733Y-83329136D01*
X134225583Y-83322740D01*
X134278571Y-83353333D01*
X134290732Y-83370071D01*
X134334520Y-83445913D01*
X134409087Y-83520480D01*
X134500413Y-83573207D01*
X134602273Y-83600500D01*
X134602275Y-83600500D01*
X134707725Y-83600500D01*
X134707727Y-83600500D01*
X134809587Y-83573207D01*
X134900913Y-83520480D01*
X134975480Y-83445913D01*
X135028207Y-83354587D01*
X135034373Y-83331571D01*
X135067697Y-83280259D01*
X135124818Y-83258332D01*
X135183919Y-83274167D01*
X135222424Y-83321717D01*
X135225624Y-83331563D01*
X135231793Y-83354587D01*
X135231794Y-83354589D01*
X135231794Y-83354590D01*
X135270502Y-83421633D01*
X135284520Y-83445913D01*
X135359087Y-83520480D01*
X135450413Y-83573207D01*
X135552273Y-83600500D01*
X135552275Y-83600500D01*
X135657725Y-83600500D01*
X135657727Y-83600500D01*
X135759587Y-83573207D01*
X135850913Y-83520480D01*
X135925480Y-83445913D01*
X135969264Y-83370075D01*
X136014733Y-83329136D01*
X136075583Y-83322740D01*
X136128571Y-83353333D01*
X136140732Y-83370071D01*
X136184520Y-83445913D01*
X136259087Y-83520480D01*
X136350413Y-83573207D01*
X136452273Y-83600500D01*
X136452275Y-83600500D01*
X136557725Y-83600500D01*
X136557727Y-83600500D01*
X136659587Y-83573207D01*
X136750913Y-83520480D01*
X136825480Y-83445913D01*
X136878207Y-83354587D01*
X136881873Y-83340901D01*
X136915197Y-83289589D01*
X136972318Y-83267662D01*
X137031419Y-83283497D01*
X137069924Y-83331047D01*
X137073123Y-83340892D01*
X137076793Y-83354587D01*
X137076794Y-83354589D01*
X137076794Y-83354590D01*
X137115502Y-83421633D01*
X137129520Y-83445913D01*
X137204087Y-83520480D01*
X137295413Y-83573207D01*
X137397273Y-83600500D01*
X137397275Y-83600500D01*
X137502725Y-83600500D01*
X137502727Y-83600500D01*
X137604587Y-83573207D01*
X137695913Y-83520480D01*
X137770480Y-83445913D01*
X137823207Y-83354587D01*
X137823208Y-83354581D01*
X137825690Y-83348592D01*
X137827398Y-83349299D01*
X137855992Y-83305263D01*
X137913112Y-83283332D01*
X137972214Y-83299163D01*
X138010723Y-83346710D01*
X138013928Y-83356573D01*
X138026793Y-83404588D01*
X138026794Y-83404590D01*
X138079518Y-83495910D01*
X138079520Y-83495913D01*
X138154087Y-83570480D01*
X138245413Y-83623207D01*
X138347273Y-83650500D01*
X138347275Y-83650500D01*
X138452725Y-83650500D01*
X138452727Y-83650500D01*
X138554587Y-83623207D01*
X138645913Y-83570480D01*
X138720480Y-83495913D01*
X138753700Y-83438375D01*
X138799165Y-83397437D01*
X138860015Y-83391041D01*
X138913004Y-83421633D01*
X138925167Y-83438374D01*
X138929520Y-83445913D01*
X139004087Y-83520480D01*
X139095413Y-83573207D01*
X139197273Y-83600500D01*
X139197275Y-83600500D01*
X139302725Y-83600500D01*
X139302727Y-83600500D01*
X139404587Y-83573207D01*
X139495913Y-83520480D01*
X139570480Y-83445913D01*
X139623207Y-83354587D01*
X139650500Y-83252727D01*
X139650500Y-83147273D01*
X139644565Y-83125123D01*
X139647766Y-83064023D01*
X139686271Y-83016472D01*
X139740191Y-83000500D01*
X139773206Y-83000500D01*
X139831397Y-83019407D01*
X139867361Y-83068907D01*
X139868832Y-83125120D01*
X139849500Y-83197273D01*
X139849500Y-83302727D01*
X139875837Y-83401019D01*
X139876794Y-83404589D01*
X139876794Y-83404590D01*
X139929518Y-83495910D01*
X139929520Y-83495913D01*
X140004087Y-83570480D01*
X140095413Y-83623207D01*
X140197273Y-83650500D01*
X140197275Y-83650500D01*
X140302725Y-83650500D01*
X140302727Y-83650500D01*
X140404587Y-83623207D01*
X140495913Y-83570480D01*
X140570480Y-83495913D01*
X140603700Y-83438375D01*
X140649165Y-83397437D01*
X140710015Y-83391041D01*
X140763004Y-83421633D01*
X140775167Y-83438374D01*
X140779520Y-83445913D01*
X140854087Y-83520480D01*
X140945413Y-83573207D01*
X141047273Y-83600500D01*
X141047275Y-83600500D01*
X141152725Y-83600500D01*
X141152727Y-83600500D01*
X141254587Y-83573207D01*
X141345913Y-83520480D01*
X141420480Y-83445913D01*
X141473207Y-83354587D01*
X141479373Y-83331571D01*
X141512697Y-83280259D01*
X141569818Y-83258332D01*
X141628919Y-83274167D01*
X141667424Y-83321717D01*
X141670624Y-83331563D01*
X141676793Y-83354587D01*
X141676794Y-83354589D01*
X141676794Y-83354590D01*
X141715502Y-83421633D01*
X141729520Y-83445913D01*
X141804087Y-83520480D01*
X141895413Y-83573207D01*
X141997273Y-83600500D01*
X141997275Y-83600500D01*
X142102725Y-83600500D01*
X142102727Y-83600500D01*
X142204587Y-83573207D01*
X142295913Y-83520480D01*
X142370480Y-83445913D01*
X142414264Y-83370075D01*
X142459733Y-83329136D01*
X142520583Y-83322740D01*
X142573571Y-83353333D01*
X142585732Y-83370071D01*
X142629520Y-83445913D01*
X142704087Y-83520480D01*
X142795413Y-83573207D01*
X142897273Y-83600500D01*
X142897275Y-83600500D01*
X143002725Y-83600500D01*
X143002727Y-83600500D01*
X143104587Y-83573207D01*
X143195913Y-83520480D01*
X143270480Y-83445913D01*
X143323207Y-83354587D01*
X143350500Y-83252727D01*
X143350500Y-83147273D01*
X143344565Y-83125123D01*
X143346036Y-83097045D01*
X143346036Y-83068907D01*
X143347624Y-83066720D01*
X143347766Y-83064023D01*
X143365460Y-83042171D01*
X143382000Y-83019407D01*
X143384570Y-83018571D01*
X143386271Y-83016472D01*
X143440191Y-83000500D01*
X143459809Y-83000500D01*
X143518000Y-83019407D01*
X143553964Y-83068907D01*
X143555435Y-83125124D01*
X143549500Y-83147271D01*
X143549500Y-83147273D01*
X143549500Y-83252727D01*
X143576793Y-83354587D01*
X143576794Y-83354589D01*
X143576794Y-83354590D01*
X143615502Y-83421633D01*
X143629520Y-83445913D01*
X143704087Y-83520480D01*
X143795413Y-83573207D01*
X143897273Y-83600500D01*
X143897275Y-83600500D01*
X144002725Y-83600500D01*
X144002727Y-83600500D01*
X144104587Y-83573207D01*
X144195913Y-83520480D01*
X144270480Y-83445913D01*
X144323207Y-83354587D01*
X144350500Y-83252727D01*
X144350500Y-83147273D01*
X144344565Y-83125123D01*
X144347766Y-83064023D01*
X144386271Y-83016472D01*
X144440191Y-83000500D01*
X144502725Y-83000500D01*
X144502727Y-83000500D01*
X144604587Y-82973207D01*
X144695913Y-82920480D01*
X144770480Y-82845913D01*
X144823207Y-82754587D01*
X144850500Y-82652727D01*
X144850500Y-82547273D01*
X144823207Y-82445413D01*
X144821430Y-82442336D01*
X144770481Y-82354089D01*
X144770480Y-82354087D01*
X144695913Y-82279520D01*
X144604587Y-82226793D01*
X144502727Y-82199500D01*
X144397273Y-82199500D01*
X144295413Y-82226793D01*
X144295412Y-82226793D01*
X144295410Y-82226794D01*
X144295409Y-82226794D01*
X144204089Y-82279518D01*
X144129518Y-82354089D01*
X144076794Y-82445409D01*
X144076794Y-82445410D01*
X144076793Y-82445412D01*
X144076793Y-82445413D01*
X144049999Y-82545413D01*
X144049500Y-82547274D01*
X144049500Y-82652728D01*
X144055435Y-82674876D01*
X144053964Y-82702954D01*
X144053964Y-82731093D01*
X144052375Y-82733279D01*
X144052234Y-82735977D01*
X144034539Y-82757828D01*
X144018000Y-82780593D01*
X144015429Y-82781428D01*
X144013729Y-82783528D01*
X143959809Y-82799500D01*
X143940191Y-82799500D01*
X143882000Y-82780593D01*
X143846036Y-82731093D01*
X143844565Y-82674876D01*
X143850500Y-82652727D01*
X143850500Y-82547273D01*
X143823207Y-82445413D01*
X143821430Y-82442336D01*
X143770481Y-82354089D01*
X143770480Y-82354087D01*
X143695913Y-82279520D01*
X143604587Y-82226793D01*
X143502727Y-82199500D01*
X143397273Y-82199500D01*
X143295413Y-82226793D01*
X143295412Y-82226793D01*
X143295410Y-82226794D01*
X143295409Y-82226794D01*
X143204089Y-82279518D01*
X143129518Y-82354089D01*
X143076794Y-82445409D01*
X143076793Y-82445413D01*
X143070626Y-82468428D01*
X143037302Y-82519741D01*
X142980181Y-82541667D01*
X142921080Y-82525831D01*
X142882575Y-82478281D01*
X142879375Y-82468436D01*
X142873207Y-82445413D01*
X142871430Y-82442336D01*
X142820481Y-82354089D01*
X142820480Y-82354087D01*
X142745913Y-82279520D01*
X142654587Y-82226793D01*
X142552727Y-82199500D01*
X142447273Y-82199500D01*
X142345413Y-82226793D01*
X142345412Y-82226793D01*
X142345410Y-82226794D01*
X142345409Y-82226794D01*
X142254089Y-82279518D01*
X142179518Y-82354089D01*
X142135736Y-82429922D01*
X142090267Y-82470863D01*
X142029416Y-82477259D01*
X141976428Y-82446666D01*
X141964264Y-82429922D01*
X141920481Y-82354089D01*
X141920480Y-82354087D01*
X141845913Y-82279520D01*
X141754587Y-82226793D01*
X141652727Y-82199500D01*
X141547273Y-82199500D01*
X141445413Y-82226793D01*
X141445412Y-82226793D01*
X141445410Y-82226794D01*
X141445409Y-82226794D01*
X141354089Y-82279518D01*
X141279518Y-82354089D01*
X141226794Y-82445409D01*
X141226794Y-82445410D01*
X141226793Y-82445412D01*
X141226793Y-82445413D01*
X141199999Y-82545413D01*
X141199500Y-82547274D01*
X141199500Y-82652728D01*
X141205435Y-82674876D01*
X141203964Y-82702954D01*
X141203964Y-82731093D01*
X141202375Y-82733279D01*
X141202234Y-82735977D01*
X141184539Y-82757828D01*
X141168000Y-82780593D01*
X141165429Y-82781428D01*
X141163729Y-82783528D01*
X141109809Y-82799500D01*
X141090191Y-82799500D01*
X141032000Y-82780593D01*
X140996036Y-82731093D01*
X140994565Y-82674876D01*
X141000500Y-82652727D01*
X141000500Y-82547273D01*
X140973207Y-82445413D01*
X140971430Y-82442336D01*
X140920481Y-82354089D01*
X140920480Y-82354087D01*
X140845913Y-82279520D01*
X140754587Y-82226793D01*
X140652727Y-82199500D01*
X140547273Y-82199500D01*
X140445413Y-82226793D01*
X140445412Y-82226793D01*
X140445410Y-82226794D01*
X140445409Y-82226794D01*
X140354089Y-82279518D01*
X140279519Y-82354088D01*
X140260736Y-82386622D01*
X140215266Y-82427562D01*
X140154416Y-82433957D01*
X140101428Y-82403364D01*
X140089264Y-82386622D01*
X140085164Y-82379520D01*
X140070480Y-82354087D01*
X139995913Y-82279520D01*
X139904587Y-82226793D01*
X139802727Y-82199500D01*
X139697273Y-82199500D01*
X139595413Y-82226793D01*
X139595412Y-82226793D01*
X139595410Y-82226794D01*
X139595409Y-82226794D01*
X139504089Y-82279518D01*
X139429518Y-82354089D01*
X139376794Y-82445409D01*
X139376794Y-82445410D01*
X139376793Y-82445412D01*
X139376793Y-82445413D01*
X139349999Y-82545413D01*
X139349500Y-82547274D01*
X139349500Y-82652728D01*
X139355435Y-82674876D01*
X139353964Y-82702954D01*
X139353964Y-82731093D01*
X139352375Y-82733279D01*
X139352234Y-82735977D01*
X139334539Y-82757828D01*
X139318000Y-82780593D01*
X139315429Y-82781428D01*
X139313729Y-82783528D01*
X139259809Y-82799500D01*
X139240191Y-82799500D01*
X139182000Y-82780593D01*
X139146036Y-82731093D01*
X139144565Y-82674876D01*
X139150500Y-82652727D01*
X139150500Y-82547273D01*
X139123207Y-82445413D01*
X139121430Y-82442336D01*
X139070481Y-82354089D01*
X139070480Y-82354087D01*
X138995913Y-82279520D01*
X138904587Y-82226793D01*
X138802727Y-82199500D01*
X138697273Y-82199500D01*
X138595413Y-82226793D01*
X138595412Y-82226793D01*
X138595410Y-82226794D01*
X138595409Y-82226794D01*
X138504089Y-82279518D01*
X138429519Y-82354088D01*
X138410736Y-82386622D01*
X138365266Y-82427562D01*
X138304416Y-82433957D01*
X138251428Y-82403364D01*
X138239264Y-82386622D01*
X138235164Y-82379520D01*
X138220480Y-82354087D01*
X138145913Y-82279520D01*
X138054587Y-82226793D01*
X137952727Y-82199500D01*
X137847273Y-82199500D01*
X137745413Y-82226793D01*
X137745412Y-82226793D01*
X137745410Y-82226794D01*
X137745409Y-82226794D01*
X137654089Y-82279518D01*
X137579518Y-82354089D01*
X137538236Y-82425592D01*
X137492767Y-82466533D01*
X137431916Y-82472929D01*
X137378928Y-82442336D01*
X137366764Y-82425592D01*
X137325481Y-82354089D01*
X137325480Y-82354087D01*
X137250913Y-82279520D01*
X137159587Y-82226793D01*
X137057727Y-82199500D01*
X136952273Y-82199500D01*
X136850413Y-82226793D01*
X136850412Y-82226793D01*
X136850410Y-82226794D01*
X136850409Y-82226794D01*
X136759089Y-82279518D01*
X136684518Y-82354089D01*
X136631794Y-82445409D01*
X136631791Y-82445416D01*
X136610816Y-82523697D01*
X136577492Y-82575011D01*
X136520371Y-82596937D01*
X136461270Y-82581101D01*
X136429453Y-82547573D01*
X136428207Y-82545416D01*
X136428207Y-82545413D01*
X136375480Y-82454087D01*
X136300913Y-82379520D01*
X136256865Y-82354089D01*
X136209589Y-82326794D01*
X136209588Y-82326793D01*
X136209587Y-82326793D01*
X136107727Y-82299500D01*
X136002273Y-82299500D01*
X135900413Y-82326793D01*
X135900412Y-82326793D01*
X135900410Y-82326794D01*
X135900409Y-82326794D01*
X135809089Y-82379518D01*
X135734518Y-82454089D01*
X135681794Y-82545409D01*
X135681793Y-82545413D01*
X135675626Y-82568428D01*
X135642302Y-82619741D01*
X135585181Y-82641667D01*
X135526080Y-82625831D01*
X135487575Y-82578281D01*
X135484375Y-82568436D01*
X135478207Y-82545413D01*
X135476044Y-82541667D01*
X135425481Y-82454089D01*
X135425480Y-82454087D01*
X135350913Y-82379520D01*
X135306865Y-82354089D01*
X135259589Y-82326794D01*
X135259588Y-82326793D01*
X135259587Y-82326793D01*
X135157727Y-82299500D01*
X135052273Y-82299500D01*
X134950413Y-82326793D01*
X134950412Y-82326793D01*
X134950410Y-82326794D01*
X134950409Y-82326794D01*
X134859089Y-82379518D01*
X134784518Y-82454089D01*
X134740736Y-82529922D01*
X134695267Y-82570863D01*
X134634416Y-82577259D01*
X134581428Y-82546666D01*
X134569264Y-82529922D01*
X134525481Y-82454089D01*
X134525480Y-82454087D01*
X134450913Y-82379520D01*
X134406865Y-82354089D01*
X134359589Y-82326794D01*
X134359588Y-82326793D01*
X134359587Y-82326793D01*
X134257727Y-82299500D01*
X134152273Y-82299500D01*
X134050413Y-82326793D01*
X134050412Y-82326793D01*
X134050410Y-82326794D01*
X134050409Y-82326794D01*
X133959089Y-82379518D01*
X133884518Y-82454089D01*
X133840736Y-82529922D01*
X133795267Y-82570863D01*
X133734416Y-82577259D01*
X133681428Y-82546666D01*
X133669264Y-82529922D01*
X133625481Y-82454089D01*
X133625480Y-82454087D01*
X133550913Y-82379520D01*
X133506865Y-82354089D01*
X133459589Y-82326794D01*
X133459588Y-82326793D01*
X133459587Y-82326793D01*
X133357727Y-82299500D01*
X133252273Y-82299500D01*
X133150413Y-82326793D01*
X133150412Y-82326793D01*
X133150410Y-82326794D01*
X133150409Y-82326794D01*
X133059089Y-82379518D01*
X132984518Y-82454089D01*
X132938236Y-82534252D01*
X132892766Y-82575193D01*
X132831916Y-82581589D01*
X132778928Y-82550996D01*
X132766764Y-82534252D01*
X132720481Y-82454089D01*
X132720480Y-82454087D01*
X132645913Y-82379520D01*
X132601865Y-82354089D01*
X132554589Y-82326794D01*
X132554588Y-82326793D01*
X132554587Y-82326793D01*
X132452727Y-82299500D01*
X132347273Y-82299500D01*
X132245413Y-82326793D01*
X132245412Y-82326793D01*
X132245410Y-82326794D01*
X132245409Y-82326794D01*
X132154089Y-82379518D01*
X132079518Y-82454089D01*
X132026794Y-82545409D01*
X132026793Y-82545413D01*
X132020626Y-82568428D01*
X131987302Y-82619741D01*
X131930181Y-82641667D01*
X131871080Y-82625831D01*
X131832575Y-82578281D01*
X131829375Y-82568436D01*
X131823207Y-82545413D01*
X131821044Y-82541667D01*
X131770481Y-82454089D01*
X131770480Y-82454087D01*
X131695913Y-82379520D01*
X131651865Y-82354089D01*
X131604589Y-82326794D01*
X131604588Y-82326793D01*
X131604587Y-82326793D01*
X131502727Y-82299500D01*
X131397273Y-82299500D01*
X131295413Y-82326793D01*
X131295412Y-82326793D01*
X131295410Y-82326794D01*
X131295409Y-82326794D01*
X131204089Y-82379518D01*
X131129518Y-82454089D01*
X131076794Y-82545409D01*
X131076793Y-82545413D01*
X131070626Y-82568428D01*
X131037302Y-82619741D01*
X130980181Y-82641667D01*
X130921080Y-82625831D01*
X130882575Y-82578281D01*
X130879375Y-82568436D01*
X130873207Y-82545413D01*
X130871044Y-82541667D01*
X130820481Y-82454089D01*
X130820480Y-82454087D01*
X130745913Y-82379520D01*
X130701865Y-82354089D01*
X130654589Y-82326794D01*
X130654588Y-82326793D01*
X130654587Y-82326793D01*
X130552727Y-82299500D01*
X130447273Y-82299500D01*
X130345413Y-82326793D01*
X130345412Y-82326793D01*
X130345410Y-82326794D01*
X130345409Y-82326794D01*
X130254089Y-82379518D01*
X130179518Y-82454089D01*
X130126794Y-82545409D01*
X130126794Y-82545410D01*
X130126793Y-82545412D01*
X130126793Y-82545413D01*
X130105246Y-82625831D01*
X130099500Y-82647274D01*
X130099500Y-82750500D01*
X130080593Y-82808691D01*
X130031093Y-82844655D01*
X130000500Y-82849500D01*
X129997273Y-82849500D01*
X129895413Y-82876793D01*
X129895412Y-82876793D01*
X129895410Y-82876794D01*
X129895409Y-82876794D01*
X129804089Y-82929518D01*
X129729518Y-83004089D01*
X129676794Y-83095409D01*
X129676794Y-83095410D01*
X129676793Y-83095412D01*
X129676793Y-83095413D01*
X129649500Y-83197273D01*
X127200500Y-83197273D01*
X127200500Y-78417452D01*
X127200712Y-78410978D01*
X127203116Y-78374298D01*
X127215469Y-78185798D01*
X127217158Y-78172968D01*
X127233066Y-78092993D01*
X127260551Y-77954811D01*
X127263895Y-77942333D01*
X127335388Y-77731716D01*
X127340343Y-77719754D01*
X127438713Y-77520276D01*
X127445188Y-77509061D01*
X127568761Y-77324119D01*
X127576630Y-77313866D01*
X127723287Y-77146634D01*
X127732420Y-77137501D01*
X127899672Y-76990824D01*
X127909908Y-76982970D01*
X128094866Y-76859383D01*
X128106043Y-76852929D01*
X128126900Y-76842644D01*
X128187448Y-76833866D01*
X128241596Y-76862355D01*
X128268658Y-76917231D01*
X128262150Y-76969313D01*
X128261132Y-76971769D01*
X128249501Y-77030241D01*
X128249500Y-77030253D01*
X128249500Y-78769746D01*
X128249501Y-78769758D01*
X128261132Y-78828227D01*
X128261134Y-78828233D01*
X128305445Y-78894548D01*
X128305448Y-78894552D01*
X128371769Y-78938867D01*
X128416231Y-78947711D01*
X128430241Y-78950498D01*
X128430246Y-78950498D01*
X128430252Y-78950500D01*
X128430253Y-78950500D01*
X130169747Y-78950500D01*
X130169748Y-78950500D01*
X130228231Y-78938867D01*
X130294552Y-78894552D01*
X130338867Y-78828231D01*
X130350500Y-78769748D01*
X130350500Y-77796532D01*
X130789500Y-77796532D01*
X130789500Y-78003467D01*
X130829869Y-78206418D01*
X130909058Y-78397597D01*
X131024020Y-78569651D01*
X131024023Y-78569655D01*
X131170345Y-78715977D01*
X131342402Y-78830941D01*
X131533580Y-78910130D01*
X131736535Y-78950500D01*
X131736536Y-78950500D01*
X131943464Y-78950500D01*
X131943465Y-78950500D01*
X132146420Y-78910130D01*
X132337598Y-78830941D01*
X132509655Y-78715977D01*
X132655977Y-78569655D01*
X132770941Y-78397598D01*
X132850130Y-78206420D01*
X132890500Y-78003465D01*
X132890500Y-77796535D01*
X132890499Y-77796532D01*
X133329500Y-77796532D01*
X133329500Y-78003467D01*
X133369869Y-78206418D01*
X133449058Y-78397597D01*
X133564020Y-78569651D01*
X133564023Y-78569655D01*
X133710345Y-78715977D01*
X133882402Y-78830941D01*
X134073580Y-78910130D01*
X134276535Y-78950500D01*
X134276536Y-78950500D01*
X134483464Y-78950500D01*
X134483465Y-78950500D01*
X134686420Y-78910130D01*
X134877598Y-78830941D01*
X135049655Y-78715977D01*
X135195977Y-78569655D01*
X135310941Y-78397598D01*
X135390130Y-78206420D01*
X135430500Y-78003465D01*
X135430500Y-77796535D01*
X135430499Y-77796532D01*
X135869500Y-77796532D01*
X135869500Y-78003467D01*
X135909869Y-78206418D01*
X135989058Y-78397597D01*
X136104020Y-78569651D01*
X136104023Y-78569655D01*
X136250345Y-78715977D01*
X136422402Y-78830941D01*
X136613580Y-78910130D01*
X136816535Y-78950500D01*
X136816536Y-78950500D01*
X137023464Y-78950500D01*
X137023465Y-78950500D01*
X137226420Y-78910130D01*
X137417598Y-78830941D01*
X137589655Y-78715977D01*
X137735977Y-78569655D01*
X137850941Y-78397598D01*
X137930130Y-78206420D01*
X137970500Y-78003465D01*
X137970500Y-77796581D01*
X138410000Y-77796581D01*
X138410000Y-78003418D01*
X138450349Y-78206272D01*
X138529501Y-78397361D01*
X138618022Y-78529843D01*
X139016328Y-78131536D01*
X139059901Y-78207007D01*
X139152993Y-78300099D01*
X139228460Y-78343670D01*
X138830154Y-78741977D01*
X138962625Y-78830491D01*
X138962639Y-78830498D01*
X139153727Y-78909650D01*
X139356581Y-78949999D01*
X139356586Y-78950000D01*
X139563414Y-78950000D01*
X139563418Y-78949999D01*
X139766272Y-78909650D01*
X139957360Y-78830498D01*
X140089843Y-78741976D01*
X139691538Y-78343671D01*
X139767007Y-78300099D01*
X139860099Y-78207007D01*
X139903671Y-78131538D01*
X140301976Y-78529843D01*
X140390498Y-78397360D01*
X140469650Y-78206272D01*
X140509999Y-78003418D01*
X140510000Y-78003413D01*
X140510000Y-77796585D01*
X140509999Y-77796582D01*
X140509989Y-77796532D01*
X140949500Y-77796532D01*
X140949500Y-78003467D01*
X140989869Y-78206418D01*
X141069058Y-78397597D01*
X141184020Y-78569651D01*
X141184023Y-78569655D01*
X141330345Y-78715977D01*
X141502402Y-78830941D01*
X141693580Y-78910130D01*
X141896535Y-78950500D01*
X141896536Y-78950500D01*
X142103464Y-78950500D01*
X142103465Y-78950500D01*
X142306420Y-78910130D01*
X142497598Y-78830941D01*
X142669655Y-78715977D01*
X142815977Y-78569655D01*
X142930941Y-78397598D01*
X143010130Y-78206420D01*
X143050500Y-78003465D01*
X143050500Y-77796581D01*
X143490000Y-77796581D01*
X143490000Y-78003418D01*
X143530349Y-78206272D01*
X143609501Y-78397361D01*
X143698022Y-78529843D01*
X144096328Y-78131536D01*
X144139901Y-78207007D01*
X144232993Y-78300099D01*
X144308460Y-78343670D01*
X143910154Y-78741977D01*
X144042625Y-78830491D01*
X144042639Y-78830498D01*
X144233727Y-78909650D01*
X144436581Y-78949999D01*
X144436586Y-78950000D01*
X144643414Y-78950000D01*
X144643418Y-78949999D01*
X144846272Y-78909650D01*
X145037360Y-78830498D01*
X145169843Y-78741976D01*
X144771538Y-78343671D01*
X144847007Y-78300099D01*
X144940099Y-78207007D01*
X144983671Y-78131538D01*
X145381976Y-78529843D01*
X145470498Y-78397360D01*
X145549650Y-78206272D01*
X145589999Y-78003418D01*
X145590000Y-78003413D01*
X145590000Y-77796586D01*
X145589999Y-77796581D01*
X145549650Y-77593727D01*
X145470498Y-77402639D01*
X145470491Y-77402625D01*
X145381976Y-77270154D01*
X144983670Y-77668460D01*
X144940099Y-77592993D01*
X144847007Y-77499901D01*
X144771536Y-77456328D01*
X145169843Y-77058022D01*
X145037361Y-76969501D01*
X144846272Y-76890349D01*
X144643418Y-76850000D01*
X144436581Y-76850000D01*
X144233727Y-76890349D01*
X144042638Y-76969501D01*
X143910155Y-77058022D01*
X144308461Y-77456328D01*
X144232993Y-77499901D01*
X144139901Y-77592993D01*
X144096328Y-77668461D01*
X143698022Y-77270155D01*
X143609501Y-77402638D01*
X143530349Y-77593727D01*
X143490000Y-77796581D01*
X143050500Y-77796581D01*
X143050500Y-77796535D01*
X143010130Y-77593580D01*
X142930941Y-77402402D01*
X142815977Y-77230345D01*
X142669655Y-77084023D01*
X142669651Y-77084020D01*
X142497597Y-76969058D01*
X142306418Y-76889869D01*
X142103467Y-76849500D01*
X142103465Y-76849500D01*
X141896535Y-76849500D01*
X141896532Y-76849500D01*
X141693581Y-76889869D01*
X141502402Y-76969058D01*
X141330348Y-77084020D01*
X141184020Y-77230348D01*
X141069058Y-77402402D01*
X140989869Y-77593581D01*
X140949500Y-77796532D01*
X140509989Y-77796532D01*
X140469650Y-77593727D01*
X140390498Y-77402639D01*
X140390491Y-77402625D01*
X140301976Y-77270154D01*
X139903670Y-77668460D01*
X139860099Y-77592993D01*
X139767007Y-77499901D01*
X139691536Y-77456328D01*
X140089843Y-77058022D01*
X139957361Y-76969501D01*
X139766272Y-76890349D01*
X139563418Y-76850000D01*
X139356581Y-76850000D01*
X139153727Y-76890349D01*
X138962638Y-76969501D01*
X138830155Y-77058022D01*
X139228461Y-77456328D01*
X139152993Y-77499901D01*
X139059901Y-77592993D01*
X139016328Y-77668461D01*
X138618022Y-77270155D01*
X138529501Y-77402638D01*
X138450349Y-77593727D01*
X138410000Y-77796581D01*
X137970500Y-77796581D01*
X137970500Y-77796535D01*
X137930130Y-77593580D01*
X137850941Y-77402402D01*
X137735977Y-77230345D01*
X137589655Y-77084023D01*
X137589651Y-77084020D01*
X137417597Y-76969058D01*
X137226418Y-76889869D01*
X137023467Y-76849500D01*
X137023465Y-76849500D01*
X136816535Y-76849500D01*
X136816532Y-76849500D01*
X136613581Y-76889869D01*
X136422402Y-76969058D01*
X136250348Y-77084020D01*
X136104020Y-77230348D01*
X135989058Y-77402402D01*
X135909869Y-77593581D01*
X135869500Y-77796532D01*
X135430499Y-77796532D01*
X135390130Y-77593580D01*
X135310941Y-77402402D01*
X135195977Y-77230345D01*
X135049655Y-77084023D01*
X135049651Y-77084020D01*
X134877597Y-76969058D01*
X134686418Y-76889869D01*
X134483467Y-76849500D01*
X134483465Y-76849500D01*
X134276535Y-76849500D01*
X134276532Y-76849500D01*
X134073581Y-76889869D01*
X133882402Y-76969058D01*
X133710348Y-77084020D01*
X133564020Y-77230348D01*
X133449058Y-77402402D01*
X133369869Y-77593581D01*
X133329500Y-77796532D01*
X132890499Y-77796532D01*
X132850130Y-77593580D01*
X132770941Y-77402402D01*
X132655977Y-77230345D01*
X132509655Y-77084023D01*
X132509651Y-77084020D01*
X132337597Y-76969058D01*
X132146418Y-76889869D01*
X131943467Y-76849500D01*
X131943465Y-76849500D01*
X131736535Y-76849500D01*
X131736532Y-76849500D01*
X131533581Y-76889869D01*
X131342402Y-76969058D01*
X131170348Y-77084020D01*
X131024020Y-77230348D01*
X130909058Y-77402402D01*
X130829869Y-77593581D01*
X130789500Y-77796532D01*
X130350500Y-77796532D01*
X130350500Y-77030252D01*
X130338867Y-76971769D01*
X130294552Y-76905448D01*
X130294548Y-76905445D01*
X130228233Y-76861134D01*
X130228231Y-76861133D01*
X130228228Y-76861132D01*
X130228227Y-76861132D01*
X130169758Y-76849501D01*
X130169748Y-76849500D01*
X128667260Y-76849500D01*
X128646983Y-76842911D01*
X128625813Y-76840406D01*
X128618518Y-76833663D01*
X128609069Y-76830593D01*
X128596536Y-76813343D01*
X128580883Y-76798874D01*
X128578944Y-76789130D01*
X128573105Y-76781093D01*
X128573105Y-76759772D01*
X128568946Y-76738864D01*
X128573105Y-76729842D01*
X128573105Y-76719907D01*
X128585637Y-76702657D01*
X128594562Y-76683299D01*
X128603228Y-76678445D01*
X128609069Y-76670407D01*
X128647944Y-76653402D01*
X128758764Y-76631358D01*
X128771586Y-76629670D01*
X128996552Y-76614926D01*
X129003027Y-76614714D01*
X129039882Y-76614714D01*
X144960118Y-76614714D01*
X144996759Y-76614714D01*
X145003234Y-76614926D01*
G37*
%TD.AperFunction*%
%TD*%
M02*
