M48
; DRILL file {KiCad 9.0.3} date 2025-09-24T11:10:31-0400
; FORMAT={-:-/ absolute / metric / decimal}
; #@! TF.CreationDate,2025-09-24T11:10:31-04:00
; #@! TF.GenerationSoftware,Kicad,Pcbnew,9.0.3
; #@! TF.FileFunction,Plated,1,4,PTH
FMAT,2
METRIC
; #@! TA.AperFunction,Plated,PTH,ViaDrill
T1C0.200
; #@! TA.AperFunction,Plated,PTH,ComponentDrill
T2C0.560
; #@! TA.AperFunction,Plated,PTH,ComponentDrill
T3C1.000
%
G90
G05
T1
X127.9Y-88.5
X128.0Y-92.3
X129.1Y-89.6
X129.2Y-86.2
X129.4Y-84.2
X129.4Y-87.9
X129.7Y-82.7
X130.0Y-80.5
X130.05Y-83.25
X130.5Y-82.7
X131.0Y-83.25
X131.048Y-126.0
X131.45Y-82.7
X131.5Y-81.7
X131.95Y-83.25
X132.4Y-82.7
X132.85Y-83.25
X133.305Y-82.7
X133.755Y-83.2
X134.205Y-82.7
X134.4Y-81.4
X134.6Y-128.4
X134.655Y-83.2
X134.7Y-111.1
X135.105Y-82.7
X135.605Y-83.2
X136.0Y-113.0
X136.055Y-82.7
X136.505Y-83.2
X136.9Y-81.1
X137.0Y-87.0
X137.0Y-95.0
X137.0Y-96.0
X137.0Y-111.0
X137.0Y-128.0
X137.005Y-82.6
X137.45Y-83.2
X137.9Y-82.6
X138.3Y-112.7
X138.4Y-83.25
X138.75Y-82.6
X139.25Y-83.2
X139.3Y-113.6
X139.75Y-82.6
X139.9Y-128.3
X139.967Y-81.032
X140.25Y-83.25
X140.6Y-82.6
X140.9Y-117.9
X141.1Y-83.2
X141.6Y-82.6
X142.05Y-83.2
X142.3Y-81.1
X142.5Y-82.6
X142.95Y-83.2
X143.45Y-82.6
X143.95Y-83.2
X144.3Y-80.9
X144.45Y-82.6
X144.9Y-83.9
X144.9Y-85.5
X144.9Y-86.5
X145.1Y-82.2
X145.2Y-88.0
X145.9Y-122.7
T2
X135.095Y-98.285
X135.095Y-99.555
X135.095Y-100.825
X135.095Y-102.095
X135.095Y-103.365
X135.095Y-104.635
X135.095Y-105.905
X135.095Y-107.175
X135.095Y-108.445
X135.095Y-109.715
X135.095Y-115.285
X135.095Y-116.555
X135.095Y-117.825
X135.095Y-119.095
X135.095Y-120.365
X135.095Y-121.635
X135.095Y-122.905
X135.095Y-124.175
X135.095Y-125.445
X135.095Y-126.715
X136.365Y-98.285
X136.365Y-99.555
X136.365Y-100.825
X136.365Y-102.095
X136.365Y-103.365
X136.365Y-104.635
X136.365Y-105.905
X136.365Y-107.175
X136.365Y-108.445
X136.365Y-109.715
X136.365Y-115.285
X136.365Y-116.555
X136.365Y-117.825
X136.365Y-119.095
X136.365Y-120.365
X136.365Y-121.635
X136.365Y-122.905
X136.365Y-124.175
X136.365Y-125.445
X136.365Y-126.715
X137.635Y-98.285
X137.635Y-99.555
X137.635Y-100.825
X137.635Y-102.095
X137.635Y-103.365
X137.635Y-104.635
X137.635Y-105.905
X137.635Y-107.175
X137.635Y-108.445
X137.635Y-109.715
X137.635Y-115.285
X137.635Y-116.555
X137.635Y-117.825
X137.635Y-119.095
X137.635Y-120.365
X137.635Y-121.635
X137.635Y-122.905
X137.635Y-124.175
X137.635Y-125.445
X137.635Y-126.715
X138.905Y-98.285
X138.905Y-99.555
X138.905Y-100.825
X138.905Y-102.095
X138.905Y-103.365
X138.905Y-104.635
X138.905Y-105.905
X138.905Y-107.175
X138.905Y-108.445
X138.905Y-109.715
X138.905Y-115.285
X138.905Y-116.555
X138.905Y-117.825
X138.905Y-119.095
X138.905Y-120.365
X138.905Y-121.635
X138.905Y-122.905
X138.905Y-124.175
X138.905Y-125.445
X138.905Y-126.715
T3
X129.3Y-77.9
X131.84Y-77.9
X134.38Y-77.9
X136.92Y-77.9
X139.46Y-77.9
X142.0Y-77.9
X144.54Y-77.9
M30
