%TF.GenerationSoftware,KiCad,Pcbnew,9.0.3*%
%TF.CreationDate,2025-09-30T16:22:14-04:00*%
%TF.ProjectId,eib-64-cnt-a64,6569622d-3634-42d6-936e-742d6136342e,A*%
%TF.SameCoordinates,Original*%
%TF.FileFunction,AssemblyDrawing,Bot*%
%FSLAX46Y46*%
G04 Gerber Fmt 4.6, Leading zero omitted, Abs format (unit mm)*
G04 Created by KiCad (PCBNEW 9.0.3) date 2025-09-30 16:22:14*
%MOMM*%
%LPD*%
G01*
G04 APERTURE LIST*
%ADD10C,0.150000*%
%ADD11C,0.100000*%
G04 APERTURE END LIST*
D10*
X132506009Y-107492143D02*
X132506009Y-107158810D01*
X133029819Y-107158810D02*
X132029819Y-107158810D01*
X132029819Y-107158810D02*
X132029819Y-107635000D01*
X132029819Y-108206429D02*
X132029819Y-108396905D01*
X132029819Y-108396905D02*
X132077438Y-108492143D01*
X132077438Y-108492143D02*
X132172676Y-108587381D01*
X132172676Y-108587381D02*
X132363152Y-108635000D01*
X132363152Y-108635000D02*
X132696485Y-108635000D01*
X132696485Y-108635000D02*
X132886961Y-108587381D01*
X132886961Y-108587381D02*
X132982200Y-108492143D01*
X132982200Y-108492143D02*
X133029819Y-108396905D01*
X133029819Y-108396905D02*
X133029819Y-108206429D01*
X133029819Y-108206429D02*
X132982200Y-108111191D01*
X132982200Y-108111191D02*
X132886961Y-108015953D01*
X132886961Y-108015953D02*
X132696485Y-107968334D01*
X132696485Y-107968334D02*
X132363152Y-107968334D01*
X132363152Y-107968334D02*
X132172676Y-108015953D01*
X132172676Y-108015953D02*
X132077438Y-108111191D01*
X132077438Y-108111191D02*
X132029819Y-108206429D01*
X133029819Y-109539762D02*
X133029819Y-109063572D01*
X133029819Y-109063572D02*
X132029819Y-109063572D01*
X132934580Y-110444524D02*
X132982200Y-110396905D01*
X132982200Y-110396905D02*
X133029819Y-110254048D01*
X133029819Y-110254048D02*
X133029819Y-110158810D01*
X133029819Y-110158810D02*
X132982200Y-110015953D01*
X132982200Y-110015953D02*
X132886961Y-109920715D01*
X132886961Y-109920715D02*
X132791723Y-109873096D01*
X132791723Y-109873096D02*
X132601247Y-109825477D01*
X132601247Y-109825477D02*
X132458390Y-109825477D01*
X132458390Y-109825477D02*
X132267914Y-109873096D01*
X132267914Y-109873096D02*
X132172676Y-109920715D01*
X132172676Y-109920715D02*
X132077438Y-110015953D01*
X132077438Y-110015953D02*
X132029819Y-110158810D01*
X132029819Y-110158810D02*
X132029819Y-110254048D01*
X132029819Y-110254048D02*
X132077438Y-110396905D01*
X132077438Y-110396905D02*
X132125057Y-110444524D01*
X132648866Y-110873096D02*
X132648866Y-111635001D01*
X133029819Y-112635000D02*
X133029819Y-112063572D01*
X133029819Y-112349286D02*
X132029819Y-112349286D01*
X132029819Y-112349286D02*
X132172676Y-112254048D01*
X132172676Y-112254048D02*
X132267914Y-112158810D01*
X132267914Y-112158810D02*
X132315533Y-112063572D01*
X133029819Y-113587381D02*
X133029819Y-113015953D01*
X133029819Y-113301667D02*
X132029819Y-113301667D01*
X132029819Y-113301667D02*
X132172676Y-113206429D01*
X132172676Y-113206429D02*
X132267914Y-113111191D01*
X132267914Y-113111191D02*
X132315533Y-113015953D01*
X132029819Y-114206429D02*
X132029819Y-114301667D01*
X132029819Y-114301667D02*
X132077438Y-114396905D01*
X132077438Y-114396905D02*
X132125057Y-114444524D01*
X132125057Y-114444524D02*
X132220295Y-114492143D01*
X132220295Y-114492143D02*
X132410771Y-114539762D01*
X132410771Y-114539762D02*
X132648866Y-114539762D01*
X132648866Y-114539762D02*
X132839342Y-114492143D01*
X132839342Y-114492143D02*
X132934580Y-114444524D01*
X132934580Y-114444524D02*
X132982200Y-114396905D01*
X132982200Y-114396905D02*
X133029819Y-114301667D01*
X133029819Y-114301667D02*
X133029819Y-114206429D01*
X133029819Y-114206429D02*
X132982200Y-114111191D01*
X132982200Y-114111191D02*
X132934580Y-114063572D01*
X132934580Y-114063572D02*
X132839342Y-114015953D01*
X132839342Y-114015953D02*
X132648866Y-113968334D01*
X132648866Y-113968334D02*
X132410771Y-113968334D01*
X132410771Y-113968334D02*
X132220295Y-114015953D01*
X132220295Y-114015953D02*
X132125057Y-114063572D01*
X132125057Y-114063572D02*
X132077438Y-114111191D01*
X132077438Y-114111191D02*
X132029819Y-114206429D01*
X132648866Y-114968334D02*
X132648866Y-115730239D01*
X132029819Y-116396905D02*
X132029819Y-116492143D01*
X132029819Y-116492143D02*
X132077438Y-116587381D01*
X132077438Y-116587381D02*
X132125057Y-116635000D01*
X132125057Y-116635000D02*
X132220295Y-116682619D01*
X132220295Y-116682619D02*
X132410771Y-116730238D01*
X132410771Y-116730238D02*
X132648866Y-116730238D01*
X132648866Y-116730238D02*
X132839342Y-116682619D01*
X132839342Y-116682619D02*
X132934580Y-116635000D01*
X132934580Y-116635000D02*
X132982200Y-116587381D01*
X132982200Y-116587381D02*
X133029819Y-116492143D01*
X133029819Y-116492143D02*
X133029819Y-116396905D01*
X133029819Y-116396905D02*
X132982200Y-116301667D01*
X132982200Y-116301667D02*
X132934580Y-116254048D01*
X132934580Y-116254048D02*
X132839342Y-116206429D01*
X132839342Y-116206429D02*
X132648866Y-116158810D01*
X132648866Y-116158810D02*
X132410771Y-116158810D01*
X132410771Y-116158810D02*
X132220295Y-116206429D01*
X132220295Y-116206429D02*
X132125057Y-116254048D01*
X132125057Y-116254048D02*
X132077438Y-116301667D01*
X132077438Y-116301667D02*
X132029819Y-116396905D01*
X133029819Y-117682619D02*
X133029819Y-117111191D01*
X133029819Y-117396905D02*
X132029819Y-117396905D01*
X132029819Y-117396905D02*
X132172676Y-117301667D01*
X132172676Y-117301667D02*
X132267914Y-117206429D01*
X132267914Y-117206429D02*
X132315533Y-117111191D01*
X132648866Y-118111191D02*
X132648866Y-118873096D01*
X132982200Y-119301667D02*
X133029819Y-119444524D01*
X133029819Y-119444524D02*
X133029819Y-119682619D01*
X133029819Y-119682619D02*
X132982200Y-119777857D01*
X132982200Y-119777857D02*
X132934580Y-119825476D01*
X132934580Y-119825476D02*
X132839342Y-119873095D01*
X132839342Y-119873095D02*
X132744104Y-119873095D01*
X132744104Y-119873095D02*
X132648866Y-119825476D01*
X132648866Y-119825476D02*
X132601247Y-119777857D01*
X132601247Y-119777857D02*
X132553628Y-119682619D01*
X132553628Y-119682619D02*
X132506009Y-119492143D01*
X132506009Y-119492143D02*
X132458390Y-119396905D01*
X132458390Y-119396905D02*
X132410771Y-119349286D01*
X132410771Y-119349286D02*
X132315533Y-119301667D01*
X132315533Y-119301667D02*
X132220295Y-119301667D01*
X132220295Y-119301667D02*
X132125057Y-119349286D01*
X132125057Y-119349286D02*
X132077438Y-119396905D01*
X132077438Y-119396905D02*
X132029819Y-119492143D01*
X132029819Y-119492143D02*
X132029819Y-119730238D01*
X132029819Y-119730238D02*
X132077438Y-119873095D01*
X132648866Y-120301667D02*
X132648866Y-121063572D01*
X133125057Y-122206428D02*
X133077438Y-122111190D01*
X133077438Y-122111190D02*
X132982200Y-122015952D01*
X132982200Y-122015952D02*
X132839342Y-121873095D01*
X132839342Y-121873095D02*
X132791723Y-121777857D01*
X132791723Y-121777857D02*
X132791723Y-121682619D01*
X133029819Y-121730238D02*
X132982200Y-121635000D01*
X132982200Y-121635000D02*
X132886961Y-121539762D01*
X132886961Y-121539762D02*
X132696485Y-121492143D01*
X132696485Y-121492143D02*
X132363152Y-121492143D01*
X132363152Y-121492143D02*
X132172676Y-121539762D01*
X132172676Y-121539762D02*
X132077438Y-121635000D01*
X132077438Y-121635000D02*
X132029819Y-121730238D01*
X132029819Y-121730238D02*
X132029819Y-121920714D01*
X132029819Y-121920714D02*
X132077438Y-122015952D01*
X132077438Y-122015952D02*
X132172676Y-122111190D01*
X132172676Y-122111190D02*
X132363152Y-122158809D01*
X132363152Y-122158809D02*
X132696485Y-122158809D01*
X132696485Y-122158809D02*
X132886961Y-122111190D01*
X132886961Y-122111190D02*
X132982200Y-122015952D01*
X132982200Y-122015952D02*
X133029819Y-121920714D01*
X133029819Y-121920714D02*
X133029819Y-121730238D01*
D11*
%TO.C,J2*%
X134205000Y-97395000D02*
X134205000Y-110605000D01*
X134205000Y-97395000D02*
X135730000Y-97395000D01*
X134205000Y-110605000D02*
X135730000Y-110605000D01*
X135730000Y-96380000D02*
X138270000Y-96380000D01*
X135730000Y-97395000D02*
X135730000Y-96380000D01*
X135730000Y-110605000D02*
X135730000Y-111620000D01*
X135730000Y-111620000D02*
X138270000Y-111620000D01*
X138270000Y-97395000D02*
X138270000Y-96380000D01*
X138270000Y-110605000D02*
X138270000Y-111620000D01*
X138270000Y-110605000D02*
X139795000Y-110605000D01*
X139795000Y-110605000D02*
X139795000Y-98300000D01*
%TO.C,J1*%
X134205000Y-114395000D02*
X134205000Y-127605000D01*
X134205000Y-114395000D02*
X135730000Y-114395000D01*
X134205000Y-127605000D02*
X135730000Y-127605000D01*
X135730000Y-113380000D02*
X138270000Y-113380000D01*
X135730000Y-114395000D02*
X135730000Y-113380000D01*
X135730000Y-127605000D02*
X135730000Y-128620000D01*
X135730000Y-128620000D02*
X138270000Y-128620000D01*
X138270000Y-114395000D02*
X138270000Y-113380000D01*
X138270000Y-127605000D02*
X138270000Y-128620000D01*
X138270000Y-127605000D02*
X139795000Y-127605000D01*
X139795000Y-127605000D02*
X139795000Y-115300000D01*
%TD*%
M02*
