%TF.GenerationSoftware,KiCad,Pcbnew,9.0.3*%
%TF.CreationDate,2025-09-24T11:10:32-04:00*%
%TF.ProjectId,eib-64-cnt-a64,6569622d-3634-42d6-936e-742d6136342e,A*%
%TF.SameCoordinates,Original*%
%TF.FileFunction,Soldermask,Bot*%
%TF.FilePolarity,Negative*%
%FSLAX46Y46*%
G04 Gerber Fmt 4.6, Leading zero omitted, Abs format (unit mm)*
G04 Created by KiCad (PCBNEW 9.0.3) date 2025-09-24 11:10:32*
%MOMM*%
%LPD*%
G01*
G04 APERTURE LIST*
%ADD10R,1.700000X1.700000*%
%ADD11C,1.700000*%
%ADD12R,0.910000X0.910000*%
%ADD13C,0.910000*%
G04 APERTURE END LIST*
D10*
%TO.C,J4*%
X129300000Y-77900000D03*
D11*
X131840000Y-77900000D03*
X134380000Y-77900000D03*
X136920000Y-77900000D03*
X139460000Y-77900000D03*
X142000000Y-77900000D03*
X144540000Y-77900000D03*
%TD*%
D12*
%TO.C,J2*%
X138905000Y-98285000D03*
D13*
X138905000Y-99555000D03*
X138905000Y-100825000D03*
X138905000Y-102095000D03*
X138905000Y-103365000D03*
X138905000Y-104635000D03*
X138905000Y-105905000D03*
X138905000Y-107175000D03*
X138905000Y-108445000D03*
X138905000Y-109715000D03*
X137635000Y-98285000D03*
X137635000Y-99555000D03*
X137635000Y-100825000D03*
X137635000Y-102095000D03*
X137635000Y-103365000D03*
X137635000Y-104635000D03*
X137635000Y-105905000D03*
X137635000Y-107175000D03*
X137635000Y-108445000D03*
X137635000Y-109715000D03*
X136365000Y-98285000D03*
X136365000Y-99555000D03*
X136365000Y-100825000D03*
X136365000Y-102095000D03*
X136365000Y-103365000D03*
X136365000Y-104635000D03*
X136365000Y-105905000D03*
X136365000Y-107175000D03*
X136365000Y-108445000D03*
X136365000Y-109715000D03*
X135095000Y-98285000D03*
X135095000Y-99555000D03*
X135095000Y-100825000D03*
X135095000Y-102095000D03*
X135095000Y-103365000D03*
X135095000Y-104635000D03*
X135095000Y-105905000D03*
X135095000Y-107175000D03*
X135095000Y-108445000D03*
X135095000Y-109715000D03*
%TD*%
D12*
%TO.C,J1*%
X138905000Y-115285000D03*
D13*
X138905000Y-116555000D03*
X138905000Y-117825000D03*
X138905000Y-119095000D03*
X138905000Y-120365000D03*
X138905000Y-121635000D03*
X138905000Y-122905000D03*
X138905000Y-124175000D03*
X138905000Y-125445000D03*
X138905000Y-126715000D03*
X137635000Y-115285000D03*
X137635000Y-116555000D03*
X137635000Y-117825000D03*
X137635000Y-119095000D03*
X137635000Y-120365000D03*
X137635000Y-121635000D03*
X137635000Y-122905000D03*
X137635000Y-124175000D03*
X137635000Y-125445000D03*
X137635000Y-126715000D03*
X136365000Y-115285000D03*
X136365000Y-116555000D03*
X136365000Y-117825000D03*
X136365000Y-119095000D03*
X136365000Y-120365000D03*
X136365000Y-121635000D03*
X136365000Y-122905000D03*
X136365000Y-124175000D03*
X136365000Y-125445000D03*
X136365000Y-126715000D03*
X135095000Y-115285000D03*
X135095000Y-116555000D03*
X135095000Y-117825000D03*
X135095000Y-119095000D03*
X135095000Y-120365000D03*
X135095000Y-121635000D03*
X135095000Y-122905000D03*
X135095000Y-124175000D03*
X135095000Y-125445000D03*
X135095000Y-126715000D03*
%TD*%
M02*
