%TF.GenerationSoftware,KiCad,Pcbnew,9.0.3*%
%TF.CreationDate,2025-09-30T16:22:14-04:00*%
%TF.ProjectId,eib-64-cnt-a64,6569622d-3634-42d6-936e-742d6136342e,A*%
%TF.SameCoordinates,Original*%
%TF.FileFunction,AssemblyDrawing,Top*%
%FSLAX46Y46*%
G04 Gerber Fmt 4.6, Leading zero omitted, Abs format (unit mm)*
G04 Created by KiCad (PCBNEW 9.0.3) date 2025-09-30 16:22:14*
%MOMM*%
%LPD*%
G01*
G04 APERTURE LIST*
%ADD10C,0.150000*%
%ADD11C,0.100000*%
G04 APERTURE END LIST*
D10*
X136666666Y-120354819D02*
X136666666Y-121069104D01*
X136666666Y-121069104D02*
X136619047Y-121211961D01*
X136619047Y-121211961D02*
X136523809Y-121307200D01*
X136523809Y-121307200D02*
X136380952Y-121354819D01*
X136380952Y-121354819D02*
X136285714Y-121354819D01*
X137666666Y-121354819D02*
X137095238Y-121354819D01*
X137380952Y-121354819D02*
X137380952Y-120354819D01*
X137380952Y-120354819D02*
X137285714Y-120497676D01*
X137285714Y-120497676D02*
X137190476Y-120592914D01*
X137190476Y-120592914D02*
X137095238Y-120640533D01*
X136666666Y-103454819D02*
X136666666Y-104169104D01*
X136666666Y-104169104D02*
X136619047Y-104311961D01*
X136619047Y-104311961D02*
X136523809Y-104407200D01*
X136523809Y-104407200D02*
X136380952Y-104454819D01*
X136380952Y-104454819D02*
X136285714Y-104454819D01*
X137095238Y-103550057D02*
X137142857Y-103502438D01*
X137142857Y-103502438D02*
X137238095Y-103454819D01*
X137238095Y-103454819D02*
X137476190Y-103454819D01*
X137476190Y-103454819D02*
X137571428Y-103502438D01*
X137571428Y-103502438D02*
X137619047Y-103550057D01*
X137619047Y-103550057D02*
X137666666Y-103645295D01*
X137666666Y-103645295D02*
X137666666Y-103740533D01*
X137666666Y-103740533D02*
X137619047Y-103883390D01*
X137619047Y-103883390D02*
X137047619Y-104454819D01*
X137047619Y-104454819D02*
X137666666Y-104454819D01*
X136586666Y-77354819D02*
X136586666Y-78069104D01*
X136586666Y-78069104D02*
X136539047Y-78211961D01*
X136539047Y-78211961D02*
X136443809Y-78307200D01*
X136443809Y-78307200D02*
X136300952Y-78354819D01*
X136300952Y-78354819D02*
X136205714Y-78354819D01*
X137491428Y-77688152D02*
X137491428Y-78354819D01*
X137253333Y-77307200D02*
X137015238Y-78021485D01*
X137015238Y-78021485D02*
X137634285Y-78021485D01*
X135986423Y-77831104D02*
X137853576Y-77831104D01*
X136666666Y-86454819D02*
X136666666Y-87169104D01*
X136666666Y-87169104D02*
X136619047Y-87311961D01*
X136619047Y-87311961D02*
X136523809Y-87407200D01*
X136523809Y-87407200D02*
X136380952Y-87454819D01*
X136380952Y-87454819D02*
X136285714Y-87454819D01*
X137047619Y-86454819D02*
X137666666Y-86454819D01*
X137666666Y-86454819D02*
X137333333Y-86835771D01*
X137333333Y-86835771D02*
X137476190Y-86835771D01*
X137476190Y-86835771D02*
X137571428Y-86883390D01*
X137571428Y-86883390D02*
X137619047Y-86931009D01*
X137619047Y-86931009D02*
X137666666Y-87026247D01*
X137666666Y-87026247D02*
X137666666Y-87264342D01*
X137666666Y-87264342D02*
X137619047Y-87359580D01*
X137619047Y-87359580D02*
X137571428Y-87407200D01*
X137571428Y-87407200D02*
X137476190Y-87454819D01*
X137476190Y-87454819D02*
X137190476Y-87454819D01*
X137190476Y-87454819D02*
X137095238Y-87407200D01*
X137095238Y-87407200D02*
X137047619Y-87359580D01*
D11*
X128030000Y-76680000D02*
X145810000Y-76680000D01*
X145810000Y-76580000D02*
G75*
G02*
X145810000Y-76680000I0J-50000D01*
G01*
X145810000Y-76580000D02*
X128030000Y-76580000D01*
X128030000Y-76580000D02*
G75*
G03*
X128030000Y-76680000I0J-50000D01*
G01*
X128080000Y-78535000D02*
X128080000Y-76630000D01*
X127980000Y-76630000D02*
G75*
G02*
X128080000Y-76630000I50000J0D01*
G01*
X127980000Y-76630000D02*
X127980000Y-78535000D01*
X127980000Y-78535000D02*
G75*
G03*
X128080000Y-78535000I50000J0D01*
G01*
X128700355Y-79134645D02*
X128065355Y-78499645D01*
X127994645Y-78570355D02*
G75*
G02*
X128065355Y-78499645I35355J35355D01*
G01*
X127994645Y-78570355D02*
X128629645Y-79205355D01*
X128629645Y-79205355D02*
G75*
G03*
X128700355Y-79134645I35355J35355D01*
G01*
X145760000Y-76630000D02*
X145760000Y-79170000D01*
X145860000Y-79170000D02*
G75*
G02*
X145760000Y-79170000I-50000J0D01*
G01*
X145860000Y-79170000D02*
X145860000Y-76630000D01*
X145860000Y-76630000D02*
G75*
G03*
X145760000Y-76630000I-50000J0D01*
G01*
X145810000Y-79120000D02*
X128665000Y-79120000D01*
X128665000Y-79220000D02*
G75*
G02*
X128665000Y-79120000I0J50000D01*
G01*
X128665000Y-79220000D02*
X145810000Y-79220000D01*
X145810000Y-79220000D02*
G75*
G03*
X145810000Y-79120000I0J50000D01*
G01*
X127495000Y-76105000D02*
X146345000Y-79695000D01*
X127495000Y-79695000D02*
X146345000Y-76105000D01*
M02*
