%TF.GenerationSoftware,KiCad,Pcbnew,9.0.3*%
%TF.CreationDate,2025-09-24T11:10:32-04:00*%
%TF.ProjectId,eib-64-cnt-a64,6569622d-3634-42d6-936e-742d6136342e,A*%
%TF.SameCoordinates,Original*%
%TF.FileFunction,Copper,L4,Bot*%
%TF.FilePolarity,Positive*%
%FSLAX46Y46*%
G04 Gerber Fmt 4.6, Leading zero omitted, Abs format (unit mm)*
G04 Created by KiCad (PCBNEW 9.0.3) date 2025-09-24 11:10:32*
%MOMM*%
%LPD*%
G01*
G04 APERTURE LIST*
%TA.AperFunction,ComponentPad*%
%ADD10R,1.700000X1.700000*%
%TD*%
%TA.AperFunction,ComponentPad*%
%ADD11C,1.700000*%
%TD*%
%TA.AperFunction,ComponentPad*%
%ADD12R,0.910000X0.910000*%
%TD*%
%TA.AperFunction,ComponentPad*%
%ADD13C,0.910000*%
%TD*%
%TA.AperFunction,ViaPad*%
%ADD14C,0.400000*%
%TD*%
%TA.AperFunction,Conductor*%
%ADD15C,0.200000*%
%TD*%
%TA.AperFunction,Conductor*%
%ADD16C,0.090000*%
%TD*%
%TA.AperFunction,Conductor*%
%ADD17C,0.120000*%
%TD*%
G04 APERTURE END LIST*
D10*
%TO.P,J4,1,Pin_1*%
%TO.N,/K1*%
X129300000Y-77900000D03*
D11*
%TO.P,J4,2,Pin_2*%
%TO.N,/K0*%
X131840000Y-77900000D03*
%TO.P,J4,3,Pin_3*%
%TO.N,/Vcoax*%
X134380000Y-77900000D03*
%TO.P,J4,4,Pin_4*%
%TO.N,/Istim*%
X136920000Y-77900000D03*
%TO.P,J4,5,Pin_5*%
%TO.N,GND*%
X139460000Y-77900000D03*
%TO.P,J4,6,Pin_6*%
%TO.N,/Ref*%
X142000000Y-77900000D03*
%TO.P,J4,7,Pin_7*%
%TO.N,GND*%
X144540000Y-77900000D03*
%TD*%
D12*
%TO.P,J2,A1,A1*%
%TO.N,/Elec31*%
X138905000Y-98285000D03*
D13*
%TO.P,J2,A2,A2*%
%TO.N,/Elec30*%
X138905000Y-99555000D03*
%TO.P,J2,A3,A3*%
%TO.N,/Elec29*%
X138905000Y-100825000D03*
%TO.P,J2,A4,A4*%
%TO.N,/Elec28*%
X138905000Y-102095000D03*
%TO.P,J2,A5,A5*%
%TO.N,/Elec27*%
X138905000Y-103365000D03*
%TO.P,J2,A6,A6*%
%TO.N,/Elec25*%
X138905000Y-104635000D03*
%TO.P,J2,A7,A7*%
%TO.N,/Elec23*%
X138905000Y-105905000D03*
%TO.P,J2,A8,A8*%
%TO.N,/Elec21*%
X138905000Y-107175000D03*
%TO.P,J2,A9,A9*%
%TO.N,/Elec19*%
X138905000Y-108445000D03*
%TO.P,J2,A10,A10*%
%TO.N,/Elec17*%
X138905000Y-109715000D03*
%TO.P,J2,B1,B1*%
%TO.N,/Ref*%
X137635000Y-98285000D03*
%TO.P,J2,B2,B2*%
%TO.N,GND*%
X137635000Y-99555000D03*
%TO.P,J2,B3,B3*%
%TO.N,unconnected-(J2-PadB3)*%
X137635000Y-100825000D03*
%TO.P,J2,B4,B4*%
%TO.N,unconnected-(J2-PadB4)*%
X137635000Y-102095000D03*
%TO.P,J2,B5,B5*%
%TO.N,/Elec26*%
X137635000Y-103365000D03*
%TO.P,J2,B6,B6*%
%TO.N,/Elec24*%
X137635000Y-104635000D03*
%TO.P,J2,B7,B7*%
%TO.N,/Elec22*%
X137635000Y-105905000D03*
%TO.P,J2,B8,B8*%
%TO.N,/Elec20*%
X137635000Y-107175000D03*
%TO.P,J2,B9,B9*%
%TO.N,/Elec18*%
X137635000Y-108445000D03*
%TO.P,J2,B10,B10*%
%TO.N,/Elec16*%
X137635000Y-109715000D03*
%TO.P,J2,C1,C1*%
%TO.N,/Ref*%
X136365000Y-98285000D03*
%TO.P,J2,C2,C2*%
%TO.N,GND*%
X136365000Y-99555000D03*
%TO.P,J2,C3,C3*%
%TO.N,unconnected-(J2-PadC3)*%
X136365000Y-100825000D03*
%TO.P,J2,C4,C4*%
%TO.N,unconnected-(J2-PadC4)*%
X136365000Y-102095000D03*
%TO.P,J2,C5,C5*%
%TO.N,/Elec37*%
X136365000Y-103365000D03*
%TO.P,J2,C6,C6*%
%TO.N,/Elec39*%
X136365000Y-104635000D03*
%TO.P,J2,C7,C7*%
%TO.N,/Elec41*%
X136365000Y-105905000D03*
%TO.P,J2,C8,C8*%
%TO.N,/Elec43*%
X136365000Y-107175000D03*
%TO.P,J2,C9,C9*%
%TO.N,/Elec45*%
X136365000Y-108445000D03*
%TO.P,J2,C10,C10*%
%TO.N,/Elec47*%
X136365000Y-109715000D03*
%TO.P,J2,D1,D1*%
%TO.N,/Elec32*%
X135095000Y-98285000D03*
%TO.P,J2,D2,D2*%
%TO.N,/Elec33*%
X135095000Y-99555000D03*
%TO.P,J2,D3,D3*%
%TO.N,/Elec34*%
X135095000Y-100825000D03*
%TO.P,J2,D4,D4*%
%TO.N,/Elec35*%
X135095000Y-102095000D03*
%TO.P,J2,D5,D5*%
%TO.N,/Elec36*%
X135095000Y-103365000D03*
%TO.P,J2,D6,D6*%
%TO.N,/Elec38*%
X135095000Y-104635000D03*
%TO.P,J2,D7,D7*%
%TO.N,/Elec40*%
X135095000Y-105905000D03*
%TO.P,J2,D8,D8*%
%TO.N,/Elec42*%
X135095000Y-107175000D03*
%TO.P,J2,D9,D9*%
%TO.N,/Elec44*%
X135095000Y-108445000D03*
%TO.P,J2,D10,D10*%
%TO.N,/Elec46*%
X135095000Y-109715000D03*
%TD*%
D12*
%TO.P,J1,A1,A1*%
%TO.N,/Elec15*%
X138905000Y-115285000D03*
D13*
%TO.P,J1,A2,A2*%
%TO.N,/Elec14*%
X138905000Y-116555000D03*
%TO.P,J1,A3,A3*%
%TO.N,/Elec13*%
X138905000Y-117825000D03*
%TO.P,J1,A4,A4*%
%TO.N,/Elec12*%
X138905000Y-119095000D03*
%TO.P,J1,A5,A5*%
%TO.N,/Elec11*%
X138905000Y-120365000D03*
%TO.P,J1,A6,A6*%
%TO.N,/Elec9*%
X138905000Y-121635000D03*
%TO.P,J1,A7,A7*%
%TO.N,/Elec7*%
X138905000Y-122905000D03*
%TO.P,J1,A8,A8*%
%TO.N,/Elec5*%
X138905000Y-124175000D03*
%TO.P,J1,A9,A9*%
%TO.N,/Elec3*%
X138905000Y-125445000D03*
%TO.P,J1,A10,A10*%
%TO.N,/Elec1*%
X138905000Y-126715000D03*
%TO.P,J1,B1,B1*%
%TO.N,/Ref*%
X137635000Y-115285000D03*
%TO.P,J1,B2,B2*%
%TO.N,GND*%
X137635000Y-116555000D03*
%TO.P,J1,B3,B3*%
%TO.N,unconnected-(J1-PadB3)*%
X137635000Y-117825000D03*
%TO.P,J1,B4,B4*%
%TO.N,unconnected-(J1-PadB4)*%
X137635000Y-119095000D03*
%TO.P,J1,B5,B5*%
%TO.N,/Elec10*%
X137635000Y-120365000D03*
%TO.P,J1,B6,B6*%
%TO.N,/Elec8*%
X137635000Y-121635000D03*
%TO.P,J1,B7,B7*%
%TO.N,/Elec6*%
X137635000Y-122905000D03*
%TO.P,J1,B8,B8*%
%TO.N,/Elec4*%
X137635000Y-124175000D03*
%TO.P,J1,B9,B9*%
%TO.N,/Elec2*%
X137635000Y-125445000D03*
%TO.P,J1,B10,B10*%
%TO.N,/Elec0*%
X137635000Y-126715000D03*
%TO.P,J1,C1,C1*%
%TO.N,/Ref*%
X136365000Y-115285000D03*
%TO.P,J1,C2,C2*%
%TO.N,GND*%
X136365000Y-116555000D03*
%TO.P,J1,C3,C3*%
%TO.N,unconnected-(J1-PadC3)*%
X136365000Y-117825000D03*
%TO.P,J1,C4,C4*%
%TO.N,unconnected-(J1-PadC4)*%
X136365000Y-119095000D03*
%TO.P,J1,C5,C5*%
%TO.N,/Elec53*%
X136365000Y-120365000D03*
%TO.P,J1,C6,C6*%
%TO.N,/Elec55*%
X136365000Y-121635000D03*
%TO.P,J1,C7,C7*%
%TO.N,/Elec57*%
X136365000Y-122905000D03*
%TO.P,J1,C8,C8*%
%TO.N,/Elec59*%
X136365000Y-124175000D03*
%TO.P,J1,C9,C9*%
%TO.N,/Elec61*%
X136365000Y-125445000D03*
%TO.P,J1,C10,C10*%
%TO.N,/Elec63*%
X136365000Y-126715000D03*
%TO.P,J1,D1,D1*%
%TO.N,/Elec48*%
X135095000Y-115285000D03*
%TO.P,J1,D2,D2*%
%TO.N,/Elec49*%
X135095000Y-116555000D03*
%TO.P,J1,D3,D3*%
%TO.N,/Elec50*%
X135095000Y-117825000D03*
%TO.P,J1,D4,D4*%
%TO.N,/Elec51*%
X135095000Y-119095000D03*
%TO.P,J1,D5,D5*%
%TO.N,/Elec52*%
X135095000Y-120365000D03*
%TO.P,J1,D6,D6*%
%TO.N,/Elec54*%
X135095000Y-121635000D03*
%TO.P,J1,D7,D7*%
%TO.N,/Elec56*%
X135095000Y-122905000D03*
%TO.P,J1,D8,D8*%
%TO.N,/Elec58*%
X135095000Y-124175000D03*
%TO.P,J1,D9,D9*%
%TO.N,/Elec60*%
X135095000Y-125445000D03*
%TO.P,J1,D10,D10*%
%TO.N,/Elec62*%
X135095000Y-126715000D03*
%TD*%
D14*
%TO.N,/Istim*%
X145200000Y-88000000D03*
%TO.N,/Ref*%
X138300000Y-112700000D03*
%TO.N,/Elec0*%
X144450000Y-82600000D03*
%TO.N,/Elec1*%
X143950000Y-83200000D03*
%TO.N,/Elec2*%
X143450000Y-82600000D03*
%TO.N,/Elec3*%
X142950000Y-83200000D03*
%TO.N,/Elec4*%
X142500000Y-82600000D03*
%TO.N,/Elec5*%
X142050000Y-83200000D03*
%TO.N,/Elec6*%
X141600000Y-82600000D03*
%TO.N,/Elec7*%
X141100000Y-83200000D03*
%TO.N,/Elec8*%
X140600000Y-82600000D03*
%TO.N,/Elec9*%
X140250000Y-83250000D03*
%TO.N,/Elec10*%
X139750000Y-82600000D03*
%TO.N,/Elec11*%
X139250000Y-83200000D03*
%TO.N,/Elec12*%
X138750000Y-82600000D03*
%TO.N,/Elec13*%
X138400000Y-83250000D03*
%TO.N,/Elec14*%
X137900000Y-82600000D03*
%TO.N,/Elec15*%
X137450000Y-83200000D03*
%TO.N,/Elec48*%
X137005000Y-82600000D03*
%TO.N,/Elec49*%
X136505000Y-83200000D03*
%TO.N,/Elec50*%
X136055000Y-82700000D03*
%TO.N,/Elec51*%
X135605000Y-83200000D03*
%TO.N,/Elec52*%
X135105000Y-82700000D03*
%TO.N,/Elec53*%
X134655000Y-83200000D03*
%TO.N,/Elec54*%
X134205000Y-82700000D03*
%TO.N,/Elec55*%
X133755000Y-83200000D03*
%TO.N,/Elec56*%
X133305000Y-82700000D03*
%TO.N,/Elec57*%
X132850000Y-83250000D03*
%TO.N,/Elec58*%
X132400000Y-82700000D03*
%TO.N,/Elec59*%
X131950000Y-83250000D03*
%TO.N,/Elec60*%
X131450000Y-82700000D03*
%TO.N,/Elec61*%
X131000000Y-83250000D03*
%TO.N,/Elec62*%
X130500000Y-82700000D03*
%TO.N,/Elec63*%
X130050000Y-83250000D03*
%TO.N,GND*%
X137000000Y-128000000D03*
X131500000Y-81700000D03*
X129400000Y-84200000D03*
X137000000Y-87000000D03*
X130000000Y-80500000D03*
X137000000Y-96000000D03*
X144900000Y-85500000D03*
X139900000Y-128300000D03*
X137000000Y-95000000D03*
X134400000Y-81400000D03*
X136000000Y-113000000D03*
X139966520Y-81031721D03*
X131048296Y-126000000D03*
X137000000Y-111000000D03*
X144900000Y-83900000D03*
X129200000Y-86200000D03*
X144900000Y-86500000D03*
X129400000Y-87900000D03*
X134700000Y-111100000D03*
X145900000Y-122700000D03*
X129100000Y-89600000D03*
X140900000Y-117900000D03*
X134600000Y-128400000D03*
X144300000Y-80900000D03*
X142300000Y-81100000D03*
X129700000Y-82700000D03*
X145100000Y-82200000D03*
X127900000Y-88500000D03*
X136900000Y-81100000D03*
X128000000Y-92300000D03*
X139300000Y-113600000D03*
%TD*%
D15*
%TO.N,/Istim*%
X136920000Y-77900000D02*
X136920000Y-79220000D01*
X144900000Y-80000000D02*
X145600000Y-80700000D01*
X145600000Y-87600000D02*
X145200000Y-88000000D01*
X136920000Y-79220000D02*
X137700000Y-80000000D01*
X137700000Y-80000000D02*
X144900000Y-80000000D01*
X145600000Y-80700000D02*
X145600000Y-87600000D01*
%TO.N,/Ref*%
X139700000Y-111300000D02*
X139700000Y-97500000D01*
X138300000Y-112700000D02*
X139700000Y-111300000D01*
X139700000Y-97500000D02*
X139500000Y-97300000D01*
X136365000Y-115285000D02*
X137635000Y-115285000D01*
X138300479Y-114619521D02*
X137635000Y-115285000D01*
X139500000Y-97300000D02*
X138620000Y-97300000D01*
X138620000Y-97300000D02*
X137635000Y-98285000D01*
D16*
X136365000Y-98285000D02*
X137635000Y-98285000D01*
D15*
X138300479Y-112700479D02*
X138300000Y-112700000D01*
X138300479Y-114619521D02*
X138300479Y-112700479D01*
D17*
%TO.N,/Elec0*%
X138520000Y-127600000D02*
X140200000Y-127600000D01*
X146200000Y-121600000D02*
X146200000Y-90550000D01*
X144450000Y-88800000D02*
X144450000Y-82600000D01*
X137635000Y-126715000D02*
X138520000Y-127600000D01*
X140200000Y-127600000D02*
X146200000Y-121600000D01*
X146200000Y-90550000D02*
X144450000Y-88800000D01*
%TO.N,/Elec1*%
X140285000Y-126715000D02*
X145800000Y-121200000D01*
X145800000Y-91000000D02*
X143950000Y-89150000D01*
X143950000Y-89150000D02*
X143950000Y-83200000D01*
X145800000Y-121200000D02*
X145800000Y-91000000D01*
X138905000Y-126715000D02*
X140285000Y-126715000D01*
%TO.N,/Elec2*%
X137635000Y-125445000D02*
X138244521Y-126054521D01*
X140145479Y-126054521D02*
X145400000Y-120800000D01*
X138244521Y-126054521D02*
X140145479Y-126054521D01*
X145400000Y-91450000D02*
X143450000Y-89500000D01*
X145400000Y-120800000D02*
X145400000Y-91450000D01*
X143450000Y-89500000D02*
X143450000Y-82600000D01*
%TO.N,/Elec3*%
X138905000Y-125445000D02*
X139955000Y-125445000D01*
X139955000Y-125445000D02*
X145000000Y-120400000D01*
X145000000Y-120400000D02*
X145000000Y-91900000D01*
X145000000Y-91900000D02*
X142950000Y-89850000D01*
X142950000Y-89850000D02*
X142950000Y-83200000D01*
%TO.N,/Elec4*%
X140000000Y-124800000D02*
X144600000Y-120200000D01*
X142500000Y-90150000D02*
X142500000Y-82600000D01*
X144600000Y-92250000D02*
X142500000Y-90150000D01*
X138260000Y-124800000D02*
X140000000Y-124800000D01*
X137635000Y-124175000D02*
X138260000Y-124800000D01*
X144600000Y-120200000D02*
X144600000Y-92250000D01*
%TO.N,/Elec5*%
X138905000Y-124175000D02*
X140025000Y-124175000D01*
X140025000Y-124175000D02*
X144200000Y-120000000D01*
X144200000Y-92700000D02*
X142050000Y-90550000D01*
X142050000Y-90550000D02*
X142050000Y-83200000D01*
X144200000Y-120000000D02*
X144200000Y-92700000D01*
%TO.N,/Elec6*%
X141600000Y-90950000D02*
X141600000Y-82600000D01*
X138295479Y-123565479D02*
X140034521Y-123565479D01*
X143800000Y-119800000D02*
X143800000Y-93150000D01*
X143800000Y-93150000D02*
X141600000Y-90950000D01*
X137635000Y-122905000D02*
X138295479Y-123565479D01*
X140034521Y-123565479D02*
X143800000Y-119800000D01*
%TO.N,/Elec7*%
X143400000Y-119600000D02*
X143400000Y-93500000D01*
X141100000Y-91200000D02*
X141100000Y-83200000D01*
X138905000Y-122905000D02*
X140095000Y-122905000D01*
X140095000Y-122905000D02*
X143400000Y-119600000D01*
X143400000Y-93500000D02*
X141100000Y-91200000D01*
%TO.N,/Elec8*%
X140659501Y-83078259D02*
X140659501Y-82659501D01*
X140659501Y-91509501D02*
X140659501Y-83421741D01*
X140659501Y-82659501D02*
X140600000Y-82600000D01*
X139809521Y-122295479D02*
X143005000Y-119100000D01*
X138300479Y-122295479D02*
X139809521Y-122295479D01*
X137640000Y-121635000D02*
X138300479Y-122295479D01*
X140661000Y-83420242D02*
X140661000Y-83079758D01*
X143005000Y-119100000D02*
X143005000Y-93855000D01*
X140659501Y-83421741D02*
X140661000Y-83420242D01*
X143005000Y-93855000D02*
X140659501Y-91509501D01*
X140661000Y-83079758D02*
X140659501Y-83078259D01*
%TO.N,/Elec9*%
X138910000Y-121635000D02*
X139770000Y-121635000D01*
X139770000Y-121635000D02*
X142605000Y-118800000D01*
X142605000Y-118800000D02*
X142605000Y-94205000D01*
X140161407Y-83911407D02*
X140250000Y-83822814D01*
X140250000Y-83822814D02*
X140250000Y-83250000D01*
X140161407Y-91761407D02*
X140161407Y-83911407D01*
X142605000Y-94205000D02*
X140161407Y-91761407D01*
%TO.N,/Elec10*%
X139750000Y-92100000D02*
X139750000Y-82600000D01*
X142205000Y-118400000D02*
X142205000Y-94555000D01*
X139605000Y-121000000D02*
X142205000Y-118400000D01*
X138275000Y-121000000D02*
X139605000Y-121000000D01*
X137640000Y-120365000D02*
X138275000Y-121000000D01*
X142205000Y-94555000D02*
X139750000Y-92100000D01*
%TO.N,/Elec11*%
X139250000Y-92300000D02*
X139250000Y-83200000D01*
X139240000Y-120365000D02*
X141805000Y-117800000D01*
X141805000Y-117800000D02*
X141805000Y-94855000D01*
X141805000Y-94855000D02*
X139250000Y-92300000D01*
%TO.N,/Elec12*%
X138809501Y-82659501D02*
X138750000Y-82600000D01*
X138811000Y-83420242D02*
X138811000Y-83079758D01*
X141405000Y-95355000D02*
X138809501Y-92759501D01*
X138809501Y-83421741D02*
X138811000Y-83420242D01*
X138811000Y-83079758D02*
X138809501Y-83078259D01*
X138809501Y-83078259D02*
X138809501Y-82659501D01*
X138910000Y-119095000D02*
X141405000Y-116600000D01*
X141405000Y-116600000D02*
X141405000Y-95355000D01*
X138809501Y-92759501D02*
X138809501Y-83421741D01*
%TO.N,/Elec13*%
X138400000Y-83719076D02*
X138400000Y-83250000D01*
X141005000Y-95655000D02*
X138309538Y-92959538D01*
X138980000Y-117825000D02*
X141005000Y-115800000D01*
X138309538Y-92959538D02*
X138309538Y-83809538D01*
X138309538Y-83809538D02*
X138400000Y-83719076D01*
X141005000Y-115800000D02*
X141005000Y-95655000D01*
%TO.N,/Elec14*%
X137900000Y-93350000D02*
X137900000Y-82600000D01*
X139250000Y-116555000D02*
X140605000Y-115200000D01*
X140605000Y-115200000D02*
X140605000Y-96055000D01*
X140605000Y-96055000D02*
X137900000Y-93350000D01*
%TO.N,/Elec15*%
X137450000Y-93700000D02*
X137450000Y-83200000D01*
X140205000Y-96455000D02*
X137450000Y-93700000D01*
X140205000Y-113995000D02*
X140205000Y-96455000D01*
X138915000Y-115285000D02*
X140205000Y-113995000D01*
%TO.N,/Elec48*%
X136590499Y-86309501D02*
X137005000Y-85895000D01*
X136700000Y-94003706D02*
X136700000Y-87400000D01*
X135100000Y-115285000D02*
X134105000Y-114290000D01*
X134105000Y-114290000D02*
X134105000Y-96598707D01*
X137005000Y-85895000D02*
X137005000Y-82600000D01*
X136700000Y-87400000D02*
X136590499Y-87290499D01*
X136590499Y-87290499D02*
X136590499Y-86309501D01*
X134105000Y-96598707D02*
X136700000Y-94003706D01*
%TO.N,/Elec49*%
X136300000Y-85900000D02*
X136300000Y-93800000D01*
X136505000Y-83200000D02*
X136505000Y-85695000D01*
X133605000Y-96495000D02*
X133605000Y-115060000D01*
X133605000Y-115060000D02*
X135100000Y-116555000D01*
X136505000Y-85695000D02*
X136300000Y-85900000D01*
X136300000Y-93800000D02*
X133605000Y-96495000D01*
%TO.N,/Elec50*%
X136000000Y-85300000D02*
X136055000Y-85245000D01*
X133205000Y-115930000D02*
X133205000Y-96195000D01*
X133205000Y-96195000D02*
X136000000Y-93400000D01*
X136000000Y-93400000D02*
X136000000Y-85300000D01*
X135100000Y-117825000D02*
X133205000Y-115930000D01*
X136055000Y-85245000D02*
X136055000Y-82700000D01*
%TO.N,/Elec51*%
X135605000Y-93200000D02*
X132805000Y-96000000D01*
X135605000Y-83200000D02*
X135605000Y-93200000D01*
X132805000Y-116800000D02*
X135100000Y-119095000D01*
X132805000Y-96000000D02*
X132805000Y-116800000D01*
%TO.N,/Elec52*%
X135100000Y-120365000D02*
X132405000Y-117670000D01*
X132405000Y-95800000D02*
X135105000Y-93100000D01*
X135105000Y-93100000D02*
X135105000Y-82700000D01*
X132405000Y-117670000D02*
X132405000Y-95800000D01*
%TO.N,/Elec53*%
X134655000Y-84345000D02*
X134655000Y-83200000D01*
X132005000Y-118200000D02*
X132005000Y-95400000D01*
X136370000Y-120365000D02*
X135760479Y-120974521D01*
X134779521Y-120974521D02*
X132005000Y-118200000D01*
X134650000Y-92755000D02*
X134650000Y-84350000D01*
X132005000Y-95400000D02*
X134650000Y-92755000D01*
X134650000Y-84350000D02*
X134655000Y-84345000D01*
X135760479Y-120974521D02*
X134779521Y-120974521D01*
%TO.N,/Elec54*%
X135100000Y-121635000D02*
X134640000Y-121635000D01*
X131605000Y-95200000D02*
X134205000Y-92600000D01*
X134640000Y-121635000D02*
X131605000Y-118600000D01*
X134205000Y-92600000D02*
X134205000Y-82700000D01*
X131605000Y-118600000D02*
X131605000Y-95200000D01*
%TO.N,/Elec55*%
X131205000Y-119000000D02*
X131205000Y-95000000D01*
X134449521Y-122244521D02*
X131205000Y-119000000D01*
X135760479Y-122244521D02*
X134449521Y-122244521D01*
X136370000Y-121635000D02*
X135760479Y-122244521D01*
X131205000Y-95000000D02*
X133755000Y-92450000D01*
X133755000Y-92450000D02*
X133755000Y-83200000D01*
%TO.N,/Elec56*%
X134310000Y-122905000D02*
X135100000Y-122905000D01*
X130805000Y-119400000D02*
X134310000Y-122905000D01*
X133305000Y-82700000D02*
X133305000Y-92300000D01*
X133305000Y-92300000D02*
X130805000Y-94800000D01*
X130805000Y-94800000D02*
X130805000Y-119400000D01*
%TO.N,/Elec57*%
X130405000Y-119800000D02*
X134170479Y-123565479D01*
X132850000Y-92155000D02*
X130405000Y-94600000D01*
X132850000Y-83250000D02*
X132850000Y-92155000D01*
X130405000Y-94600000D02*
X130405000Y-119800000D01*
X134170479Y-123565479D02*
X135709521Y-123565479D01*
X135709521Y-123565479D02*
X136370000Y-122905000D01*
%TO.N,/Elec58*%
X130005000Y-94400000D02*
X132400000Y-92005000D01*
X133980000Y-124175000D02*
X130005000Y-120200000D01*
X132400000Y-92005000D02*
X132400000Y-82700000D01*
X135100000Y-124175000D02*
X133980000Y-124175000D01*
X130005000Y-120200000D02*
X130005000Y-94400000D01*
%TO.N,/Elec59*%
X135709521Y-124835479D02*
X136370000Y-124175000D01*
X133990479Y-124835479D02*
X135709521Y-124835479D01*
X129605000Y-94200000D02*
X129605000Y-120450000D01*
X131950000Y-91855000D02*
X129605000Y-94200000D01*
X129605000Y-120450000D02*
X133990479Y-124835479D01*
X131950000Y-83250000D02*
X131950000Y-91855000D01*
%TO.N,/Elec60*%
X133850000Y-125445000D02*
X129205000Y-120800000D01*
X129205000Y-120800000D02*
X129205000Y-94000000D01*
X135100000Y-125445000D02*
X133850000Y-125445000D01*
X129205000Y-94000000D02*
X131450000Y-91755000D01*
X131450000Y-91755000D02*
X131450000Y-82700000D01*
%TO.N,/Elec61*%
X131000000Y-83250000D02*
X131000000Y-91405000D01*
X133659521Y-126054521D02*
X135760479Y-126054521D01*
X128805000Y-93600000D02*
X128805000Y-121200000D01*
X131000000Y-91405000D02*
X128805000Y-93600000D01*
X128805000Y-121200000D02*
X133659521Y-126054521D01*
X135760479Y-126054521D02*
X136370000Y-125445000D01*
%TO.N,/Elec62*%
X128405000Y-93400000D02*
X130500000Y-91305000D01*
X135100000Y-126715000D02*
X133520000Y-126715000D01*
X133520000Y-126715000D02*
X128405000Y-121600000D01*
X128405000Y-121600000D02*
X128405000Y-93400000D01*
X130500000Y-91305000D02*
X130500000Y-82700000D01*
%TO.N,/Elec63*%
X135685000Y-127400000D02*
X133405000Y-127400000D01*
X128005000Y-122000000D02*
X128005000Y-93200000D01*
X128005000Y-93200000D02*
X130050000Y-91155000D01*
X133405000Y-127400000D02*
X128005000Y-122000000D01*
X130050000Y-91155000D02*
X130050000Y-83250000D01*
X136370000Y-126715000D02*
X135685000Y-127400000D01*
%TO.N,GND*%
X137000000Y-96000000D02*
X137000000Y-87000000D01*
%TD*%
%TA.AperFunction,Conductor*%
%TO.N,GND*%
G36*
X141490445Y-116979699D02*
G01*
X141533710Y-117022964D01*
X141544500Y-117067909D01*
X141544500Y-117651089D01*
X141525593Y-117709280D01*
X141515504Y-117721093D01*
X139415015Y-119821581D01*
X139360498Y-119849358D01*
X139300066Y-119839787D01*
X139290015Y-119833895D01*
X139257716Y-119812313D01*
X139219838Y-119764265D01*
X139217436Y-119703127D01*
X139251429Y-119652253D01*
X139257702Y-119647695D01*
X139322857Y-119604160D01*
X139414160Y-119512857D01*
X139485897Y-119405496D01*
X139535310Y-119286202D01*
X139560500Y-119159561D01*
X139560500Y-119030439D01*
X139535310Y-118903798D01*
X139535307Y-118903791D01*
X139534731Y-118900894D01*
X139541923Y-118840132D01*
X139561822Y-118811578D01*
X141375497Y-116997904D01*
X141430013Y-116970128D01*
X141490445Y-116979699D01*
G37*
%TD.AperFunction*%
%TA.AperFunction,Conductor*%
G36*
X136104082Y-116663076D02*
G01*
X136140944Y-116726924D01*
X136193076Y-116779056D01*
X136256924Y-116815918D01*
X136303683Y-116828447D01*
X136019934Y-117112195D01*
X136020421Y-117117135D01*
X136050612Y-117155432D01*
X136053014Y-117216570D01*
X136019022Y-117267444D01*
X136012733Y-117272013D01*
X135947143Y-117315839D01*
X135855839Y-117407143D01*
X135812315Y-117472282D01*
X135764265Y-117510161D01*
X135703127Y-117512563D01*
X135652253Y-117478570D01*
X135647685Y-117472282D01*
X135604160Y-117407143D01*
X135512857Y-117315840D01*
X135512856Y-117315839D01*
X135447716Y-117272314D01*
X135409838Y-117224266D01*
X135407436Y-117163128D01*
X135441428Y-117112254D01*
X135447702Y-117107695D01*
X135512857Y-117064160D01*
X135604160Y-116972857D01*
X135647987Y-116907265D01*
X135696034Y-116869388D01*
X135757172Y-116866986D01*
X135806484Y-116899934D01*
X135807802Y-116900064D01*
X136091552Y-116616314D01*
X136104082Y-116663076D01*
G37*
%TD.AperFunction*%
%TA.AperFunction,Conductor*%
G36*
X137374082Y-116663076D02*
G01*
X137410944Y-116726924D01*
X137463076Y-116779056D01*
X137526924Y-116815918D01*
X137573683Y-116828447D01*
X137289934Y-117112195D01*
X137290421Y-117117135D01*
X137320612Y-117155432D01*
X137323014Y-117216570D01*
X137289022Y-117267444D01*
X137282733Y-117272013D01*
X137217143Y-117315839D01*
X137125839Y-117407143D01*
X137082315Y-117472282D01*
X137034265Y-117510161D01*
X136973127Y-117512563D01*
X136922253Y-117478570D01*
X136917685Y-117472282D01*
X136874160Y-117407143D01*
X136782856Y-117315839D01*
X136717266Y-117272013D01*
X136679387Y-117223963D01*
X136676985Y-117162825D01*
X136709934Y-117113513D01*
X136710063Y-117112196D01*
X136426314Y-116828447D01*
X136473076Y-116815918D01*
X136536924Y-116779056D01*
X136589056Y-116726924D01*
X136625918Y-116663076D01*
X136638447Y-116616314D01*
X136922196Y-116900063D01*
X136926827Y-116899607D01*
X136965735Y-116868936D01*
X137026874Y-116866536D01*
X137076921Y-116899977D01*
X137077802Y-116900064D01*
X137361552Y-116616314D01*
X137374082Y-116663076D01*
G37*
%TD.AperFunction*%
%TA.AperFunction,Conductor*%
G36*
X138192196Y-116900063D02*
G01*
X138197135Y-116899577D01*
X138235434Y-116869387D01*
X138296572Y-116866985D01*
X138347445Y-116900979D01*
X138352013Y-116907266D01*
X138395839Y-116972856D01*
X138487143Y-117064160D01*
X138552282Y-117107685D01*
X138590161Y-117155735D01*
X138592563Y-117216873D01*
X138558570Y-117267747D01*
X138552282Y-117272315D01*
X138487143Y-117315839D01*
X138395839Y-117407143D01*
X138352315Y-117472282D01*
X138304265Y-117510161D01*
X138243127Y-117512563D01*
X138192253Y-117478570D01*
X138187685Y-117472282D01*
X138144160Y-117407143D01*
X138052856Y-117315839D01*
X137987266Y-117272013D01*
X137949387Y-117223963D01*
X137946985Y-117162825D01*
X137979934Y-117113513D01*
X137980063Y-117112196D01*
X137696314Y-116828447D01*
X137743076Y-116815918D01*
X137806924Y-116779056D01*
X137859056Y-116726924D01*
X137895918Y-116663076D01*
X137908447Y-116616314D01*
X138192196Y-116900063D01*
G37*
%TD.AperFunction*%
%TA.AperFunction,Conductor*%
G36*
X135760229Y-115599679D02*
G01*
X135764266Y-115599838D01*
X135785386Y-115616488D01*
X135807746Y-115631428D01*
X135812304Y-115637702D01*
X135848651Y-115692098D01*
X135855840Y-115702857D01*
X135947143Y-115794160D01*
X136012731Y-115837985D01*
X136050610Y-115886035D01*
X136053012Y-115947173D01*
X136020065Y-115996481D01*
X136019935Y-115997802D01*
X136303685Y-116281552D01*
X136256924Y-116294082D01*
X136193076Y-116330944D01*
X136140944Y-116383076D01*
X136104082Y-116446924D01*
X136091552Y-116493685D01*
X135807802Y-116209935D01*
X135802859Y-116210421D01*
X135764564Y-116240610D01*
X135703426Y-116243012D01*
X135652553Y-116209018D01*
X135647985Y-116202731D01*
X135604160Y-116137143D01*
X135512857Y-116045840D01*
X135493157Y-116032677D01*
X135447716Y-116002314D01*
X135409838Y-115954266D01*
X135407436Y-115893128D01*
X135441428Y-115842254D01*
X135447702Y-115837695D01*
X135512857Y-115794160D01*
X135604160Y-115702857D01*
X135647685Y-115637716D01*
X135650855Y-115635217D01*
X135652254Y-115631428D01*
X135674613Y-115616488D01*
X135695734Y-115599838D01*
X135699770Y-115599679D01*
X135703128Y-115597436D01*
X135730000Y-115598491D01*
X135756872Y-115597436D01*
X135760229Y-115599679D01*
G37*
%TD.AperFunction*%
%TA.AperFunction,Conductor*%
G36*
X137077747Y-115631430D02*
G01*
X137082315Y-115637718D01*
X137125839Y-115702856D01*
X137217143Y-115794160D01*
X137282731Y-115837985D01*
X137320610Y-115886035D01*
X137323012Y-115947173D01*
X137290065Y-115996481D01*
X137289935Y-115997802D01*
X137573685Y-116281552D01*
X137526924Y-116294082D01*
X137463076Y-116330944D01*
X137410944Y-116383076D01*
X137374082Y-116446924D01*
X137361552Y-116493685D01*
X137077802Y-116209935D01*
X137073168Y-116210391D01*
X137034264Y-116241061D01*
X136973126Y-116243463D01*
X136923077Y-116210021D01*
X136922195Y-116209934D01*
X136638447Y-116493683D01*
X136625918Y-116446924D01*
X136589056Y-116383076D01*
X136536924Y-116330944D01*
X136473076Y-116294082D01*
X136426314Y-116281552D01*
X136710064Y-115997802D01*
X136709577Y-115992861D01*
X136679388Y-115954565D01*
X136676986Y-115893427D01*
X136710979Y-115842553D01*
X136717240Y-115838003D01*
X136782857Y-115794160D01*
X136874160Y-115702857D01*
X136917685Y-115637718D01*
X136965735Y-115599839D01*
X137026873Y-115597437D01*
X137077747Y-115631430D01*
G37*
%TD.AperFunction*%
%TA.AperFunction,Conductor*%
G36*
X138181639Y-115733246D02*
G01*
X138206564Y-115737194D01*
X138210675Y-115741305D01*
X138216279Y-115742861D01*
X138231984Y-115762614D01*
X138249829Y-115780458D01*
X138252657Y-115788614D01*
X138254358Y-115790753D01*
X138254495Y-115793913D01*
X138258717Y-115806087D01*
X138261132Y-115818228D01*
X138261134Y-115818233D01*
X138283091Y-115851093D01*
X138305448Y-115884552D01*
X138371769Y-115928867D01*
X138383911Y-115931282D01*
X138391058Y-115935285D01*
X138399247Y-115935641D01*
X138417241Y-115949948D01*
X138437293Y-115961178D01*
X138440723Y-115968618D01*
X138447139Y-115973720D01*
X138453286Y-115995871D01*
X138462909Y-116016743D01*
X138461310Y-116024780D01*
X138463502Y-116032677D01*
X138456633Y-116048290D01*
X138450972Y-116076753D01*
X138442086Y-116089992D01*
X138438574Y-116094408D01*
X138395840Y-116137143D01*
X138349741Y-116206134D01*
X138347189Y-116209344D01*
X138324928Y-116224084D01*
X138303963Y-116240612D01*
X138299717Y-116240778D01*
X138296174Y-116243125D01*
X138269499Y-116241965D01*
X138242824Y-116243014D01*
X138239291Y-116240653D01*
X138235046Y-116240469D01*
X138214142Y-116223848D01*
X138193513Y-116210064D01*
X138192195Y-116209934D01*
X137908447Y-116493683D01*
X137895918Y-116446924D01*
X137859056Y-116383076D01*
X137806924Y-116330944D01*
X137743076Y-116294082D01*
X137696314Y-116281552D01*
X137980064Y-115997802D01*
X137979577Y-115992861D01*
X137968455Y-115978751D01*
X137949531Y-115954951D01*
X137949521Y-115954734D01*
X137949388Y-115954565D01*
X137948196Y-115924238D01*
X137946875Y-115893824D01*
X137946995Y-115893658D01*
X137946986Y-115893427D01*
X137980656Y-115842809D01*
X137983850Y-115840269D01*
X138052857Y-115794160D01*
X138095599Y-115751417D01*
X138100007Y-115747913D01*
X138123648Y-115739079D01*
X138146132Y-115727623D01*
X138151874Y-115728532D01*
X138157322Y-115726497D01*
X138181639Y-115733246D01*
G37*
%TD.AperFunction*%
%TA.AperFunction,Conductor*%
G36*
X138300229Y-110029679D02*
G01*
X138304266Y-110029838D01*
X138325386Y-110046488D01*
X138347746Y-110061428D01*
X138352304Y-110067702D01*
X138395840Y-110132857D01*
X138487143Y-110224160D01*
X138594504Y-110295897D01*
X138713798Y-110345310D01*
X138840439Y-110370500D01*
X138840440Y-110370500D01*
X138969560Y-110370500D01*
X138969561Y-110370500D01*
X139096202Y-110345310D01*
X139215496Y-110295897D01*
X139245498Y-110275849D01*
X139304386Y-110259241D01*
X139361790Y-110280418D01*
X139395783Y-110331292D01*
X139399500Y-110358165D01*
X139399500Y-111134521D01*
X139380593Y-111192712D01*
X139370504Y-111204525D01*
X138303575Y-112271453D01*
X138253334Y-112297050D01*
X138253541Y-112297821D01*
X138249918Y-112298791D01*
X138249058Y-112299230D01*
X138247368Y-112299475D01*
X138247275Y-112299500D01*
X138247273Y-112299500D01*
X138145413Y-112326793D01*
X138145412Y-112326793D01*
X138145410Y-112326794D01*
X138145409Y-112326794D01*
X138054089Y-112379518D01*
X137979518Y-112454089D01*
X137926794Y-112545409D01*
X137926794Y-112545410D01*
X137926793Y-112545412D01*
X137926793Y-112545413D01*
X137899500Y-112647273D01*
X137899500Y-112752727D01*
X137926793Y-112854587D01*
X137926794Y-112854589D01*
X137926794Y-112854590D01*
X137979516Y-112945907D01*
X137979517Y-112945909D01*
X137979520Y-112945913D01*
X137979521Y-112945914D01*
X137979522Y-112945918D01*
X137982764Y-112951532D01*
X137981723Y-112952132D01*
X137999945Y-113003589D01*
X137999979Y-113006181D01*
X137999979Y-114454042D01*
X137997510Y-114461639D01*
X137998760Y-114469529D01*
X137988235Y-114490184D01*
X137981072Y-114512233D01*
X137970984Y-114524044D01*
X137875409Y-114619618D01*
X137820894Y-114647395D01*
X137786093Y-114646712D01*
X137699563Y-114629500D01*
X137699561Y-114629500D01*
X137570439Y-114629500D01*
X137570436Y-114629500D01*
X137443798Y-114654690D01*
X137443796Y-114654690D01*
X137324506Y-114704101D01*
X137324505Y-114704101D01*
X137217143Y-114775839D01*
X137125839Y-114867143D01*
X137082315Y-114932281D01*
X137034265Y-114970160D01*
X136973126Y-114972562D01*
X136922253Y-114938568D01*
X136917685Y-114932281D01*
X136874160Y-114867143D01*
X136782856Y-114775839D01*
X136675493Y-114704101D01*
X136556202Y-114654690D01*
X136429563Y-114629500D01*
X136429561Y-114629500D01*
X136300439Y-114629500D01*
X136300436Y-114629500D01*
X136173798Y-114654690D01*
X136173796Y-114654690D01*
X136054506Y-114704101D01*
X136054505Y-114704101D01*
X135947143Y-114775839D01*
X135855839Y-114867143D01*
X135812315Y-114932282D01*
X135764265Y-114970161D01*
X135703127Y-114972563D01*
X135652253Y-114938570D01*
X135647685Y-114932282D01*
X135604160Y-114867143D01*
X135512856Y-114775839D01*
X135405493Y-114704101D01*
X135286202Y-114654690D01*
X135159563Y-114629500D01*
X135159561Y-114629500D01*
X135030439Y-114629500D01*
X135030434Y-114629500D01*
X134900893Y-114655267D01*
X134840132Y-114648075D01*
X134811576Y-114628173D01*
X134394496Y-114211093D01*
X134366719Y-114156576D01*
X134365500Y-114141089D01*
X134365500Y-110129454D01*
X134384407Y-110071263D01*
X134433907Y-110035299D01*
X134495093Y-110035299D01*
X134544593Y-110071263D01*
X134546799Y-110074429D01*
X134585840Y-110132857D01*
X134677143Y-110224160D01*
X134784504Y-110295897D01*
X134903798Y-110345310D01*
X135030439Y-110370500D01*
X135030440Y-110370500D01*
X135159560Y-110370500D01*
X135159561Y-110370500D01*
X135286202Y-110345310D01*
X135405496Y-110295897D01*
X135512857Y-110224160D01*
X135604160Y-110132857D01*
X135647685Y-110067716D01*
X135695734Y-110029838D01*
X135756872Y-110027436D01*
X135807746Y-110061428D01*
X135812304Y-110067702D01*
X135855840Y-110132857D01*
X135947143Y-110224160D01*
X136054504Y-110295897D01*
X136173798Y-110345310D01*
X136300439Y-110370500D01*
X136300440Y-110370500D01*
X136429560Y-110370500D01*
X136429561Y-110370500D01*
X136556202Y-110345310D01*
X136675496Y-110295897D01*
X136782857Y-110224160D01*
X136874160Y-110132857D01*
X136917685Y-110067716D01*
X136965734Y-110029838D01*
X137026872Y-110027436D01*
X137077746Y-110061428D01*
X137082304Y-110067702D01*
X137125840Y-110132857D01*
X137217143Y-110224160D01*
X137324504Y-110295897D01*
X137443798Y-110345310D01*
X137570439Y-110370500D01*
X137570440Y-110370500D01*
X137699560Y-110370500D01*
X137699561Y-110370500D01*
X137826202Y-110345310D01*
X137945496Y-110295897D01*
X138052857Y-110224160D01*
X138144160Y-110132857D01*
X138187685Y-110067716D01*
X138190855Y-110065217D01*
X138192254Y-110061428D01*
X138214613Y-110046488D01*
X138235734Y-110029838D01*
X138239770Y-110029679D01*
X138243128Y-110027436D01*
X138270000Y-110028491D01*
X138296872Y-110027436D01*
X138300229Y-110029679D01*
G37*
%TD.AperFunction*%
%TA.AperFunction,Conductor*%
G36*
X139890445Y-111631268D02*
G01*
X139933710Y-111674533D01*
X139944500Y-111719478D01*
X139944500Y-113846089D01*
X139925593Y-113904280D01*
X139915504Y-113916093D01*
X139231094Y-114600504D01*
X139176577Y-114628281D01*
X139161090Y-114629500D01*
X138699979Y-114629500D01*
X138641788Y-114610593D01*
X138605824Y-114561093D01*
X138600979Y-114530500D01*
X138600979Y-113004932D01*
X138618156Y-112952063D01*
X138617236Y-112951532D01*
X138619736Y-112947200D01*
X138619886Y-112946741D01*
X138620397Y-112946056D01*
X138673205Y-112854590D01*
X138673207Y-112854587D01*
X138700500Y-112752727D01*
X138700500Y-112752724D01*
X138702179Y-112746459D01*
X138703580Y-112746834D01*
X138726734Y-112698285D01*
X138728509Y-112696461D01*
X139775498Y-111649472D01*
X139830013Y-111621697D01*
X139890445Y-111631268D01*
G37*
%TD.AperFunction*%
%TA.AperFunction,Conductor*%
G36*
X136104082Y-99663076D02*
G01*
X136140944Y-99726924D01*
X136193076Y-99779056D01*
X136256924Y-99815918D01*
X136303683Y-99828447D01*
X136019934Y-100112195D01*
X136020421Y-100117135D01*
X136050612Y-100155432D01*
X136053014Y-100216570D01*
X136019022Y-100267444D01*
X136012733Y-100272013D01*
X135947143Y-100315839D01*
X135855839Y-100407143D01*
X135812315Y-100472282D01*
X135764265Y-100510161D01*
X135703127Y-100512563D01*
X135652253Y-100478570D01*
X135647685Y-100472282D01*
X135604160Y-100407143D01*
X135512857Y-100315840D01*
X135512856Y-100315839D01*
X135447716Y-100272314D01*
X135409838Y-100224266D01*
X135407436Y-100163128D01*
X135441428Y-100112254D01*
X135447702Y-100107695D01*
X135512857Y-100064160D01*
X135604160Y-99972857D01*
X135647987Y-99907265D01*
X135696034Y-99869388D01*
X135757172Y-99866986D01*
X135806484Y-99899934D01*
X135807802Y-99900064D01*
X136091552Y-99616314D01*
X136104082Y-99663076D01*
G37*
%TD.AperFunction*%
%TA.AperFunction,Conductor*%
G36*
X137374082Y-99663076D02*
G01*
X137410944Y-99726924D01*
X137463076Y-99779056D01*
X137526924Y-99815918D01*
X137573683Y-99828447D01*
X137289934Y-100112195D01*
X137290421Y-100117135D01*
X137320612Y-100155432D01*
X137323014Y-100216570D01*
X137289022Y-100267444D01*
X137282733Y-100272013D01*
X137217143Y-100315839D01*
X137125839Y-100407143D01*
X137082315Y-100472282D01*
X137034265Y-100510161D01*
X136973127Y-100512563D01*
X136922253Y-100478570D01*
X136917685Y-100472282D01*
X136874160Y-100407143D01*
X136782856Y-100315839D01*
X136717266Y-100272013D01*
X136679387Y-100223963D01*
X136676985Y-100162825D01*
X136709934Y-100113513D01*
X136710063Y-100112196D01*
X136426314Y-99828447D01*
X136473076Y-99815918D01*
X136536924Y-99779056D01*
X136589056Y-99726924D01*
X136625918Y-99663076D01*
X136638447Y-99616314D01*
X136922196Y-99900063D01*
X136926827Y-99899607D01*
X136965735Y-99868936D01*
X137026874Y-99866536D01*
X137076921Y-99899977D01*
X137077802Y-99900064D01*
X137361552Y-99616314D01*
X137374082Y-99663076D01*
G37*
%TD.AperFunction*%
%TA.AperFunction,Conductor*%
G36*
X138192196Y-99900063D02*
G01*
X138197135Y-99899577D01*
X138235434Y-99869387D01*
X138296572Y-99866985D01*
X138347445Y-99900979D01*
X138352013Y-99907266D01*
X138395839Y-99972856D01*
X138487143Y-100064160D01*
X138552282Y-100107685D01*
X138590161Y-100155735D01*
X138592563Y-100216873D01*
X138558570Y-100267747D01*
X138552282Y-100272315D01*
X138487143Y-100315839D01*
X138395839Y-100407143D01*
X138352315Y-100472282D01*
X138304265Y-100510161D01*
X138243127Y-100512563D01*
X138192253Y-100478570D01*
X138187685Y-100472282D01*
X138144160Y-100407143D01*
X138052856Y-100315839D01*
X137987266Y-100272013D01*
X137949387Y-100223963D01*
X137946985Y-100162825D01*
X137979934Y-100113513D01*
X137980063Y-100112196D01*
X137696314Y-99828447D01*
X137743076Y-99815918D01*
X137806924Y-99779056D01*
X137859056Y-99726924D01*
X137895918Y-99663076D01*
X137908447Y-99616314D01*
X138192196Y-99900063D01*
G37*
%TD.AperFunction*%
%TA.AperFunction,Conductor*%
G36*
X135807746Y-98631428D02*
G01*
X135812304Y-98637702D01*
X135850969Y-98695567D01*
X135855840Y-98702857D01*
X135947143Y-98794160D01*
X136012731Y-98837985D01*
X136050610Y-98886035D01*
X136053012Y-98947173D01*
X136020065Y-98996481D01*
X136019935Y-98997802D01*
X136303685Y-99281552D01*
X136256924Y-99294082D01*
X136193076Y-99330944D01*
X136140944Y-99383076D01*
X136104082Y-99446924D01*
X136091552Y-99493685D01*
X135807802Y-99209935D01*
X135802859Y-99210421D01*
X135764564Y-99240610D01*
X135703426Y-99243012D01*
X135652553Y-99209018D01*
X135647985Y-99202731D01*
X135604160Y-99137143D01*
X135512857Y-99045840D01*
X135493157Y-99032677D01*
X135447716Y-99002314D01*
X135409838Y-98954266D01*
X135407436Y-98893128D01*
X135441428Y-98842254D01*
X135447702Y-98837695D01*
X135512857Y-98794160D01*
X135604160Y-98702857D01*
X135647685Y-98637716D01*
X135695734Y-98599838D01*
X135756872Y-98597436D01*
X135807746Y-98631428D01*
G37*
%TD.AperFunction*%
%TA.AperFunction,Conductor*%
G36*
X137030229Y-98599679D02*
G01*
X137034266Y-98599838D01*
X137055386Y-98616488D01*
X137077746Y-98631428D01*
X137082304Y-98637702D01*
X137120969Y-98695567D01*
X137125840Y-98702857D01*
X137217143Y-98794160D01*
X137282731Y-98837985D01*
X137320610Y-98886035D01*
X137323012Y-98947173D01*
X137290065Y-98996481D01*
X137289935Y-98997802D01*
X137573685Y-99281552D01*
X137526924Y-99294082D01*
X137463076Y-99330944D01*
X137410944Y-99383076D01*
X137374082Y-99446924D01*
X137361552Y-99493685D01*
X137077802Y-99209935D01*
X137073168Y-99210391D01*
X137034264Y-99241061D01*
X136973126Y-99243463D01*
X136923077Y-99210021D01*
X136922195Y-99209934D01*
X136638447Y-99493683D01*
X136625918Y-99446924D01*
X136589056Y-99383076D01*
X136536924Y-99330944D01*
X136473076Y-99294082D01*
X136426314Y-99281552D01*
X136710064Y-98997802D01*
X136709577Y-98992861D01*
X136679388Y-98954565D01*
X136676986Y-98893427D01*
X136710979Y-98842553D01*
X136717240Y-98838003D01*
X136782857Y-98794160D01*
X136874160Y-98702857D01*
X136917685Y-98637716D01*
X136920855Y-98635217D01*
X136922254Y-98631428D01*
X136944613Y-98616488D01*
X136965734Y-98599838D01*
X136969770Y-98599679D01*
X136973128Y-98597436D01*
X137000000Y-98598491D01*
X137026872Y-98597436D01*
X137030229Y-98599679D01*
G37*
%TD.AperFunction*%
%TA.AperFunction,Conductor*%
G36*
X138181639Y-98733246D02*
G01*
X138206564Y-98737194D01*
X138210675Y-98741305D01*
X138216279Y-98742861D01*
X138231984Y-98762614D01*
X138249829Y-98780458D01*
X138252657Y-98788614D01*
X138254358Y-98790753D01*
X138254495Y-98793913D01*
X138258717Y-98806087D01*
X138261132Y-98818228D01*
X138261134Y-98818233D01*
X138292983Y-98865897D01*
X138305448Y-98884552D01*
X138371769Y-98928867D01*
X138383911Y-98931282D01*
X138391058Y-98935285D01*
X138399247Y-98935641D01*
X138417241Y-98949948D01*
X138437293Y-98961178D01*
X138440723Y-98968618D01*
X138447139Y-98973720D01*
X138453286Y-98995871D01*
X138462909Y-99016743D01*
X138461310Y-99024780D01*
X138463502Y-99032677D01*
X138456633Y-99048290D01*
X138450972Y-99076753D01*
X138442086Y-99089992D01*
X138438574Y-99094408D01*
X138395840Y-99137143D01*
X138349741Y-99206134D01*
X138347189Y-99209344D01*
X138324928Y-99224084D01*
X138303963Y-99240612D01*
X138299717Y-99240778D01*
X138296174Y-99243125D01*
X138269499Y-99241965D01*
X138242824Y-99243014D01*
X138239291Y-99240653D01*
X138235046Y-99240469D01*
X138214142Y-99223848D01*
X138193513Y-99210064D01*
X138192195Y-99209934D01*
X137908447Y-99493683D01*
X137895918Y-99446924D01*
X137859056Y-99383076D01*
X137806924Y-99330944D01*
X137743076Y-99294082D01*
X137696314Y-99281552D01*
X137980064Y-98997802D01*
X137979577Y-98992861D01*
X137968455Y-98978751D01*
X137949531Y-98954951D01*
X137949521Y-98954734D01*
X137949388Y-98954565D01*
X137948196Y-98924238D01*
X137946875Y-98893824D01*
X137946995Y-98893658D01*
X137946986Y-98893427D01*
X137980656Y-98842809D01*
X137983850Y-98840269D01*
X138052857Y-98794160D01*
X138095599Y-98751417D01*
X138100007Y-98747913D01*
X138123648Y-98739079D01*
X138146132Y-98727623D01*
X138151874Y-98728532D01*
X138157322Y-98726497D01*
X138181639Y-98733246D01*
G37*
%TD.AperFunction*%
%TA.AperFunction,Conductor*%
G36*
X137135445Y-86229700D02*
G01*
X137178710Y-86272965D01*
X137189500Y-86317910D01*
X137189500Y-93648183D01*
X137189500Y-93751817D01*
X137229159Y-93847561D01*
X139915505Y-96533907D01*
X139943281Y-96588422D01*
X139944500Y-96603909D01*
X139944500Y-97080522D01*
X139925593Y-97138713D01*
X139876093Y-97174677D01*
X139814907Y-97174677D01*
X139775498Y-97150527D01*
X139684511Y-97059540D01*
X139684508Y-97059538D01*
X139615992Y-97019980D01*
X139615988Y-97019978D01*
X139539564Y-96999500D01*
X139539562Y-96999500D01*
X138580438Y-96999500D01*
X138580435Y-96999500D01*
X138504011Y-97019978D01*
X138504007Y-97019980D01*
X138435489Y-97059539D01*
X137875409Y-97619618D01*
X137820893Y-97647395D01*
X137786093Y-97646712D01*
X137754478Y-97640423D01*
X137699563Y-97629500D01*
X137699561Y-97629500D01*
X137570439Y-97629500D01*
X137570436Y-97629500D01*
X137443798Y-97654690D01*
X137443796Y-97654690D01*
X137324506Y-97704101D01*
X137324505Y-97704101D01*
X137217143Y-97775839D01*
X137125839Y-97867143D01*
X137082315Y-97932282D01*
X137034265Y-97970161D01*
X136973127Y-97972563D01*
X136922253Y-97938570D01*
X136917685Y-97932282D01*
X136874160Y-97867143D01*
X136782856Y-97775839D01*
X136675493Y-97704101D01*
X136556202Y-97654690D01*
X136429563Y-97629500D01*
X136429561Y-97629500D01*
X136300439Y-97629500D01*
X136300436Y-97629500D01*
X136173798Y-97654690D01*
X136173796Y-97654690D01*
X136054506Y-97704101D01*
X136054505Y-97704101D01*
X135947143Y-97775839D01*
X135855839Y-97867143D01*
X135812315Y-97932282D01*
X135764265Y-97970161D01*
X135703127Y-97972563D01*
X135652253Y-97938570D01*
X135647685Y-97932282D01*
X135604160Y-97867143D01*
X135512856Y-97775839D01*
X135405493Y-97704101D01*
X135286202Y-97654690D01*
X135159563Y-97629500D01*
X135159561Y-97629500D01*
X135030439Y-97629500D01*
X135030436Y-97629500D01*
X134903798Y-97654690D01*
X134903796Y-97654690D01*
X134784506Y-97704101D01*
X134784505Y-97704101D01*
X134677143Y-97775839D01*
X134585839Y-97867143D01*
X134546815Y-97925547D01*
X134498765Y-97963426D01*
X134437627Y-97965828D01*
X134386753Y-97931835D01*
X134365576Y-97874431D01*
X134365500Y-97870545D01*
X134365500Y-96747616D01*
X134384407Y-96689425D01*
X134394490Y-96677618D01*
X136920842Y-94151267D01*
X136960500Y-94055523D01*
X136960500Y-93951889D01*
X136960500Y-87348183D01*
X136958070Y-87342316D01*
X136958069Y-87342313D01*
X136958069Y-87342312D01*
X136920842Y-87252439D01*
X136879995Y-87211591D01*
X136852218Y-87157074D01*
X136850999Y-87141588D01*
X136850999Y-86458411D01*
X136869906Y-86400220D01*
X136879995Y-86388407D01*
X137020496Y-86247906D01*
X137075013Y-86220129D01*
X137135445Y-86229700D01*
G37*
%TD.AperFunction*%
%TA.AperFunction,Conductor*%
G36*
X145003234Y-76614926D02*
G01*
X145228409Y-76629684D01*
X145241237Y-76631373D01*
X145459384Y-76674766D01*
X145471888Y-76678117D01*
X145682497Y-76749609D01*
X145694449Y-76754559D01*
X145893937Y-76852937D01*
X145905132Y-76859400D01*
X145974052Y-76905451D01*
X146090063Y-76982968D01*
X146100337Y-76990851D01*
X146267558Y-77137501D01*
X146276714Y-77146658D01*
X146423352Y-77313866D01*
X146431236Y-77324140D01*
X146554799Y-77509068D01*
X146561274Y-77520283D01*
X146659643Y-77719759D01*
X146664598Y-77731723D01*
X146736086Y-77942322D01*
X146739438Y-77954831D01*
X146782827Y-78172968D01*
X146784517Y-78185807D01*
X146799288Y-78411197D01*
X146799500Y-78417671D01*
X146799500Y-122875942D01*
X146780593Y-122934133D01*
X146770504Y-122945946D01*
X139945946Y-129770504D01*
X139891429Y-129798281D01*
X139875942Y-129799500D01*
X134124058Y-129799500D01*
X134065867Y-129780593D01*
X134054054Y-129770504D01*
X127229496Y-122945946D01*
X127201719Y-122891429D01*
X127200500Y-122875942D01*
X127200500Y-93148183D01*
X127744500Y-93148183D01*
X127744500Y-121948183D01*
X127744500Y-122051817D01*
X127784159Y-122147561D01*
X133184159Y-127547561D01*
X133184158Y-127547561D01*
X133257435Y-127620837D01*
X133257439Y-127620841D01*
X133353183Y-127660500D01*
X133353184Y-127660500D01*
X135736816Y-127660500D01*
X135736817Y-127660500D01*
X135832561Y-127620841D01*
X136081576Y-127371824D01*
X136136091Y-127344048D01*
X136170892Y-127344731D01*
X136173793Y-127345308D01*
X136173798Y-127345310D01*
X136300439Y-127370500D01*
X136300440Y-127370500D01*
X136429560Y-127370500D01*
X136429561Y-127370500D01*
X136556202Y-127345310D01*
X136675496Y-127295897D01*
X136782857Y-127224160D01*
X136874160Y-127132857D01*
X136917685Y-127067716D01*
X136965734Y-127029838D01*
X137026872Y-127027436D01*
X137077746Y-127061428D01*
X137082304Y-127067702D01*
X137125840Y-127132857D01*
X137217143Y-127224160D01*
X137324504Y-127295897D01*
X137443798Y-127345310D01*
X137570439Y-127370500D01*
X137570440Y-127370500D01*
X137699560Y-127370500D01*
X137699561Y-127370500D01*
X137826202Y-127345310D01*
X137826203Y-127345309D01*
X137830972Y-127344361D01*
X137831345Y-127346240D01*
X137884792Y-127347262D01*
X137922408Y-127370811D01*
X138172435Y-127620837D01*
X138372439Y-127820841D01*
X138468183Y-127860500D01*
X138468184Y-127860500D01*
X140251816Y-127860500D01*
X140251817Y-127860500D01*
X140347561Y-127820841D01*
X146420841Y-121747561D01*
X146438536Y-121704842D01*
X146460500Y-121651817D01*
X146460500Y-90498183D01*
X146460500Y-90498181D01*
X146420843Y-90402441D01*
X146420842Y-90402440D01*
X146420842Y-90402439D01*
X144739496Y-88721093D01*
X144711719Y-88666576D01*
X144710500Y-88651089D01*
X144710500Y-88315900D01*
X144729407Y-88257709D01*
X144778907Y-88221745D01*
X144840093Y-88221745D01*
X144879504Y-88245896D01*
X144879518Y-88245910D01*
X144879520Y-88245913D01*
X144954087Y-88320480D01*
X145045413Y-88373207D01*
X145147273Y-88400500D01*
X145147275Y-88400500D01*
X145252725Y-88400500D01*
X145252727Y-88400500D01*
X145354587Y-88373207D01*
X145445913Y-88320480D01*
X145520480Y-88245913D01*
X145573207Y-88154587D01*
X145600500Y-88052727D01*
X145600500Y-88052724D01*
X145602179Y-88046459D01*
X145603580Y-88046834D01*
X145626734Y-87998285D01*
X145628509Y-87996461D01*
X145840460Y-87784511D01*
X145858025Y-87754087D01*
X145880021Y-87715989D01*
X145900500Y-87639562D01*
X145900500Y-80660438D01*
X145880021Y-80584011D01*
X145840460Y-80515489D01*
X145784511Y-80459539D01*
X145784511Y-80459540D01*
X145084511Y-79759540D01*
X145084508Y-79759538D01*
X145015992Y-79719980D01*
X145015988Y-79719978D01*
X144939564Y-79699500D01*
X144939562Y-79699500D01*
X137865479Y-79699500D01*
X137807288Y-79680593D01*
X137795475Y-79670504D01*
X137249496Y-79124525D01*
X137245869Y-79117407D01*
X137239407Y-79112712D01*
X137232243Y-79090663D01*
X137221719Y-79070008D01*
X137220500Y-79054521D01*
X137220500Y-78978731D01*
X137239407Y-78920540D01*
X137281614Y-78887267D01*
X137417598Y-78830941D01*
X137589655Y-78715977D01*
X137735977Y-78569655D01*
X137850941Y-78397598D01*
X137930130Y-78206420D01*
X137970500Y-78003465D01*
X137970500Y-77796581D01*
X138410000Y-77796581D01*
X138410000Y-78003418D01*
X138450349Y-78206272D01*
X138529501Y-78397361D01*
X138618022Y-78529843D01*
X139016328Y-78131536D01*
X139059901Y-78207007D01*
X139152993Y-78300099D01*
X139228460Y-78343670D01*
X138830154Y-78741977D01*
X138962625Y-78830491D01*
X138962639Y-78830498D01*
X139153727Y-78909650D01*
X139356581Y-78949999D01*
X139356586Y-78950000D01*
X139563414Y-78950000D01*
X139563418Y-78949999D01*
X139766272Y-78909650D01*
X139957360Y-78830498D01*
X140089843Y-78741976D01*
X139691538Y-78343671D01*
X139767007Y-78300099D01*
X139860099Y-78207007D01*
X139903671Y-78131538D01*
X140301976Y-78529843D01*
X140390498Y-78397360D01*
X140469650Y-78206272D01*
X140509999Y-78003418D01*
X140510000Y-78003413D01*
X140510000Y-77796585D01*
X140509999Y-77796582D01*
X140509989Y-77796532D01*
X140949500Y-77796532D01*
X140949500Y-78003467D01*
X140989869Y-78206418D01*
X141069058Y-78397597D01*
X141184020Y-78569651D01*
X141184023Y-78569655D01*
X141330345Y-78715977D01*
X141502402Y-78830941D01*
X141693580Y-78910130D01*
X141896535Y-78950500D01*
X141896536Y-78950500D01*
X142103464Y-78950500D01*
X142103465Y-78950500D01*
X142306420Y-78910130D01*
X142497598Y-78830941D01*
X142669655Y-78715977D01*
X142815977Y-78569655D01*
X142930941Y-78397598D01*
X143010130Y-78206420D01*
X143050500Y-78003465D01*
X143050500Y-77796581D01*
X143490000Y-77796581D01*
X143490000Y-78003418D01*
X143530349Y-78206272D01*
X143609501Y-78397361D01*
X143698022Y-78529843D01*
X144096328Y-78131536D01*
X144139901Y-78207007D01*
X144232993Y-78300099D01*
X144308460Y-78343670D01*
X143910154Y-78741977D01*
X144042625Y-78830491D01*
X144042639Y-78830498D01*
X144233727Y-78909650D01*
X144436581Y-78949999D01*
X144436586Y-78950000D01*
X144643414Y-78950000D01*
X144643418Y-78949999D01*
X144846272Y-78909650D01*
X145037360Y-78830498D01*
X145169843Y-78741976D01*
X144771538Y-78343671D01*
X144847007Y-78300099D01*
X144940099Y-78207007D01*
X144983671Y-78131538D01*
X145381976Y-78529843D01*
X145470498Y-78397360D01*
X145549650Y-78206272D01*
X145589999Y-78003418D01*
X145590000Y-78003413D01*
X145590000Y-77796586D01*
X145589999Y-77796581D01*
X145549650Y-77593727D01*
X145470498Y-77402639D01*
X145470491Y-77402625D01*
X145381976Y-77270154D01*
X144983670Y-77668460D01*
X144940099Y-77592993D01*
X144847007Y-77499901D01*
X144771536Y-77456328D01*
X145169843Y-77058022D01*
X145037361Y-76969501D01*
X144846272Y-76890349D01*
X144643418Y-76850000D01*
X144436581Y-76850000D01*
X144233727Y-76890349D01*
X144042638Y-76969501D01*
X143910155Y-77058022D01*
X144308461Y-77456328D01*
X144232993Y-77499901D01*
X144139901Y-77592993D01*
X144096328Y-77668461D01*
X143698022Y-77270155D01*
X143609501Y-77402638D01*
X143530349Y-77593727D01*
X143490000Y-77796581D01*
X143050500Y-77796581D01*
X143050500Y-77796535D01*
X143010130Y-77593580D01*
X142930941Y-77402402D01*
X142815977Y-77230345D01*
X142669655Y-77084023D01*
X142669651Y-77084020D01*
X142497597Y-76969058D01*
X142306418Y-76889869D01*
X142103467Y-76849500D01*
X142103465Y-76849500D01*
X141896535Y-76849500D01*
X141896532Y-76849500D01*
X141693581Y-76889869D01*
X141502402Y-76969058D01*
X141330348Y-77084020D01*
X141184020Y-77230348D01*
X141069058Y-77402402D01*
X140989869Y-77593581D01*
X140949500Y-77796532D01*
X140509989Y-77796532D01*
X140469650Y-77593727D01*
X140390498Y-77402639D01*
X140390491Y-77402625D01*
X140301976Y-77270154D01*
X139903670Y-77668460D01*
X139860099Y-77592993D01*
X139767007Y-77499901D01*
X139691536Y-77456328D01*
X140089843Y-77058022D01*
X139957361Y-76969501D01*
X139766272Y-76890349D01*
X139563418Y-76850000D01*
X139356581Y-76850000D01*
X139153727Y-76890349D01*
X138962638Y-76969501D01*
X138830155Y-77058022D01*
X139228461Y-77456328D01*
X139152993Y-77499901D01*
X139059901Y-77592993D01*
X139016328Y-77668461D01*
X138618022Y-77270155D01*
X138529501Y-77402638D01*
X138450349Y-77593727D01*
X138410000Y-77796581D01*
X137970500Y-77796581D01*
X137970500Y-77796535D01*
X137930130Y-77593580D01*
X137850941Y-77402402D01*
X137735977Y-77230345D01*
X137589655Y-77084023D01*
X137589651Y-77084020D01*
X137417597Y-76969058D01*
X137226418Y-76889869D01*
X137023467Y-76849500D01*
X137023465Y-76849500D01*
X136816535Y-76849500D01*
X136816532Y-76849500D01*
X136613581Y-76889869D01*
X136422402Y-76969058D01*
X136250348Y-77084020D01*
X136104020Y-77230348D01*
X135989058Y-77402402D01*
X135909869Y-77593581D01*
X135869500Y-77796532D01*
X135869500Y-78003467D01*
X135909869Y-78206418D01*
X135989058Y-78397597D01*
X136104020Y-78569651D01*
X136104023Y-78569655D01*
X136250345Y-78715977D01*
X136422402Y-78830941D01*
X136558385Y-78887267D01*
X136604911Y-78927003D01*
X136619500Y-78978731D01*
X136619500Y-79259564D01*
X136639978Y-79335988D01*
X136639980Y-79335992D01*
X136679538Y-79404508D01*
X136679540Y-79404511D01*
X137515489Y-80240460D01*
X137515491Y-80240461D01*
X137515493Y-80240463D01*
X137584008Y-80280020D01*
X137584006Y-80280020D01*
X137584010Y-80280021D01*
X137584012Y-80280022D01*
X137660438Y-80300500D01*
X137739562Y-80300500D01*
X144734521Y-80300500D01*
X144792712Y-80319407D01*
X144804525Y-80329496D01*
X145270504Y-80795475D01*
X145298281Y-80849992D01*
X145299500Y-80865479D01*
X145299500Y-87434521D01*
X145297031Y-87442118D01*
X145298281Y-87450009D01*
X145287757Y-87470662D01*
X145280593Y-87492712D01*
X145270503Y-87504525D01*
X145203574Y-87571453D01*
X145153334Y-87597050D01*
X145153541Y-87597821D01*
X145149916Y-87598792D01*
X145149057Y-87599230D01*
X145147368Y-87599474D01*
X145072390Y-87619564D01*
X145045413Y-87626793D01*
X145045412Y-87626793D01*
X145045410Y-87626794D01*
X145045409Y-87626794D01*
X144954089Y-87679518D01*
X144954087Y-87679519D01*
X144954087Y-87679520D01*
X144879520Y-87754087D01*
X144879518Y-87754089D01*
X144879504Y-87754104D01*
X144824987Y-87781881D01*
X144764555Y-87772310D01*
X144721290Y-87729045D01*
X144710500Y-87684100D01*
X144710500Y-82946900D01*
X144729407Y-82888709D01*
X144739490Y-82876902D01*
X144770480Y-82845913D01*
X144823207Y-82754587D01*
X144850500Y-82652727D01*
X144850500Y-82547273D01*
X144823207Y-82445413D01*
X144821430Y-82442336D01*
X144770481Y-82354089D01*
X144770480Y-82354087D01*
X144695913Y-82279520D01*
X144604587Y-82226793D01*
X144502727Y-82199500D01*
X144397273Y-82199500D01*
X144295413Y-82226793D01*
X144295412Y-82226793D01*
X144295410Y-82226794D01*
X144295409Y-82226794D01*
X144204089Y-82279518D01*
X144129518Y-82354089D01*
X144076794Y-82445409D01*
X144076794Y-82445410D01*
X144076793Y-82445412D01*
X144076793Y-82445413D01*
X144049999Y-82545413D01*
X144049500Y-82547274D01*
X144049500Y-82652728D01*
X144055435Y-82674876D01*
X144053964Y-82702954D01*
X144053964Y-82731093D01*
X144052375Y-82733279D01*
X144052234Y-82735977D01*
X144034539Y-82757828D01*
X144018000Y-82780593D01*
X144015429Y-82781428D01*
X144013729Y-82783528D01*
X143959809Y-82799500D01*
X143940191Y-82799500D01*
X143882000Y-82780593D01*
X143846036Y-82731093D01*
X143844565Y-82674876D01*
X143850500Y-82652727D01*
X143850500Y-82547273D01*
X143823207Y-82445413D01*
X143821430Y-82442336D01*
X143770481Y-82354089D01*
X143770480Y-82354087D01*
X143695913Y-82279520D01*
X143604587Y-82226793D01*
X143502727Y-82199500D01*
X143397273Y-82199500D01*
X143295413Y-82226793D01*
X143295412Y-82226793D01*
X143295410Y-82226794D01*
X143295409Y-82226794D01*
X143204089Y-82279518D01*
X143129518Y-82354089D01*
X143076794Y-82445409D01*
X143076793Y-82445413D01*
X143070626Y-82468428D01*
X143037302Y-82519741D01*
X142980181Y-82541667D01*
X142921080Y-82525831D01*
X142882575Y-82478281D01*
X142879375Y-82468436D01*
X142873207Y-82445413D01*
X142871430Y-82442336D01*
X142820481Y-82354089D01*
X142820480Y-82354087D01*
X142745913Y-82279520D01*
X142654587Y-82226793D01*
X142552727Y-82199500D01*
X142447273Y-82199500D01*
X142345413Y-82226793D01*
X142345412Y-82226793D01*
X142345410Y-82226794D01*
X142345409Y-82226794D01*
X142254089Y-82279518D01*
X142179518Y-82354089D01*
X142135736Y-82429922D01*
X142090267Y-82470863D01*
X142029416Y-82477259D01*
X141976428Y-82446666D01*
X141964264Y-82429922D01*
X141920481Y-82354089D01*
X141920480Y-82354087D01*
X141845913Y-82279520D01*
X141754587Y-82226793D01*
X141652727Y-82199500D01*
X141547273Y-82199500D01*
X141445413Y-82226793D01*
X141445412Y-82226793D01*
X141445410Y-82226794D01*
X141445409Y-82226794D01*
X141354089Y-82279518D01*
X141279518Y-82354089D01*
X141226794Y-82445409D01*
X141226794Y-82445410D01*
X141226793Y-82445412D01*
X141226793Y-82445413D01*
X141199999Y-82545413D01*
X141199500Y-82547274D01*
X141199500Y-82652728D01*
X141205435Y-82674876D01*
X141203964Y-82702954D01*
X141203964Y-82731093D01*
X141202375Y-82733279D01*
X141202234Y-82735977D01*
X141184539Y-82757828D01*
X141168000Y-82780593D01*
X141165429Y-82781428D01*
X141163729Y-82783528D01*
X141109809Y-82799500D01*
X141090191Y-82799500D01*
X141032000Y-82780593D01*
X140996036Y-82731093D01*
X140994565Y-82674876D01*
X141000500Y-82652727D01*
X141000500Y-82547273D01*
X140973207Y-82445413D01*
X140971430Y-82442336D01*
X140920481Y-82354089D01*
X140920480Y-82354087D01*
X140845913Y-82279520D01*
X140754587Y-82226793D01*
X140652727Y-82199500D01*
X140547273Y-82199500D01*
X140445413Y-82226793D01*
X140445412Y-82226793D01*
X140445410Y-82226794D01*
X140445409Y-82226794D01*
X140354089Y-82279518D01*
X140279519Y-82354088D01*
X140260736Y-82386622D01*
X140215266Y-82427562D01*
X140154416Y-82433957D01*
X140101428Y-82403364D01*
X140089264Y-82386622D01*
X140085164Y-82379520D01*
X140070480Y-82354087D01*
X139995913Y-82279520D01*
X139904587Y-82226793D01*
X139802727Y-82199500D01*
X139697273Y-82199500D01*
X139595413Y-82226793D01*
X139595412Y-82226793D01*
X139595410Y-82226794D01*
X139595409Y-82226794D01*
X139504089Y-82279518D01*
X139429518Y-82354089D01*
X139376794Y-82445409D01*
X139376794Y-82445410D01*
X139376793Y-82445412D01*
X139376793Y-82445413D01*
X139349999Y-82545413D01*
X139349500Y-82547274D01*
X139349500Y-82652728D01*
X139355435Y-82674876D01*
X139353964Y-82702954D01*
X139353964Y-82731093D01*
X139352375Y-82733279D01*
X139352234Y-82735977D01*
X139334539Y-82757828D01*
X139318000Y-82780593D01*
X139315429Y-82781428D01*
X139313729Y-82783528D01*
X139259809Y-82799500D01*
X139240191Y-82799500D01*
X139182000Y-82780593D01*
X139146036Y-82731093D01*
X139144565Y-82674876D01*
X139150500Y-82652727D01*
X139150500Y-82547273D01*
X139123207Y-82445413D01*
X139121430Y-82442336D01*
X139070481Y-82354089D01*
X139070480Y-82354087D01*
X138995913Y-82279520D01*
X138904587Y-82226793D01*
X138802727Y-82199500D01*
X138697273Y-82199500D01*
X138595413Y-82226793D01*
X138595412Y-82226793D01*
X138595410Y-82226794D01*
X138595409Y-82226794D01*
X138504089Y-82279518D01*
X138429519Y-82354088D01*
X138410736Y-82386622D01*
X138365266Y-82427562D01*
X138304416Y-82433957D01*
X138251428Y-82403364D01*
X138239264Y-82386622D01*
X138235164Y-82379520D01*
X138220480Y-82354087D01*
X138145913Y-82279520D01*
X138054587Y-82226793D01*
X137952727Y-82199500D01*
X137847273Y-82199500D01*
X137745413Y-82226793D01*
X137745412Y-82226793D01*
X137745410Y-82226794D01*
X137745409Y-82226794D01*
X137654089Y-82279518D01*
X137579518Y-82354089D01*
X137538236Y-82425592D01*
X137492767Y-82466533D01*
X137431916Y-82472929D01*
X137378928Y-82442336D01*
X137366764Y-82425592D01*
X137325481Y-82354089D01*
X137325480Y-82354087D01*
X137250913Y-82279520D01*
X137159587Y-82226793D01*
X137057727Y-82199500D01*
X136952273Y-82199500D01*
X136850413Y-82226793D01*
X136850412Y-82226793D01*
X136850410Y-82226794D01*
X136850409Y-82226794D01*
X136759089Y-82279518D01*
X136684518Y-82354089D01*
X136631794Y-82445409D01*
X136631791Y-82445416D01*
X136610816Y-82523697D01*
X136577492Y-82575011D01*
X136520371Y-82596937D01*
X136461270Y-82581101D01*
X136429453Y-82547573D01*
X136428207Y-82545416D01*
X136428207Y-82545413D01*
X136375480Y-82454087D01*
X136300913Y-82379520D01*
X136256865Y-82354089D01*
X136209589Y-82326794D01*
X136209588Y-82326793D01*
X136209587Y-82326793D01*
X136107727Y-82299500D01*
X136002273Y-82299500D01*
X135900413Y-82326793D01*
X135900412Y-82326793D01*
X135900410Y-82326794D01*
X135900409Y-82326794D01*
X135809089Y-82379518D01*
X135734518Y-82454089D01*
X135681794Y-82545409D01*
X135681793Y-82545413D01*
X135675626Y-82568428D01*
X135642302Y-82619741D01*
X135585181Y-82641667D01*
X135526080Y-82625831D01*
X135487575Y-82578281D01*
X135484375Y-82568436D01*
X135478207Y-82545413D01*
X135476044Y-82541667D01*
X135425481Y-82454089D01*
X135425480Y-82454087D01*
X135350913Y-82379520D01*
X135306865Y-82354089D01*
X135259589Y-82326794D01*
X135259588Y-82326793D01*
X135259587Y-82326793D01*
X135157727Y-82299500D01*
X135052273Y-82299500D01*
X134950413Y-82326793D01*
X134950412Y-82326793D01*
X134950410Y-82326794D01*
X134950409Y-82326794D01*
X134859089Y-82379518D01*
X134784518Y-82454089D01*
X134740736Y-82529922D01*
X134695267Y-82570863D01*
X134634416Y-82577259D01*
X134581428Y-82546666D01*
X134569264Y-82529922D01*
X134525481Y-82454089D01*
X134525480Y-82454087D01*
X134450913Y-82379520D01*
X134406865Y-82354089D01*
X134359589Y-82326794D01*
X134359588Y-82326793D01*
X134359587Y-82326793D01*
X134257727Y-82299500D01*
X134152273Y-82299500D01*
X134050413Y-82326793D01*
X134050412Y-82326793D01*
X134050410Y-82326794D01*
X134050409Y-82326794D01*
X133959089Y-82379518D01*
X133884518Y-82454089D01*
X133840736Y-82529922D01*
X133795267Y-82570863D01*
X133734416Y-82577259D01*
X133681428Y-82546666D01*
X133669264Y-82529922D01*
X133625481Y-82454089D01*
X133625480Y-82454087D01*
X133550913Y-82379520D01*
X133506865Y-82354089D01*
X133459589Y-82326794D01*
X133459588Y-82326793D01*
X133459587Y-82326793D01*
X133357727Y-82299500D01*
X133252273Y-82299500D01*
X133150413Y-82326793D01*
X133150412Y-82326793D01*
X133150410Y-82326794D01*
X133150409Y-82326794D01*
X133059089Y-82379518D01*
X132984518Y-82454089D01*
X132938236Y-82534252D01*
X132892766Y-82575193D01*
X132831916Y-82581589D01*
X132778928Y-82550996D01*
X132766764Y-82534252D01*
X132720481Y-82454089D01*
X132720480Y-82454087D01*
X132645913Y-82379520D01*
X132601865Y-82354089D01*
X132554589Y-82326794D01*
X132554588Y-82326793D01*
X132554587Y-82326793D01*
X132452727Y-82299500D01*
X132347273Y-82299500D01*
X132245413Y-82326793D01*
X132245412Y-82326793D01*
X132245410Y-82326794D01*
X132245409Y-82326794D01*
X132154089Y-82379518D01*
X132079518Y-82454089D01*
X132026794Y-82545409D01*
X132026793Y-82545413D01*
X132020626Y-82568428D01*
X131987302Y-82619741D01*
X131930181Y-82641667D01*
X131871080Y-82625831D01*
X131832575Y-82578281D01*
X131829375Y-82568436D01*
X131823207Y-82545413D01*
X131821044Y-82541667D01*
X131770481Y-82454089D01*
X131770480Y-82454087D01*
X131695913Y-82379520D01*
X131651865Y-82354089D01*
X131604589Y-82326794D01*
X131604588Y-82326793D01*
X131604587Y-82326793D01*
X131502727Y-82299500D01*
X131397273Y-82299500D01*
X131295413Y-82326793D01*
X131295412Y-82326793D01*
X131295410Y-82326794D01*
X131295409Y-82326794D01*
X131204089Y-82379518D01*
X131129518Y-82454089D01*
X131076794Y-82545409D01*
X131076793Y-82545413D01*
X131070626Y-82568428D01*
X131037302Y-82619741D01*
X130980181Y-82641667D01*
X130921080Y-82625831D01*
X130882575Y-82578281D01*
X130879375Y-82568436D01*
X130873207Y-82545413D01*
X130871044Y-82541667D01*
X130820481Y-82454089D01*
X130820480Y-82454087D01*
X130745913Y-82379520D01*
X130701865Y-82354089D01*
X130654589Y-82326794D01*
X130654588Y-82326793D01*
X130654587Y-82326793D01*
X130552727Y-82299500D01*
X130447273Y-82299500D01*
X130345413Y-82326793D01*
X130345412Y-82326793D01*
X130345410Y-82326794D01*
X130345409Y-82326794D01*
X130254089Y-82379518D01*
X130179518Y-82454089D01*
X130126794Y-82545409D01*
X130126794Y-82545410D01*
X130126793Y-82545412D01*
X130126793Y-82545413D01*
X130105246Y-82625831D01*
X130099500Y-82647274D01*
X130099500Y-82750500D01*
X130080593Y-82808691D01*
X130031093Y-82844655D01*
X130000500Y-82849500D01*
X129997273Y-82849500D01*
X129895413Y-82876793D01*
X129895412Y-82876793D01*
X129895410Y-82876794D01*
X129895409Y-82876794D01*
X129804089Y-82929518D01*
X129729518Y-83004089D01*
X129676794Y-83095409D01*
X129676794Y-83095410D01*
X129676793Y-83095412D01*
X129676793Y-83095413D01*
X129649500Y-83197273D01*
X129649500Y-83302727D01*
X129676793Y-83404587D01*
X129676794Y-83404589D01*
X129676794Y-83404590D01*
X129729518Y-83495910D01*
X129729520Y-83495913D01*
X129760505Y-83526898D01*
X129788281Y-83581413D01*
X129789500Y-83596900D01*
X129789500Y-91006089D01*
X129770593Y-91064280D01*
X129760504Y-91076093D01*
X127857439Y-92979159D01*
X127857438Y-92979158D01*
X127784162Y-93052435D01*
X127784160Y-93052437D01*
X127784159Y-93052439D01*
X127744500Y-93148183D01*
X127200500Y-93148183D01*
X127200500Y-78417452D01*
X127200712Y-78410978D01*
X127203116Y-78374298D01*
X127215469Y-78185798D01*
X127217158Y-78172968D01*
X127233066Y-78092993D01*
X127260551Y-77954811D01*
X127263895Y-77942333D01*
X127335388Y-77731716D01*
X127340343Y-77719754D01*
X127438713Y-77520276D01*
X127445188Y-77509061D01*
X127568761Y-77324119D01*
X127576630Y-77313866D01*
X127723287Y-77146634D01*
X127732420Y-77137501D01*
X127899672Y-76990824D01*
X127909908Y-76982970D01*
X128094866Y-76859383D01*
X128106043Y-76852929D01*
X128126900Y-76842644D01*
X128187448Y-76833866D01*
X128241596Y-76862355D01*
X128268658Y-76917231D01*
X128262150Y-76969313D01*
X128261132Y-76971769D01*
X128249501Y-77030241D01*
X128249500Y-77030253D01*
X128249500Y-78769746D01*
X128249501Y-78769758D01*
X128261132Y-78828227D01*
X128261134Y-78828233D01*
X128262944Y-78830942D01*
X128305448Y-78894552D01*
X128371769Y-78938867D01*
X128416231Y-78947711D01*
X128430241Y-78950498D01*
X128430246Y-78950498D01*
X128430252Y-78950500D01*
X128430253Y-78950500D01*
X130169747Y-78950500D01*
X130169748Y-78950500D01*
X130228231Y-78938867D01*
X130294552Y-78894552D01*
X130338867Y-78828231D01*
X130350500Y-78769748D01*
X130350500Y-77796532D01*
X130789500Y-77796532D01*
X130789500Y-78003467D01*
X130829869Y-78206418D01*
X130909058Y-78397597D01*
X131024020Y-78569651D01*
X131024023Y-78569655D01*
X131170345Y-78715977D01*
X131342402Y-78830941D01*
X131533580Y-78910130D01*
X131736535Y-78950500D01*
X131736536Y-78950500D01*
X131943464Y-78950500D01*
X131943465Y-78950500D01*
X132146420Y-78910130D01*
X132337598Y-78830941D01*
X132509655Y-78715977D01*
X132655977Y-78569655D01*
X132770941Y-78397598D01*
X132850130Y-78206420D01*
X132890500Y-78003465D01*
X132890500Y-77796535D01*
X132890499Y-77796532D01*
X133329500Y-77796532D01*
X133329500Y-78003467D01*
X133369869Y-78206418D01*
X133449058Y-78397597D01*
X133564020Y-78569651D01*
X133564023Y-78569655D01*
X133710345Y-78715977D01*
X133882402Y-78830941D01*
X134073580Y-78910130D01*
X134276535Y-78950500D01*
X134276536Y-78950500D01*
X134483464Y-78950500D01*
X134483465Y-78950500D01*
X134686420Y-78910130D01*
X134877598Y-78830941D01*
X135049655Y-78715977D01*
X135195977Y-78569655D01*
X135310941Y-78397598D01*
X135390130Y-78206420D01*
X135430500Y-78003465D01*
X135430500Y-77796535D01*
X135390130Y-77593580D01*
X135310941Y-77402402D01*
X135195977Y-77230345D01*
X135049655Y-77084023D01*
X135049651Y-77084020D01*
X134877597Y-76969058D01*
X134686418Y-76889869D01*
X134483467Y-76849500D01*
X134483465Y-76849500D01*
X134276535Y-76849500D01*
X134276532Y-76849500D01*
X134073581Y-76889869D01*
X133882402Y-76969058D01*
X133710348Y-77084020D01*
X133564020Y-77230348D01*
X133449058Y-77402402D01*
X133369869Y-77593581D01*
X133329500Y-77796532D01*
X132890499Y-77796532D01*
X132850130Y-77593580D01*
X132770941Y-77402402D01*
X132655977Y-77230345D01*
X132509655Y-77084023D01*
X132509651Y-77084020D01*
X132337597Y-76969058D01*
X132146418Y-76889869D01*
X131943467Y-76849500D01*
X131943465Y-76849500D01*
X131736535Y-76849500D01*
X131736532Y-76849500D01*
X131533581Y-76889869D01*
X131342402Y-76969058D01*
X131170348Y-77084020D01*
X131024020Y-77230348D01*
X130909058Y-77402402D01*
X130829869Y-77593581D01*
X130789500Y-77796532D01*
X130350500Y-77796532D01*
X130350500Y-77030252D01*
X130338867Y-76971769D01*
X130294552Y-76905448D01*
X130294548Y-76905445D01*
X130228233Y-76861134D01*
X130228231Y-76861133D01*
X130228228Y-76861132D01*
X130228227Y-76861132D01*
X130169758Y-76849501D01*
X130169748Y-76849500D01*
X128667260Y-76849500D01*
X128646983Y-76842911D01*
X128625813Y-76840406D01*
X128618518Y-76833663D01*
X128609069Y-76830593D01*
X128596536Y-76813343D01*
X128580883Y-76798874D01*
X128578944Y-76789130D01*
X128573105Y-76781093D01*
X128573105Y-76759772D01*
X128568946Y-76738864D01*
X128573105Y-76729842D01*
X128573105Y-76719907D01*
X128585637Y-76702657D01*
X128594562Y-76683299D01*
X128603228Y-76678445D01*
X128609069Y-76670407D01*
X128647944Y-76653402D01*
X128758764Y-76631358D01*
X128771586Y-76629670D01*
X128996552Y-76614926D01*
X129003027Y-76614714D01*
X129039882Y-76614714D01*
X144960118Y-76614714D01*
X144996759Y-76614714D01*
X145003234Y-76614926D01*
G37*
%TD.AperFunction*%
%TD*%
M02*
