%TF.GenerationSoftware,KiCad,Pcbnew,9.0.3*%
%TF.CreationDate,2025-09-24T11:10:32-04:00*%
%TF.ProjectId,eib-64-cnt-a64,6569622d-3634-42d6-936e-742d6136342e,A*%
%TF.SameCoordinates,Original*%
%TF.FileFunction,Soldermask,Top*%
%TF.FilePolarity,Negative*%
%FSLAX46Y46*%
G04 Gerber Fmt 4.6, Leading zero omitted, Abs format (unit mm)*
G04 Created by KiCad (PCBNEW 9.0.3) date 2025-09-24 11:10:32*
%MOMM*%
%LPD*%
G01*
G04 APERTURE LIST*
G04 Aperture macros list*
%AMRoundRect*
0 Rectangle with rounded corners*
0 $1 Rounding radius*
0 $2 $3 $4 $5 $6 $7 $8 $9 X,Y pos of 4 corners*
0 Add a 4 corners polygon primitive as box body*
4,1,4,$2,$3,$4,$5,$6,$7,$8,$9,$2,$3,0*
0 Add four circle primitives for the rounded corners*
1,1,$1+$1,$2,$3*
1,1,$1+$1,$4,$5*
1,1,$1+$1,$6,$7*
1,1,$1+$1,$8,$9*
0 Add four rect primitives between the rounded corners*
20,1,$1+$1,$2,$3,$4,$5,0*
20,1,$1+$1,$4,$5,$6,$7,0*
20,1,$1+$1,$6,$7,$8,$9,0*
20,1,$1+$1,$8,$9,$2,$3,0*%
G04 Aperture macros list end*
%ADD10C,0.000000*%
%ADD11R,1.700000X1.700000*%
%ADD12C,1.700000*%
%ADD13RoundRect,0.010000X0.090000X0.340000X-0.090000X0.340000X-0.090000X-0.340000X0.090000X-0.340000X0*%
%ADD14R,0.910000X0.910000*%
%ADD15C,0.910000*%
G04 APERTURE END LIST*
D10*
%TO.C,G\u002A\u002A\u002A*%
G36*
X144786704Y-121616321D02*
G01*
X144835428Y-121636737D01*
X144878702Y-121663592D01*
X144916329Y-121696716D01*
X144948116Y-121735942D01*
X144971467Y-121776116D01*
X144980532Y-121795258D01*
X144987634Y-121812412D01*
X144993042Y-121829075D01*
X144997025Y-121846741D01*
X144999852Y-121866906D01*
X145001792Y-121891064D01*
X145003113Y-121920712D01*
X145004085Y-121957344D01*
X145004088Y-121957484D01*
X145006194Y-122054001D01*
X145201911Y-122054094D01*
X145248050Y-122054136D01*
X145286489Y-122054232D01*
X145318012Y-122054412D01*
X145343402Y-122054705D01*
X145363445Y-122055140D01*
X145378925Y-122055747D01*
X145390626Y-122056556D01*
X145399332Y-122057595D01*
X145405829Y-122058893D01*
X145410899Y-122060481D01*
X145414598Y-122062045D01*
X145434146Y-122074372D01*
X145449988Y-122090639D01*
X145458875Y-122106248D01*
X145462335Y-122122187D01*
X145462982Y-122141456D01*
X145460957Y-122160249D01*
X145456403Y-122174760D01*
X145456323Y-122174913D01*
X145445461Y-122192036D01*
X145432850Y-122203740D01*
X145418841Y-122211481D01*
X145416378Y-122212491D01*
X145413334Y-122213411D01*
X145409318Y-122214243D01*
X145403936Y-122214994D01*
X145396797Y-122215666D01*
X145387509Y-122216265D01*
X145375680Y-122216794D01*
X145360918Y-122217258D01*
X145342831Y-122217662D01*
X145321026Y-122218010D01*
X145295113Y-122218305D01*
X145264699Y-122218553D01*
X145229392Y-122218758D01*
X145188799Y-122218924D01*
X145142530Y-122219056D01*
X145090191Y-122219157D01*
X145031391Y-122219233D01*
X144965739Y-122219287D01*
X144892841Y-122219324D01*
X144812306Y-122219349D01*
X144723742Y-122219365D01*
X144708496Y-122219367D01*
X144479255Y-122219398D01*
X144015122Y-122219460D01*
X143996533Y-122210461D01*
X143979050Y-122198444D01*
X143966556Y-122184263D01*
X143955169Y-122167064D01*
X143954223Y-122054001D01*
X144117903Y-122054001D01*
X144479255Y-122054001D01*
X144840607Y-122054001D01*
X144838813Y-121968090D01*
X144838102Y-121938094D01*
X144837290Y-121915138D01*
X144836227Y-121897774D01*
X144834764Y-121884557D01*
X144832754Y-121874040D01*
X144830046Y-121864779D01*
X144827448Y-121857736D01*
X144813761Y-121832615D01*
X144793934Y-121809200D01*
X144770278Y-121789965D01*
X144757007Y-121782325D01*
X144735794Y-121771873D01*
X144484926Y-121770685D01*
X144432471Y-121770443D01*
X144387801Y-121770269D01*
X144350220Y-121770180D01*
X144319027Y-121770198D01*
X144293523Y-121770340D01*
X144273011Y-121770627D01*
X144256791Y-121771078D01*
X144244164Y-121771712D01*
X144234432Y-121772549D01*
X144226896Y-121773609D01*
X144220857Y-121774911D01*
X144215617Y-121776475D01*
X144210476Y-121778319D01*
X144210427Y-121778337D01*
X144184111Y-121792133D01*
X144159865Y-121812174D01*
X144140133Y-121836230D01*
X144132508Y-121849501D01*
X144128570Y-121857755D01*
X144125594Y-121865204D01*
X144123426Y-121873203D01*
X144121907Y-121883108D01*
X144120881Y-121896273D01*
X144120190Y-121914054D01*
X144119679Y-121937806D01*
X144119265Y-121963848D01*
X144117903Y-122054001D01*
X143954223Y-122054001D01*
X143953950Y-122021437D01*
X143953652Y-121981754D01*
X143953520Y-121949487D01*
X143953596Y-121923570D01*
X143953923Y-121902937D01*
X143954545Y-121886521D01*
X143955505Y-121873254D01*
X143956845Y-121862069D01*
X143958610Y-121851900D01*
X143960840Y-121841680D01*
X143961279Y-121839821D01*
X143976958Y-121791598D01*
X143999876Y-121747342D01*
X144029479Y-121707661D01*
X144065215Y-121673161D01*
X144106530Y-121644448D01*
X144152872Y-121622131D01*
X144163053Y-121618362D01*
X144196993Y-121606415D01*
X144477000Y-121606415D01*
X144757007Y-121606415D01*
X144786704Y-121616321D01*
G37*
G36*
X144770318Y-116035054D02*
G01*
X144816313Y-116047115D01*
X144859741Y-116066980D01*
X144899941Y-116094428D01*
X144927868Y-116120162D01*
X144959485Y-116157458D01*
X144983163Y-116195686D01*
X144999444Y-116236096D01*
X145008869Y-116279937D01*
X145011697Y-116313864D01*
X145012013Y-116334801D01*
X145011525Y-116354721D01*
X145010340Y-116370743D01*
X145009360Y-116377183D01*
X144995402Y-116425077D01*
X144974839Y-116469622D01*
X144948369Y-116509732D01*
X144916690Y-116544317D01*
X144886577Y-116568298D01*
X144859191Y-116583827D01*
X144833881Y-116591488D01*
X144809801Y-116591381D01*
X144786102Y-116583602D01*
X144780341Y-116580584D01*
X144763021Y-116566500D01*
X144750776Y-116547660D01*
X144743770Y-116525902D01*
X144742167Y-116503061D01*
X144746132Y-116480973D01*
X144755827Y-116461473D01*
X144768520Y-116448437D01*
X144796814Y-116425404D01*
X144817834Y-116403796D01*
X144832360Y-116382355D01*
X144841168Y-116359827D01*
X144845038Y-116334957D01*
X144845376Y-116324471D01*
X144841459Y-116292425D01*
X144829907Y-116263085D01*
X144811421Y-116237564D01*
X144786699Y-116216976D01*
X144772980Y-116209249D01*
X144744046Y-116199582D01*
X144713606Y-116197362D01*
X144683448Y-116202276D01*
X144655360Y-116214009D01*
X144631130Y-116232247D01*
X144628847Y-116234564D01*
X144622281Y-116242334D01*
X144611588Y-116256083D01*
X144597493Y-116274831D01*
X144580722Y-116297596D01*
X144562001Y-116323396D01*
X144542054Y-116351252D01*
X144530021Y-116368229D01*
X144509568Y-116396956D01*
X144489779Y-116424296D01*
X144471403Y-116449247D01*
X144455190Y-116470808D01*
X144441890Y-116487977D01*
X144432251Y-116499753D01*
X144428664Y-116503685D01*
X144393177Y-116533426D01*
X144353491Y-116556421D01*
X144310692Y-116572562D01*
X144265869Y-116581740D01*
X144220106Y-116583848D01*
X144174491Y-116578778D01*
X144130110Y-116566422D01*
X144088050Y-116546671D01*
X144075315Y-116538809D01*
X144037687Y-116509189D01*
X144004829Y-116473381D01*
X143977894Y-116432876D01*
X143958037Y-116389161D01*
X143956931Y-116385987D01*
X143950652Y-116360918D01*
X143946592Y-116330751D01*
X143944877Y-116298536D01*
X143945635Y-116267320D01*
X143948993Y-116240150D01*
X143950551Y-116233147D01*
X143962124Y-116197871D01*
X143978215Y-116163817D01*
X143997948Y-116131942D01*
X144020447Y-116103202D01*
X144044834Y-116078555D01*
X144070235Y-116058956D01*
X144095772Y-116045364D01*
X144120568Y-116038733D01*
X144129113Y-116038235D01*
X144152807Y-116041948D01*
X144173210Y-116052019D01*
X144189750Y-116067077D01*
X144201851Y-116085750D01*
X144208940Y-116106666D01*
X144210445Y-116128453D01*
X144205790Y-116149739D01*
X144194402Y-116169153D01*
X144187061Y-116176793D01*
X144165390Y-116196457D01*
X144149164Y-116211606D01*
X144137452Y-116223321D01*
X144129323Y-116232686D01*
X144123844Y-116240783D01*
X144120085Y-116248694D01*
X144117116Y-116257502D01*
X144116842Y-116258421D01*
X144110589Y-116291513D01*
X144112286Y-116321863D01*
X144120184Y-116346117D01*
X144137016Y-116373251D01*
X144158788Y-116394369D01*
X144184306Y-116409032D01*
X144212379Y-116416797D01*
X144241815Y-116417224D01*
X144271422Y-116409873D01*
X144281064Y-116405646D01*
X144288217Y-116402029D01*
X144294655Y-116398255D01*
X144300936Y-116393637D01*
X144307618Y-116387494D01*
X144315259Y-116379141D01*
X144324417Y-116367894D01*
X144335650Y-116353069D01*
X144349516Y-116333982D01*
X144366572Y-116309949D01*
X144387378Y-116280286D01*
X144411323Y-116245984D01*
X144430482Y-116218822D01*
X144449310Y-116192695D01*
X144466920Y-116168792D01*
X144482428Y-116148299D01*
X144494946Y-116132403D01*
X144503589Y-116122291D01*
X144503774Y-116122095D01*
X144539492Y-116090176D01*
X144579796Y-116065119D01*
X144625060Y-116046733D01*
X144673270Y-116035225D01*
X144722417Y-116031017D01*
X144770318Y-116035054D01*
G37*
G36*
X144604956Y-122381218D02*
G01*
X144642428Y-122381524D01*
X144674248Y-122382115D01*
X144701123Y-122383027D01*
X144723760Y-122384296D01*
X144742868Y-122385960D01*
X144759154Y-122388056D01*
X144773327Y-122390620D01*
X144786094Y-122393691D01*
X144798162Y-122397304D01*
X144806645Y-122400201D01*
X144847198Y-122418550D01*
X144886277Y-122443660D01*
X144922021Y-122474007D01*
X144952567Y-122508067D01*
X144970494Y-122534366D01*
X144991807Y-122578493D01*
X145005774Y-122625888D01*
X145012158Y-122675191D01*
X145010724Y-122725043D01*
X145007399Y-122747654D01*
X144994225Y-122796149D01*
X144973735Y-122841110D01*
X144946603Y-122881850D01*
X144913508Y-122917681D01*
X144875125Y-122947918D01*
X144832129Y-122971873D01*
X144785199Y-122988859D01*
X144765237Y-122993598D01*
X144757378Y-122995018D01*
X144748471Y-122996221D01*
X144737828Y-122997221D01*
X144724761Y-122998029D01*
X144708583Y-122998658D01*
X144688604Y-122999122D01*
X144664137Y-122999432D01*
X144634495Y-122999601D01*
X144598988Y-122999643D01*
X144556929Y-122999569D01*
X144507631Y-122999393D01*
X144461964Y-122999184D01*
X144218206Y-122997992D01*
X144192751Y-122997868D01*
X144158811Y-122986357D01*
X144121643Y-122971433D01*
X144088539Y-122952761D01*
X144057032Y-122928775D01*
X144033190Y-122906580D01*
X144000292Y-122868791D01*
X143975253Y-122828488D01*
X143957808Y-122785028D01*
X143947694Y-122737767D01*
X143944661Y-122690380D01*
X144112163Y-122690380D01*
X144112453Y-122710602D01*
X144113694Y-122725183D01*
X144116403Y-122736956D01*
X144121099Y-122748754D01*
X144123936Y-122754699D01*
X144142302Y-122782592D01*
X144167491Y-122805636D01*
X144194363Y-122821325D01*
X144218206Y-122832505D01*
X144477000Y-122832505D01*
X144530496Y-122832493D01*
X144576187Y-122832446D01*
X144614753Y-122832343D01*
X144646872Y-122832165D01*
X144673226Y-122831892D01*
X144694494Y-122831504D01*
X144711356Y-122830981D01*
X144724492Y-122830304D01*
X144734581Y-122829452D01*
X144742303Y-122828407D01*
X144748338Y-122827148D01*
X144753366Y-122825655D01*
X144756887Y-122824370D01*
X144775245Y-122814613D01*
X144794888Y-122799893D01*
X144812952Y-122782651D01*
X144826572Y-122765325D01*
X144826943Y-122764731D01*
X144839442Y-122736917D01*
X144845500Y-122705759D01*
X144844995Y-122673575D01*
X144837806Y-122642684D01*
X144833852Y-122632961D01*
X144815695Y-122602923D01*
X144791755Y-122578944D01*
X144762622Y-122561480D01*
X144728881Y-122550986D01*
X144727590Y-122550744D01*
X144717822Y-122549759D01*
X144700578Y-122548891D01*
X144676865Y-122548140D01*
X144647692Y-122547507D01*
X144614068Y-122546994D01*
X144576999Y-122546601D01*
X144537494Y-122546330D01*
X144496562Y-122546181D01*
X144455210Y-122546155D01*
X144414446Y-122546253D01*
X144375278Y-122546477D01*
X144338715Y-122546827D01*
X144305765Y-122547305D01*
X144277435Y-122547911D01*
X144254734Y-122548646D01*
X144238669Y-122549511D01*
X144231509Y-122550258D01*
X144197214Y-122559913D01*
X144167301Y-122576763D01*
X144142207Y-122600490D01*
X144123462Y-122628670D01*
X144117990Y-122640089D01*
X144114618Y-122650752D01*
X144112857Y-122663337D01*
X144112217Y-122680523D01*
X144112163Y-122690380D01*
X143944661Y-122690380D01*
X143944637Y-122689998D01*
X143948600Y-122639590D01*
X143960331Y-122591691D01*
X143979315Y-122546973D01*
X144005037Y-122506108D01*
X144036982Y-122469766D01*
X144074634Y-122438621D01*
X144117478Y-122413344D01*
X144164998Y-122394606D01*
X144173051Y-122392245D01*
X144180209Y-122390327D01*
X144187363Y-122388693D01*
X144195246Y-122387315D01*
X144204589Y-122386165D01*
X144216126Y-122385215D01*
X144230589Y-122384438D01*
X144248709Y-122383805D01*
X144271220Y-122383289D01*
X144298854Y-122382862D01*
X144332343Y-122382495D01*
X144372419Y-122382161D01*
X144419816Y-122381832D01*
X144451545Y-122381629D01*
X144510222Y-122381307D01*
X144561123Y-122381157D01*
X144604956Y-122381218D01*
G37*
G36*
X144546682Y-117447279D02*
G01*
X144614467Y-117447499D01*
X144615218Y-117447502D01*
X144952836Y-117448740D01*
X144973328Y-117461467D01*
X144993426Y-117478432D01*
X145006535Y-117500125D01*
X145012650Y-117525275D01*
X145011198Y-117547646D01*
X145002782Y-117569751D01*
X144988657Y-117589205D01*
X144972000Y-117602537D01*
X144952163Y-117614198D01*
X144585184Y-117616320D01*
X144218206Y-117618441D01*
X144196993Y-117629751D01*
X144171993Y-117646810D01*
X144149855Y-117668951D01*
X144133096Y-117693555D01*
X144130377Y-117699049D01*
X144127104Y-117706710D01*
X144124623Y-117714427D01*
X144122800Y-117723540D01*
X144121501Y-117735388D01*
X144120594Y-117751312D01*
X144119943Y-117772650D01*
X144119415Y-117800742D01*
X144119265Y-117810415D01*
X144117903Y-117900569D01*
X144532912Y-117900662D01*
X144601629Y-117900684D01*
X144662377Y-117900722D01*
X144715670Y-117900786D01*
X144762023Y-117900886D01*
X144801951Y-117901031D01*
X144835970Y-117901230D01*
X144864595Y-117901493D01*
X144888341Y-117901829D01*
X144907722Y-117902248D01*
X144923255Y-117902758D01*
X144935453Y-117903370D01*
X144944833Y-117904092D01*
X144951909Y-117904935D01*
X144957197Y-117905907D01*
X144961211Y-117907017D01*
X144964468Y-117908276D01*
X144965066Y-117908543D01*
X144986504Y-117922582D01*
X145001938Y-117941717D01*
X145010783Y-117964514D01*
X145012452Y-117989537D01*
X145007491Y-118012337D01*
X144995481Y-118034536D01*
X144977051Y-118051322D01*
X144964890Y-118058009D01*
X144962440Y-118059023D01*
X144959428Y-118059946D01*
X144955462Y-118060782D01*
X144950151Y-118061536D01*
X144943103Y-118062211D01*
X144933927Y-118062813D01*
X144922230Y-118063344D01*
X144907622Y-118063811D01*
X144889711Y-118064217D01*
X144868104Y-118064566D01*
X144842411Y-118064864D01*
X144812239Y-118065113D01*
X144777198Y-118065319D01*
X144736894Y-118065487D01*
X144690938Y-118065619D01*
X144638937Y-118065722D01*
X144580499Y-118065798D01*
X144515232Y-118065853D01*
X144442746Y-118065890D01*
X144362649Y-118065915D01*
X144274548Y-118065931D01*
X144253071Y-118065934D01*
X144162313Y-118065940D01*
X144079658Y-118065930D01*
X144004723Y-118065900D01*
X143937127Y-118065847D01*
X143876486Y-118065768D01*
X143822419Y-118065658D01*
X143774542Y-118065515D01*
X143732475Y-118065335D01*
X143695834Y-118065114D01*
X143664237Y-118064850D01*
X143637302Y-118064538D01*
X143614646Y-118064175D01*
X143595888Y-118063758D01*
X143580645Y-118063283D01*
X143568533Y-118062746D01*
X143559173Y-118062145D01*
X143552180Y-118061475D01*
X143547172Y-118060733D01*
X143543768Y-118059917D01*
X143542505Y-118059461D01*
X143520552Y-118046300D01*
X143504683Y-118028666D01*
X143494900Y-118007997D01*
X143491201Y-117985733D01*
X143493588Y-117963314D01*
X143502059Y-117942180D01*
X143516616Y-117923769D01*
X143537258Y-117909522D01*
X143542505Y-117907135D01*
X143547265Y-117905567D01*
X143553868Y-117904263D01*
X143563064Y-117903201D01*
X143575606Y-117902356D01*
X143592243Y-117901706D01*
X143613726Y-117901228D01*
X143640805Y-117900899D01*
X143674231Y-117900695D01*
X143714754Y-117900593D01*
X143755249Y-117900569D01*
X143952277Y-117900569D01*
X143954081Y-117797688D01*
X143954794Y-117763165D01*
X143955639Y-117735929D01*
X143956705Y-117714780D01*
X143958080Y-117698519D01*
X143959854Y-117685948D01*
X143962116Y-117675866D01*
X143963429Y-117671473D01*
X143983356Y-117622648D01*
X144009759Y-117578725D01*
X144042123Y-117540240D01*
X144079932Y-117507728D01*
X144122672Y-117481725D01*
X144161381Y-117465519D01*
X144171697Y-117462194D01*
X144182328Y-117459274D01*
X144193856Y-117456733D01*
X144206865Y-117454550D01*
X144221937Y-117452701D01*
X144239656Y-117451163D01*
X144260606Y-117449913D01*
X144285369Y-117448928D01*
X144314528Y-117448184D01*
X144348667Y-117447659D01*
X144388369Y-117447329D01*
X144434217Y-117447171D01*
X144486793Y-117447163D01*
X144546682Y-117447279D01*
G37*
G36*
X144759585Y-120089792D02*
G01*
X144802890Y-120089910D01*
X144839887Y-120090146D01*
X144871121Y-120090536D01*
X144897137Y-120091115D01*
X144918478Y-120091918D01*
X144935689Y-120092982D01*
X144949315Y-120094341D01*
X144959899Y-120096032D01*
X144967986Y-120098091D01*
X144974121Y-120100553D01*
X144978848Y-120103453D01*
X144982711Y-120106828D01*
X144986255Y-120110712D01*
X144990023Y-120115142D01*
X144991023Y-120116293D01*
X145005487Y-120138550D01*
X145012271Y-120162512D01*
X145011569Y-120186722D01*
X145003577Y-120209725D01*
X144988490Y-120230066D01*
X144974227Y-120241668D01*
X144957033Y-120253049D01*
X144589741Y-120255171D01*
X144525508Y-120255544D01*
X144469204Y-120255886D01*
X144420276Y-120256213D01*
X144378166Y-120256540D01*
X144342322Y-120256885D01*
X144312186Y-120257262D01*
X144287204Y-120257689D01*
X144266821Y-120258181D01*
X144250482Y-120258755D01*
X144237632Y-120259427D01*
X144227714Y-120260212D01*
X144220175Y-120261129D01*
X144214460Y-120262191D01*
X144210012Y-120263416D01*
X144206277Y-120264820D01*
X144202699Y-120266419D01*
X144202612Y-120266459D01*
X144176932Y-120282297D01*
X144153723Y-120304019D01*
X144135640Y-120329025D01*
X144132382Y-120335178D01*
X144128482Y-120343365D01*
X144125536Y-120350792D01*
X144123389Y-120358813D01*
X144121884Y-120368782D01*
X144120866Y-120382054D01*
X144120179Y-120399983D01*
X144119667Y-120423923D01*
X144119266Y-120449205D01*
X144117904Y-120539297D01*
X144535034Y-120540419D01*
X144603755Y-120540606D01*
X144664505Y-120540784D01*
X144717799Y-120540964D01*
X144764151Y-120541159D01*
X144804076Y-120541379D01*
X144838087Y-120541637D01*
X144866699Y-120541945D01*
X144890427Y-120542314D01*
X144909785Y-120542757D01*
X144925287Y-120543284D01*
X144937447Y-120543909D01*
X144946780Y-120544643D01*
X144953801Y-120545497D01*
X144959023Y-120546483D01*
X144962961Y-120547614D01*
X144966129Y-120548901D01*
X144969042Y-120550356D01*
X144969133Y-120550404D01*
X144989370Y-120565410D01*
X145003599Y-120585230D01*
X145011303Y-120608209D01*
X145011964Y-120632691D01*
X145005068Y-120657021D01*
X145003464Y-120660332D01*
X144993330Y-120675937D01*
X144981098Y-120688955D01*
X144976942Y-120692151D01*
X144961272Y-120702757D01*
X144486795Y-120703872D01*
X144413229Y-120704042D01*
X144347668Y-120704184D01*
X144289632Y-120704290D01*
X144238642Y-120704352D01*
X144194217Y-120704363D01*
X144155877Y-120704316D01*
X144123143Y-120704204D01*
X144095534Y-120704019D01*
X144072572Y-120703753D01*
X144053774Y-120703400D01*
X144038663Y-120702953D01*
X144026758Y-120702403D01*
X144017579Y-120701743D01*
X144010645Y-120700967D01*
X144005478Y-120700066D01*
X144001597Y-120699034D01*
X143998523Y-120697863D01*
X143995775Y-120696546D01*
X143995415Y-120696364D01*
X143982475Y-120687255D01*
X143970246Y-120674730D01*
X143966841Y-120670112D01*
X143955169Y-120652483D01*
X143953932Y-120507919D01*
X143953644Y-120463432D01*
X143953693Y-120426356D01*
X143954207Y-120395621D01*
X143955312Y-120370154D01*
X143957134Y-120348886D01*
X143959798Y-120330745D01*
X143963431Y-120314659D01*
X143968160Y-120299558D01*
X143974110Y-120284370D01*
X143981408Y-120268025D01*
X143982454Y-120265777D01*
X144007559Y-120221726D01*
X144039123Y-120183127D01*
X144076902Y-120150227D01*
X144120654Y-120123271D01*
X144124870Y-120121148D01*
X144135464Y-120115891D01*
X144145073Y-120111258D01*
X144154279Y-120107210D01*
X144163663Y-120103707D01*
X144173807Y-120100709D01*
X144185292Y-120098178D01*
X144198699Y-120096073D01*
X144214611Y-120094355D01*
X144233609Y-120092984D01*
X144256273Y-120091922D01*
X144283186Y-120091128D01*
X144314930Y-120090563D01*
X144352085Y-120090187D01*
X144395233Y-120089962D01*
X144444956Y-120089846D01*
X144501835Y-120089802D01*
X144566452Y-120089789D01*
X144586381Y-120089786D01*
X144651875Y-120089765D01*
X144709428Y-120089755D01*
X144759585Y-120089792D01*
G37*
G36*
X144035624Y-116650374D02*
G01*
X144041106Y-116651824D01*
X144054259Y-116655580D01*
X144074625Y-116661506D01*
X144101749Y-116669467D01*
X144135174Y-116679328D01*
X144174445Y-116690952D01*
X144219104Y-116704205D01*
X144268697Y-116718951D01*
X144322767Y-116735054D01*
X144380857Y-116752378D01*
X144442511Y-116770789D01*
X144507274Y-116790151D01*
X144574689Y-116810327D01*
X144644300Y-116831183D01*
X144659429Y-116835719D01*
X144744864Y-116861331D01*
X144822573Y-116884631D01*
X144892951Y-116905757D01*
X144956394Y-116924850D01*
X145013299Y-116942049D01*
X145064062Y-116957492D01*
X145109079Y-116971320D01*
X145148746Y-116983672D01*
X145183459Y-116994688D01*
X145213615Y-117004506D01*
X145239609Y-117013267D01*
X145261838Y-117021108D01*
X145280698Y-117028171D01*
X145296585Y-117034595D01*
X145309895Y-117040518D01*
X145321025Y-117046080D01*
X145330370Y-117051421D01*
X145338328Y-117056680D01*
X145345293Y-117061997D01*
X145351662Y-117067510D01*
X145357831Y-117073360D01*
X145364197Y-117079685D01*
X145370446Y-117085923D01*
X145404680Y-117125112D01*
X145430905Y-117167023D01*
X145449214Y-117211865D01*
X145459704Y-117259844D01*
X145462168Y-117287524D01*
X145462909Y-117307544D01*
X145462702Y-117321465D01*
X145461230Y-117331649D01*
X145458175Y-117340458D01*
X145453908Y-117348981D01*
X145439007Y-117368178D01*
X145418777Y-117381970D01*
X145395134Y-117389369D01*
X145374526Y-117389969D01*
X145349955Y-117383836D01*
X145328766Y-117371363D01*
X145312866Y-117353774D01*
X145309853Y-117348548D01*
X145305522Y-117336804D01*
X145301410Y-117319974D01*
X145298321Y-117301436D01*
X145298027Y-117298990D01*
X145290340Y-117262773D01*
X145276281Y-117231564D01*
X145256155Y-117205843D01*
X145230268Y-117186093D01*
X145224148Y-117182758D01*
X145216190Y-117179538D01*
X145201180Y-117174273D01*
X145180203Y-117167314D01*
X145154348Y-117159011D01*
X145124700Y-117149715D01*
X145092348Y-117139776D01*
X145068871Y-117132683D01*
X144930102Y-117091052D01*
X144485061Y-117224239D01*
X144422151Y-117243021D01*
X144362043Y-117260879D01*
X144305228Y-117277670D01*
X144252196Y-117293253D01*
X144203439Y-117307488D01*
X144159446Y-117320230D01*
X144120710Y-117331341D01*
X144087720Y-117340677D01*
X144060968Y-117348097D01*
X144040944Y-117353459D01*
X144028139Y-117356622D01*
X144023329Y-117357476D01*
X143999971Y-117353527D01*
X143978247Y-117342387D01*
X143960412Y-117325327D01*
X143956504Y-117319792D01*
X143949624Y-117308084D01*
X143946060Y-117298033D01*
X143944995Y-117286098D01*
X143945444Y-117271854D01*
X143946925Y-117254951D01*
X143949942Y-117243141D01*
X143955599Y-117233047D01*
X143959987Y-117227307D01*
X143970596Y-117215890D01*
X143981733Y-117206402D01*
X143985317Y-117204036D01*
X143991264Y-117201716D01*
X144004698Y-117197192D01*
X144024969Y-117190666D01*
X144051426Y-117182338D01*
X144083419Y-117172409D01*
X144120297Y-117161079D01*
X144161409Y-117148549D01*
X144206106Y-117135020D01*
X144253737Y-117120692D01*
X144303651Y-117105766D01*
X144313663Y-117102782D01*
X144363665Y-117087867D01*
X144411309Y-117073610D01*
X144455969Y-117060200D01*
X144497018Y-117047829D01*
X144533832Y-117036685D01*
X144565785Y-117026959D01*
X144592250Y-117018841D01*
X144612602Y-117012522D01*
X144626216Y-117008190D01*
X144632464Y-117006036D01*
X144632795Y-117005869D01*
X144629318Y-117004242D01*
X144618314Y-117000373D01*
X144600386Y-116994451D01*
X144576136Y-116986664D01*
X144546167Y-116977201D01*
X144511081Y-116966250D01*
X144471481Y-116954000D01*
X144427969Y-116940640D01*
X144381149Y-116926359D01*
X144331621Y-116911345D01*
X144312601Y-116905603D01*
X144261756Y-116890211D01*
X144213058Y-116875357D01*
X144167150Y-116861242D01*
X144124673Y-116848070D01*
X144086270Y-116836043D01*
X144052584Y-116825365D01*
X144024257Y-116816236D01*
X144001930Y-116808861D01*
X143986247Y-116803442D01*
X143977850Y-116800182D01*
X143976815Y-116799634D01*
X143962482Y-116785283D01*
X143951880Y-116765588D01*
X143945654Y-116743105D01*
X143944449Y-116720395D01*
X143948911Y-116700015D01*
X143950710Y-116696111D01*
X143963853Y-116678391D01*
X143982136Y-116663896D01*
X144003170Y-116653915D01*
X144024563Y-116649734D01*
X144035624Y-116650374D01*
G37*
G36*
X144313986Y-118991454D02*
G01*
X144351806Y-118991719D01*
X144361707Y-118991800D01*
X144507333Y-118993019D01*
X144524532Y-119004406D01*
X144540240Y-119018647D01*
X144550730Y-119034383D01*
X144552847Y-119038991D01*
X144554603Y-119043810D01*
X144556031Y-119049636D01*
X144557167Y-119057264D01*
X144558042Y-119067491D01*
X144558692Y-119081112D01*
X144559149Y-119098923D01*
X144559448Y-119121720D01*
X144559621Y-119150299D01*
X144559704Y-119185456D01*
X144559728Y-119227985D01*
X144559729Y-119247086D01*
X144559729Y-119441199D01*
X144652004Y-119439842D01*
X144682317Y-119439367D01*
X144705477Y-119438851D01*
X144722813Y-119438145D01*
X144735656Y-119437098D01*
X144745336Y-119435559D01*
X144753184Y-119433378D01*
X144760531Y-119430405D01*
X144768294Y-119426691D01*
X144795312Y-119408980D01*
X144817399Y-119385570D01*
X144833893Y-119357931D01*
X144844131Y-119327536D01*
X144847452Y-119295856D01*
X144843192Y-119264362D01*
X144842490Y-119261848D01*
X144838879Y-119250491D01*
X144834702Y-119240592D01*
X144828861Y-119230290D01*
X144820256Y-119217724D01*
X144807790Y-119201032D01*
X144802601Y-119194248D01*
X144788080Y-119169633D01*
X144781945Y-119144779D01*
X144784215Y-119120025D01*
X144794910Y-119095708D01*
X144796970Y-119092522D01*
X144814737Y-119072690D01*
X144835717Y-119060234D01*
X144858745Y-119055263D01*
X144882658Y-119057884D01*
X144906293Y-119068204D01*
X144922936Y-119080878D01*
X144951218Y-119112408D01*
X144974728Y-119149759D01*
X144992982Y-119191428D01*
X145005497Y-119235914D01*
X145011786Y-119281714D01*
X145011365Y-119327326D01*
X145008877Y-119347270D01*
X144997210Y-119394389D01*
X144978305Y-119439665D01*
X144953060Y-119481354D01*
X144922374Y-119517715D01*
X144919668Y-119520383D01*
X144903528Y-119535522D01*
X144889339Y-119547183D01*
X144874389Y-119557276D01*
X144855962Y-119567712D01*
X144842433Y-119574767D01*
X144830649Y-119580760D01*
X144819895Y-119585934D01*
X144809476Y-119590349D01*
X144798693Y-119594067D01*
X144786849Y-119597146D01*
X144773247Y-119599648D01*
X144757189Y-119601632D01*
X144737979Y-119603158D01*
X144714917Y-119604286D01*
X144687309Y-119605076D01*
X144654455Y-119605589D01*
X144615658Y-119605884D01*
X144570222Y-119606021D01*
X144517449Y-119606062D01*
X144479121Y-119606064D01*
X144424325Y-119606053D01*
X144394271Y-119606024D01*
X144377321Y-119606008D01*
X144337414Y-119605909D01*
X144303911Y-119605737D01*
X144276119Y-119605471D01*
X144253344Y-119605093D01*
X144234893Y-119604584D01*
X144220070Y-119603923D01*
X144208184Y-119603091D01*
X144198541Y-119602070D01*
X144190446Y-119600838D01*
X144183207Y-119599377D01*
X144176129Y-119597668D01*
X144175645Y-119597544D01*
X144127398Y-119581043D01*
X144083684Y-119557727D01*
X144045007Y-119528247D01*
X144011870Y-119493256D01*
X143984778Y-119453406D01*
X143964234Y-119409349D01*
X143950743Y-119361737D01*
X143944807Y-119311223D01*
X143944563Y-119298481D01*
X143944731Y-119296376D01*
X144110475Y-119296376D01*
X144113197Y-119326560D01*
X144122126Y-119355755D01*
X144137269Y-119382826D01*
X144158632Y-119406637D01*
X144186219Y-119426054D01*
X144188424Y-119427241D01*
X144195679Y-119430934D01*
X144202449Y-119433735D01*
X144210036Y-119435788D01*
X144219742Y-119437238D01*
X144232868Y-119438230D01*
X144250716Y-119438908D01*
X144274586Y-119439415D01*
X144301996Y-119439842D01*
X144394271Y-119441199D01*
X144394271Y-119298476D01*
X144394271Y-119155753D01*
X144304117Y-119157115D01*
X144274190Y-119157598D01*
X144251393Y-119158126D01*
X144234369Y-119158855D01*
X144221763Y-119159944D01*
X144212221Y-119161547D01*
X144204386Y-119163824D01*
X144196904Y-119166930D01*
X144189770Y-119170358D01*
X144161544Y-119188457D01*
X144139495Y-119211244D01*
X144123630Y-119237583D01*
X144113955Y-119266339D01*
X144110475Y-119296376D01*
X143944731Y-119296376D01*
X143948586Y-119247956D01*
X143960292Y-119199968D01*
X143979136Y-119155209D01*
X144004571Y-119114374D01*
X144036055Y-119078158D01*
X144073040Y-119047255D01*
X144114981Y-119022359D01*
X144161335Y-119004164D01*
X144179543Y-118999258D01*
X144189989Y-118996909D01*
X144200112Y-118995040D01*
X144210982Y-118993607D01*
X144223669Y-118992567D01*
X144239243Y-118991875D01*
X144258774Y-118991488D01*
X144283332Y-118991362D01*
X144313986Y-118991454D01*
G37*
G36*
X144609144Y-118227851D02*
G01*
X144645636Y-118228150D01*
X144676527Y-118228743D01*
X144702537Y-118229678D01*
X144724386Y-118231000D01*
X144742796Y-118232754D01*
X144758486Y-118234986D01*
X144772179Y-118237743D01*
X144784593Y-118241070D01*
X144796451Y-118245012D01*
X144808473Y-118249616D01*
X144811004Y-118250638D01*
X144851749Y-118271366D01*
X144889813Y-118298810D01*
X144923977Y-118331671D01*
X144953024Y-118368649D01*
X144975735Y-118408444D01*
X144987882Y-118439370D01*
X144993909Y-118460864D01*
X144998452Y-118483204D01*
X145001678Y-118507976D01*
X145003751Y-118536765D01*
X145004838Y-118571158D01*
X145005110Y-118603767D01*
X145005194Y-118681194D01*
X145203254Y-118681194D01*
X145249415Y-118681203D01*
X145287879Y-118681255D01*
X145319431Y-118681381D01*
X145344859Y-118681615D01*
X145364950Y-118681990D01*
X145380490Y-118682539D01*
X145392267Y-118683294D01*
X145401067Y-118684289D01*
X145407677Y-118685557D01*
X145412885Y-118687131D01*
X145417477Y-118689044D01*
X145420104Y-118690290D01*
X145439793Y-118704211D01*
X145453910Y-118723269D01*
X145461971Y-118745808D01*
X145463492Y-118770176D01*
X145457990Y-118794717D01*
X145453531Y-118804561D01*
X145443736Y-118818827D01*
X145430105Y-118829878D01*
X145421228Y-118834926D01*
X145398780Y-118846652D01*
X144708794Y-118846559D01*
X144619091Y-118846544D01*
X144537481Y-118846520D01*
X144475991Y-118846491D01*
X144463570Y-118846485D01*
X144396965Y-118846432D01*
X144337274Y-118846359D01*
X144284104Y-118846260D01*
X144237061Y-118846132D01*
X144195754Y-118845969D01*
X144159788Y-118845768D01*
X144128772Y-118845524D01*
X144102312Y-118845233D01*
X144080016Y-118844891D01*
X144061490Y-118844492D01*
X144046342Y-118844034D01*
X144034178Y-118843511D01*
X144024607Y-118842919D01*
X144017235Y-118842254D01*
X144011669Y-118841512D01*
X144007516Y-118840687D01*
X144004384Y-118839777D01*
X144001880Y-118838775D01*
X144001801Y-118838740D01*
X143984749Y-118828046D01*
X143969730Y-118813371D01*
X143958951Y-118797201D01*
X143955079Y-118786144D01*
X143954500Y-118778679D01*
X143954046Y-118763816D01*
X143953726Y-118742638D01*
X143953547Y-118716232D01*
X143953517Y-118685683D01*
X143953534Y-118681194D01*
X144117903Y-118681194D01*
X144475991Y-118681194D01*
X144530387Y-118681157D01*
X144582344Y-118681050D01*
X144631237Y-118680878D01*
X144676440Y-118680648D01*
X144717328Y-118680364D01*
X144753274Y-118680032D01*
X144783653Y-118679658D01*
X144807840Y-118679246D01*
X144825209Y-118678803D01*
X144835134Y-118678335D01*
X144837304Y-118678012D01*
X144838218Y-118672979D01*
X144838886Y-118660797D01*
X144839282Y-118642798D01*
X144839378Y-118620315D01*
X144839149Y-118594682D01*
X144839072Y-118589884D01*
X144837615Y-118504938D01*
X144823785Y-118476853D01*
X144805052Y-118447201D01*
X144780796Y-118423705D01*
X144751152Y-118406003D01*
X144727309Y-118394823D01*
X144490608Y-118393563D01*
X144438604Y-118393313D01*
X144394367Y-118393168D01*
X144357179Y-118393144D01*
X144326322Y-118393256D01*
X144301079Y-118393519D01*
X144280732Y-118393947D01*
X144264563Y-118394557D01*
X144251854Y-118395361D01*
X144241888Y-118396376D01*
X144233947Y-118397617D01*
X144227572Y-118399031D01*
X144194402Y-118411397D01*
X144166748Y-118430201D01*
X144144444Y-118455580D01*
X144131819Y-118477552D01*
X144128098Y-118485624D01*
X144125285Y-118493122D01*
X144123231Y-118501398D01*
X144121786Y-118511805D01*
X144120800Y-118525697D01*
X144120125Y-118544427D01*
X144119609Y-118569348D01*
X144119265Y-118591040D01*
X144117903Y-118681194D01*
X143953534Y-118681194D01*
X143953645Y-118652075D01*
X143953866Y-118623776D01*
X143955284Y-118475431D01*
X143967206Y-118441491D01*
X143988470Y-118392597D01*
X144015831Y-118349586D01*
X144049255Y-118312500D01*
X144088704Y-118281378D01*
X144129113Y-118258606D01*
X144141285Y-118252822D01*
X144152132Y-118247869D01*
X144162399Y-118243680D01*
X144172833Y-118240185D01*
X144184180Y-118237316D01*
X144197188Y-118235004D01*
X144212602Y-118233181D01*
X144231169Y-118231777D01*
X144253635Y-118230724D01*
X144280746Y-118229953D01*
X144313250Y-118229396D01*
X144351893Y-118228984D01*
X144397421Y-118228649D01*
X144450580Y-118228321D01*
X144458850Y-118228270D01*
X144516471Y-118227957D01*
X144566329Y-118227803D01*
X144609144Y-118227851D01*
G37*
G36*
X144456479Y-120850120D02*
G01*
X144478915Y-120850923D01*
X144493822Y-120852145D01*
X144499726Y-120853203D01*
X144516848Y-120860676D01*
X144534156Y-120872795D01*
X144548182Y-120886930D01*
X144552467Y-120893192D01*
X144553806Y-120898168D01*
X144554991Y-120908449D01*
X144556040Y-120924498D01*
X144556967Y-120946774D01*
X144557790Y-120975739D01*
X144558524Y-121011854D01*
X144559186Y-121055581D01*
X144559729Y-121101554D01*
X144561851Y-121300953D01*
X144646701Y-121300953D01*
X144681628Y-121300717D01*
X144709429Y-121299791D01*
X144731454Y-121297852D01*
X144749054Y-121294574D01*
X144763580Y-121289633D01*
X144776382Y-121282704D01*
X144788812Y-121273463D01*
X144799293Y-121264280D01*
X144821262Y-121240627D01*
X144835760Y-121215855D01*
X144843675Y-121187955D01*
X144845901Y-121158828D01*
X144845621Y-121139554D01*
X144844119Y-121125615D01*
X144840781Y-121113885D01*
X144834994Y-121101236D01*
X144834361Y-121100003D01*
X144824321Y-121083097D01*
X144811969Y-121065666D01*
X144805728Y-121058045D01*
X144790063Y-121034802D01*
X144782384Y-121010338D01*
X144782752Y-120985620D01*
X144791225Y-120961613D01*
X144799024Y-120949508D01*
X144816540Y-120931507D01*
X144836865Y-120920953D01*
X144861589Y-120917067D01*
X144865421Y-120917011D01*
X144887816Y-120920006D01*
X144908511Y-120929444D01*
X144928558Y-120945982D01*
X144947559Y-120968333D01*
X144973137Y-121007121D01*
X144991744Y-121046742D01*
X145000822Y-121074537D01*
X145006204Y-121099768D01*
X145009923Y-121128996D01*
X145011755Y-121158988D01*
X145011476Y-121186512D01*
X145009764Y-121203474D01*
X144998294Y-121251586D01*
X144980034Y-121297083D01*
X144955705Y-121338683D01*
X144926026Y-121375105D01*
X144900157Y-121398674D01*
X144874545Y-121416359D01*
X144844017Y-121433390D01*
X144812070Y-121448008D01*
X144782203Y-121458452D01*
X144780341Y-121458965D01*
X144774141Y-121460476D01*
X144767128Y-121461769D01*
X144758630Y-121462862D01*
X144747978Y-121463771D01*
X144734501Y-121464512D01*
X144717529Y-121465103D01*
X144696391Y-121465560D01*
X144670417Y-121465898D01*
X144638937Y-121466136D01*
X144601280Y-121466289D01*
X144556776Y-121466375D01*
X144504754Y-121466409D01*
X144479121Y-121466412D01*
X144422293Y-121466405D01*
X144394271Y-121466378D01*
X144373253Y-121466357D01*
X144331302Y-121466222D01*
X144295744Y-121465955D01*
X144265882Y-121465513D01*
X144241016Y-121464849D01*
X144220451Y-121463919D01*
X144203489Y-121462678D01*
X144189431Y-121461083D01*
X144177581Y-121459087D01*
X144167242Y-121456647D01*
X144157715Y-121453717D01*
X144148303Y-121450253D01*
X144138309Y-121446211D01*
X144133574Y-121444248D01*
X144088729Y-121421148D01*
X144048701Y-121391298D01*
X144014008Y-121355261D01*
X143985168Y-121313602D01*
X143962698Y-121266886D01*
X143957333Y-121252135D01*
X143950665Y-121225263D01*
X143946506Y-121193195D01*
X143944976Y-121158880D01*
X143944978Y-121158828D01*
X144112209Y-121158828D01*
X144112620Y-121179799D01*
X144114058Y-121194941D01*
X144116955Y-121206891D01*
X144121740Y-121218283D01*
X144121994Y-121218801D01*
X144140443Y-121248209D01*
X144163906Y-121271185D01*
X144189641Y-121286987D01*
X144217994Y-121300953D01*
X144306132Y-121302384D01*
X144394271Y-121303816D01*
X144394271Y-121159199D01*
X144394271Y-121014583D01*
X144320235Y-121014583D01*
X144282735Y-121015029D01*
X144252499Y-121016464D01*
X144228349Y-121019029D01*
X144209105Y-121022867D01*
X144193590Y-121028120D01*
X144188508Y-121030476D01*
X144161652Y-121048440D01*
X144138770Y-121072868D01*
X144126712Y-121091653D01*
X144119825Y-121104935D01*
X144115540Y-121115709D01*
X144113248Y-121126790D01*
X144112342Y-121140995D01*
X144112209Y-121158828D01*
X143944978Y-121158828D01*
X143946194Y-121125264D01*
X143950281Y-121095294D01*
X143950854Y-121092602D01*
X143965695Y-121044258D01*
X143987704Y-120999718D01*
X144016304Y-120959726D01*
X144050916Y-120925030D01*
X144090959Y-120896374D01*
X144112143Y-120884883D01*
X144129437Y-120876519D01*
X144144600Y-120869703D01*
X144158763Y-120864265D01*
X144173060Y-120860034D01*
X144188622Y-120856837D01*
X144206583Y-120854505D01*
X144228074Y-120852864D01*
X144254229Y-120851746D01*
X144286179Y-120850977D01*
X144325058Y-120850387D01*
X144341637Y-120850177D01*
X144388077Y-120849751D01*
X144426279Y-120849731D01*
X144456479Y-120850120D01*
G37*
G36*
X142881144Y-118530886D02*
G01*
X142896405Y-118534554D01*
X142918405Y-118540255D01*
X142946450Y-118547789D01*
X142979846Y-118556953D01*
X143017899Y-118567546D01*
X143059915Y-118579365D01*
X143105198Y-118592210D01*
X143153056Y-118605878D01*
X143202795Y-118620168D01*
X143253719Y-118634877D01*
X143305135Y-118649805D01*
X143356348Y-118664749D01*
X143406666Y-118679507D01*
X143455392Y-118693879D01*
X143501834Y-118707661D01*
X143545297Y-118720653D01*
X143585087Y-118732653D01*
X143620510Y-118743459D01*
X143650871Y-118752869D01*
X143675477Y-118760681D01*
X143693633Y-118766694D01*
X143704645Y-118770705D01*
X143706982Y-118771749D01*
X143729683Y-118788098D01*
X143747386Y-118810020D01*
X143759484Y-118835830D01*
X143765370Y-118863840D01*
X143764438Y-118892365D01*
X143758332Y-118914532D01*
X143755836Y-118920629D01*
X143750265Y-118934144D01*
X143741768Y-118954719D01*
X143730493Y-118981991D01*
X143716591Y-119015601D01*
X143700211Y-119055189D01*
X143681502Y-119100394D01*
X143660614Y-119150855D01*
X143637695Y-119206212D01*
X143612896Y-119266105D01*
X143586365Y-119330173D01*
X143558252Y-119398055D01*
X143528706Y-119469393D01*
X143497877Y-119543824D01*
X143465913Y-119620988D01*
X143432965Y-119700526D01*
X143399182Y-119782076D01*
X143364713Y-119865278D01*
X143329706Y-119949773D01*
X143294313Y-120035198D01*
X143258682Y-120121194D01*
X143222961Y-120207401D01*
X143187302Y-120293458D01*
X143151853Y-120379005D01*
X143116763Y-120463680D01*
X143082182Y-120547125D01*
X143048258Y-120628977D01*
X143015143Y-120708878D01*
X142982984Y-120786466D01*
X142951931Y-120861381D01*
X142922134Y-120933262D01*
X142893741Y-121001750D01*
X142866903Y-121066483D01*
X142841768Y-121127102D01*
X142818486Y-121183246D01*
X142800784Y-121225929D01*
X142797207Y-121234554D01*
X142778079Y-121280666D01*
X142761251Y-121321221D01*
X142746874Y-121355860D01*
X142735097Y-121384221D01*
X142726069Y-121405945D01*
X142719939Y-121420670D01*
X142716856Y-121428037D01*
X142716532Y-121428795D01*
X142701142Y-121453285D01*
X142679757Y-121472815D01*
X142653844Y-121486465D01*
X142624868Y-121493316D01*
X142612638Y-121493947D01*
X142606257Y-121494082D01*
X142600539Y-121494331D01*
X142595214Y-121494428D01*
X142590010Y-121494109D01*
X142584658Y-121493108D01*
X142578887Y-121491159D01*
X142572425Y-121487999D01*
X142565002Y-121483360D01*
X142556348Y-121476979D01*
X142546192Y-121468590D01*
X142534262Y-121457928D01*
X142520289Y-121444727D01*
X142519481Y-121443933D01*
X142504001Y-121428722D01*
X142485128Y-121409648D01*
X142463400Y-121387241D01*
X142438545Y-121361234D01*
X142410292Y-121331362D01*
X142378372Y-121297360D01*
X142342513Y-121258964D01*
X142302445Y-121215907D01*
X142257897Y-121167924D01*
X142208598Y-121114751D01*
X142154278Y-121056122D01*
X142094666Y-120991772D01*
X142041184Y-120934052D01*
X141987735Y-120876335D01*
X141935763Y-120820128D01*
X141885570Y-120765763D01*
X141837458Y-120713569D01*
X141791728Y-120663875D01*
X141748683Y-120617013D01*
X141708624Y-120573312D01*
X141671852Y-120533102D01*
X141638669Y-120496713D01*
X141609377Y-120464474D01*
X141584278Y-120436717D01*
X141563673Y-120413771D01*
X141547864Y-120395965D01*
X141537152Y-120383631D01*
X141531840Y-120377097D01*
X141531387Y-120376402D01*
X141523024Y-120354303D01*
X141520321Y-120337487D01*
X141815745Y-120337487D01*
X141815895Y-120339346D01*
X141818265Y-120343431D01*
X141823112Y-120350027D01*
X141830692Y-120359419D01*
X141841261Y-120371891D01*
X141855076Y-120387728D01*
X141872393Y-120407216D01*
X141893468Y-120430638D01*
X141918557Y-120458281D01*
X141947916Y-120490428D01*
X141981802Y-120527365D01*
X142020471Y-120569377D01*
X142064180Y-120616747D01*
X142113183Y-120669762D01*
X142164693Y-120725417D01*
X142209380Y-120773664D01*
X142252444Y-120820133D01*
X142293538Y-120864452D01*
X142332312Y-120906244D01*
X142368419Y-120945136D01*
X142401510Y-120980753D01*
X142431237Y-121012720D01*
X142457252Y-121040663D01*
X142479206Y-121064207D01*
X142496751Y-121082978D01*
X142509539Y-121096601D01*
X142517221Y-121104701D01*
X142519481Y-121106963D01*
X142519909Y-121102735D01*
X142521093Y-121090603D01*
X142522979Y-121071111D01*
X142525517Y-121044802D01*
X142528653Y-121012219D01*
X142532337Y-120973906D01*
X142536516Y-120930404D01*
X142541137Y-120882259D01*
X142546150Y-120830012D01*
X142551502Y-120774206D01*
X142557142Y-120715386D01*
X142563016Y-120654094D01*
X142566794Y-120614659D01*
X142800784Y-120614659D01*
X142802486Y-120610932D01*
X142807236Y-120599842D01*
X142814836Y-120581868D01*
X142825087Y-120557486D01*
X142837790Y-120527176D01*
X142852748Y-120491414D01*
X142869762Y-120450677D01*
X142888634Y-120405444D01*
X142909165Y-120356192D01*
X142931158Y-120303398D01*
X142954413Y-120247540D01*
X142978733Y-120189096D01*
X143003918Y-120128543D01*
X143029772Y-120066358D01*
X143056095Y-120003020D01*
X143082689Y-119939006D01*
X143109356Y-119874793D01*
X143135897Y-119810859D01*
X143162115Y-119747681D01*
X143187810Y-119685738D01*
X143212785Y-119625506D01*
X143236840Y-119567463D01*
X143259779Y-119512087D01*
X143281402Y-119459856D01*
X143301511Y-119411246D01*
X143319908Y-119366735D01*
X143336394Y-119326802D01*
X143350772Y-119291923D01*
X143362842Y-119262576D01*
X143372407Y-119239238D01*
X143379268Y-119222388D01*
X143383226Y-119212503D01*
X143384171Y-119209945D01*
X143381479Y-119209882D01*
X143374267Y-119214107D01*
X143370761Y-119216630D01*
X143364954Y-119220882D01*
X143352877Y-119229629D01*
X143335158Y-119242420D01*
X143312422Y-119258805D01*
X143285296Y-119278334D01*
X143254404Y-119300555D01*
X143220374Y-119325018D01*
X143183832Y-119351272D01*
X143145402Y-119378868D01*
X143136362Y-119385358D01*
X143097766Y-119413090D01*
X143061062Y-119439516D01*
X143026856Y-119464196D01*
X142995756Y-119486691D01*
X142968368Y-119506558D01*
X142945298Y-119523359D01*
X142931260Y-119533644D01*
X142927154Y-119536652D01*
X142914542Y-119545998D01*
X142908068Y-119550956D01*
X142907476Y-119551463D01*
X142906201Y-119553136D01*
X142904927Y-119556029D01*
X142903604Y-119560580D01*
X142902187Y-119567226D01*
X142900627Y-119576404D01*
X142898878Y-119588550D01*
X142896891Y-119604102D01*
X142894620Y-119623496D01*
X142892017Y-119647169D01*
X142889034Y-119675558D01*
X142885625Y-119709101D01*
X142881742Y-119748233D01*
X142877337Y-119793393D01*
X142872363Y-119845017D01*
X142866773Y-119903541D01*
X142860519Y-119969403D01*
X142853555Y-120043041D01*
X142849461Y-120086404D01*
X142843242Y-120152415D01*
X142837264Y-120216056D01*
X142831574Y-120276822D01*
X142826219Y-120334205D01*
X142821244Y-120387697D01*
X142816698Y-120436790D01*
X142812627Y-120480977D01*
X142809077Y-120519751D01*
X142806095Y-120552605D01*
X142803728Y-120579030D01*
X142802024Y-120598519D01*
X142801028Y-120610565D01*
X142800784Y-120614659D01*
X142566794Y-120614659D01*
X142569073Y-120590873D01*
X142575262Y-120526267D01*
X142581529Y-120460818D01*
X142587824Y-120395070D01*
X142594093Y-120329566D01*
X142600286Y-120264849D01*
X142606350Y-120201462D01*
X142612233Y-120139949D01*
X142617883Y-120080852D01*
X142623248Y-120024715D01*
X142628276Y-119972081D01*
X142632915Y-119923493D01*
X142637114Y-119879494D01*
X142640819Y-119840628D01*
X142643979Y-119807437D01*
X142646543Y-119780464D01*
X142648457Y-119760254D01*
X142649671Y-119747348D01*
X142650123Y-119742398D01*
X142649140Y-119739071D01*
X142644054Y-119740979D01*
X142640726Y-119743071D01*
X142635205Y-119746910D01*
X142623436Y-119755261D01*
X142605939Y-119767750D01*
X142583232Y-119784004D01*
X142555836Y-119803648D01*
X142524268Y-119826309D01*
X142489048Y-119851612D01*
X142450695Y-119879184D01*
X142409728Y-119908650D01*
X142366666Y-119939637D01*
X142322027Y-119971771D01*
X142276332Y-120004677D01*
X142230098Y-120037982D01*
X142183846Y-120071311D01*
X142165105Y-120084821D01*
X142138094Y-120104292D01*
X142093360Y-120136549D01*
X142050165Y-120167709D01*
X142009027Y-120197398D01*
X141970465Y-120225241D01*
X141934999Y-120250866D01*
X141903146Y-120273897D01*
X141875427Y-120293962D01*
X141852360Y-120310685D01*
X141834464Y-120323694D01*
X141822259Y-120332613D01*
X141816263Y-120337070D01*
X141815745Y-120337487D01*
X141520321Y-120337487D01*
X141518956Y-120328991D01*
X141519673Y-120304474D01*
X141521509Y-120295409D01*
X141526744Y-120281453D01*
X141534679Y-120265782D01*
X141538603Y-120259348D01*
X141542558Y-120253734D01*
X141551251Y-120241690D01*
X141564388Y-120223620D01*
X141581675Y-120199923D01*
X141602817Y-120171003D01*
X141627519Y-120137260D01*
X141655487Y-120099098D01*
X141686427Y-120056916D01*
X141720043Y-120011118D01*
X141756041Y-119962105D01*
X141794127Y-119910279D01*
X141834006Y-119856041D01*
X141875384Y-119799793D01*
X141875895Y-119799099D01*
X142165105Y-119799099D01*
X142179813Y-119788245D01*
X142185672Y-119783985D01*
X142197823Y-119775203D01*
X142215670Y-119762328D01*
X142238617Y-119745790D01*
X142266065Y-119726018D01*
X142297419Y-119703443D01*
X142332082Y-119678494D01*
X142369456Y-119651602D01*
X142408945Y-119623195D01*
X142435735Y-119603928D01*
X142475888Y-119575006D01*
X142513991Y-119547468D01*
X142549488Y-119521722D01*
X142581822Y-119498177D01*
X142610436Y-119477241D01*
X142634773Y-119459321D01*
X142654277Y-119444827D01*
X142668390Y-119434167D01*
X142676557Y-119427748D01*
X142678439Y-119425990D01*
X142679308Y-119420442D01*
X142680796Y-119407803D01*
X142682772Y-119389436D01*
X142685106Y-119366702D01*
X142687668Y-119340963D01*
X142690325Y-119313581D01*
X142692948Y-119285916D01*
X142695406Y-119259331D01*
X142697365Y-119237460D01*
X142930862Y-119237460D01*
X142931260Y-119241068D01*
X142934961Y-119239905D01*
X142944673Y-119234281D01*
X142959562Y-119224750D01*
X142978794Y-119211864D01*
X143001535Y-119196177D01*
X143026952Y-119178243D01*
X143040107Y-119168820D01*
X143066435Y-119149789D01*
X143090323Y-119132368D01*
X143110957Y-119117163D01*
X143127523Y-119104779D01*
X143139208Y-119095823D01*
X143145198Y-119090900D01*
X143145809Y-119090145D01*
X143141402Y-119090491D01*
X143129837Y-119092270D01*
X143112283Y-119095279D01*
X143089908Y-119099313D01*
X143063881Y-119104169D01*
X143045658Y-119107650D01*
X143017748Y-119113001D01*
X142992612Y-119117769D01*
X142971447Y-119121732D01*
X142969338Y-119122119D01*
X142955453Y-119124664D01*
X142945831Y-119126344D01*
X142943577Y-119126659D01*
X142942035Y-119130577D01*
X142940076Y-119141084D01*
X142937901Y-119156302D01*
X142935713Y-119174359D01*
X142933713Y-119193377D01*
X142932103Y-119211484D01*
X142931086Y-119226803D01*
X142930862Y-119237460D01*
X142697365Y-119237460D01*
X142697568Y-119235188D01*
X142699303Y-119214847D01*
X142700480Y-119199671D01*
X142700958Y-119191463D01*
X142701503Y-119173539D01*
X142687715Y-119176287D01*
X142676678Y-119178535D01*
X142660694Y-119181847D01*
X142643115Y-119185528D01*
X142642158Y-119185729D01*
X142610389Y-119192423D01*
X142401380Y-119476670D01*
X142369056Y-119520635D01*
X142337936Y-119562977D01*
X142308421Y-119603148D01*
X142280912Y-119640600D01*
X142255812Y-119674786D01*
X142233522Y-119705158D01*
X142214445Y-119731169D01*
X142198982Y-119752271D01*
X142187535Y-119767916D01*
X142180507Y-119777557D01*
X142178738Y-119780008D01*
X142165105Y-119799099D01*
X141875895Y-119799099D01*
X141911802Y-119750310D01*
X141953941Y-119693029D01*
X141994639Y-119637633D01*
X142033619Y-119584504D01*
X142070601Y-119534026D01*
X142105308Y-119486580D01*
X142137460Y-119442549D01*
X142166779Y-119402316D01*
X142192987Y-119366264D01*
X142215805Y-119334775D01*
X142234954Y-119308232D01*
X142250156Y-119287018D01*
X142261132Y-119271514D01*
X142267604Y-119262104D01*
X142269342Y-119259159D01*
X142264962Y-119259835D01*
X142252828Y-119262013D01*
X142245342Y-119263397D01*
X142236947Y-119264948D01*
X142233518Y-119265582D01*
X142207609Y-119270432D01*
X142175676Y-119276451D01*
X142138299Y-119283528D01*
X142096053Y-119291553D01*
X142049515Y-119300415D01*
X141999263Y-119310003D01*
X141945873Y-119320205D01*
X141889922Y-119330912D01*
X141831987Y-119342013D01*
X141772646Y-119353395D01*
X141712475Y-119364950D01*
X141652052Y-119376565D01*
X141591952Y-119388130D01*
X141532754Y-119399534D01*
X141475033Y-119410666D01*
X141419368Y-119421415D01*
X141366334Y-119431670D01*
X141316510Y-119441322D01*
X141270472Y-119450257D01*
X141228796Y-119458367D01*
X141192061Y-119465539D01*
X141160842Y-119471664D01*
X141135717Y-119476629D01*
X141117263Y-119480325D01*
X141106057Y-119482641D01*
X141104192Y-119483050D01*
X141074118Y-119485652D01*
X141044433Y-119480227D01*
X141016514Y-119467176D01*
X140996697Y-119451815D01*
X140978382Y-119429098D01*
X140966901Y-119402900D01*
X140962263Y-119374787D01*
X140964482Y-119346322D01*
X140973566Y-119319070D01*
X140989526Y-119294595D01*
X140995562Y-119288122D01*
X140997875Y-119285924D01*
X141000530Y-119283684D01*
X141003835Y-119281273D01*
X141008097Y-119278564D01*
X141013623Y-119275428D01*
X141020721Y-119271738D01*
X141029699Y-119267364D01*
X141040863Y-119262179D01*
X141054521Y-119256055D01*
X141070980Y-119248863D01*
X141090548Y-119240476D01*
X141113531Y-119230764D01*
X141140238Y-119219601D01*
X141170975Y-119206857D01*
X141206051Y-119192404D01*
X141245771Y-119176114D01*
X141290445Y-119157860D01*
X141340378Y-119137513D01*
X141395879Y-119114944D01*
X141457254Y-119090026D01*
X141524811Y-119062629D01*
X141598857Y-119032628D01*
X141612857Y-119026959D01*
X142234825Y-119026959D01*
X142236947Y-119029081D01*
X142239068Y-119026959D01*
X142236947Y-119024838D01*
X142234825Y-119026959D01*
X141612857Y-119026959D01*
X141620060Y-119024042D01*
X142245342Y-119024042D01*
X142249707Y-119023644D01*
X142261307Y-119021814D01*
X142279050Y-119018745D01*
X142301844Y-119014631D01*
X142328596Y-119009666D01*
X142358214Y-119004043D01*
X142358828Y-119003926D01*
X142388594Y-118998233D01*
X142415603Y-118993105D01*
X142438741Y-118988751D01*
X142456896Y-118985379D01*
X142468955Y-118983197D01*
X142473807Y-118982413D01*
X142473815Y-118982413D01*
X142476994Y-118979277D01*
X142483913Y-118970989D01*
X142493282Y-118959228D01*
X142503810Y-118945673D01*
X142514205Y-118932004D01*
X142523175Y-118919899D01*
X142529429Y-118911038D01*
X142531675Y-118907179D01*
X142528241Y-118908011D01*
X142519376Y-118911244D01*
X142513548Y-118913543D01*
X142455925Y-118936791D01*
X142404878Y-118957460D01*
X142360580Y-118975478D01*
X142323203Y-118990775D01*
X142292923Y-119003278D01*
X142269913Y-119012916D01*
X142254347Y-119019617D01*
X142246398Y-119023310D01*
X142245342Y-119024042D01*
X141620060Y-119024042D01*
X141679701Y-118999891D01*
X141767648Y-118964293D01*
X141863006Y-118925704D01*
X141911586Y-118906047D01*
X141987202Y-118875453D01*
X142965178Y-118875453D01*
X142966179Y-118882249D01*
X142968427Y-118884754D01*
X142969338Y-118884875D01*
X142975062Y-118884107D01*
X142987815Y-118881935D01*
X143006301Y-118878595D01*
X143029224Y-118874324D01*
X143055288Y-118869356D01*
X143066066Y-118867273D01*
X143156985Y-118849631D01*
X143066066Y-118822988D01*
X143039666Y-118815410D01*
X143016030Y-118808928D01*
X142996353Y-118803844D01*
X142981832Y-118800462D01*
X142973663Y-118799085D01*
X142972351Y-118799225D01*
X142970866Y-118804448D01*
X142969144Y-118816155D01*
X142967447Y-118832360D01*
X142966544Y-118843470D01*
X142965331Y-118862987D01*
X142965178Y-118875453D01*
X141987202Y-118875453D01*
X141995264Y-118872191D01*
X142077003Y-118839121D01*
X142156441Y-118806985D01*
X142233222Y-118775927D01*
X142306985Y-118746092D01*
X142377371Y-118717625D01*
X142444021Y-118690672D01*
X142506576Y-118665378D01*
X142564678Y-118641887D01*
X142617966Y-118620346D01*
X142666082Y-118600899D01*
X142708666Y-118583692D01*
X142745360Y-118568869D01*
X142775805Y-118556577D01*
X142799640Y-118546959D01*
X142816508Y-118540162D01*
X142826049Y-118536330D01*
X142827958Y-118535572D01*
X142850407Y-118529903D01*
X142873316Y-118529454D01*
X142881144Y-118530886D01*
G37*
%TO.C,J3*%
G36*
X130100000Y-88190000D02*
G01*
X130300000Y-88190000D01*
X130300000Y-88890000D01*
X130100000Y-88890000D01*
X130100000Y-88190000D01*
G37*
G36*
X130300000Y-85810000D02*
G01*
X130100000Y-85810000D01*
X130100000Y-85110000D01*
X130300000Y-85110000D01*
X130300000Y-85810000D01*
G37*
G36*
X130500000Y-88190000D02*
G01*
X130700000Y-88190000D01*
X130700000Y-88890000D01*
X130500000Y-88890000D01*
X130500000Y-88190000D01*
G37*
G36*
X130700000Y-85810000D02*
G01*
X130500000Y-85810000D01*
X130500000Y-85110000D01*
X130700000Y-85110000D01*
X130700000Y-85810000D01*
G37*
G36*
X130900000Y-88190000D02*
G01*
X131100000Y-88190000D01*
X131100000Y-88890000D01*
X130900000Y-88890000D01*
X130900000Y-88190000D01*
G37*
G36*
X131100000Y-85810000D02*
G01*
X130900000Y-85810000D01*
X130900000Y-85110000D01*
X131100000Y-85110000D01*
X131100000Y-85810000D01*
G37*
G36*
X131300000Y-88190000D02*
G01*
X131500000Y-88190000D01*
X131500000Y-88890000D01*
X131300000Y-88890000D01*
X131300000Y-88190000D01*
G37*
G36*
X131500000Y-85810000D02*
G01*
X131300000Y-85810000D01*
X131300000Y-85110000D01*
X131500000Y-85110000D01*
X131500000Y-85810000D01*
G37*
G36*
X131700000Y-88190000D02*
G01*
X131900000Y-88190000D01*
X131900000Y-88890000D01*
X131700000Y-88890000D01*
X131700000Y-88190000D01*
G37*
G36*
X131900000Y-85810000D02*
G01*
X131700000Y-85810000D01*
X131700000Y-85110000D01*
X131900000Y-85110000D01*
X131900000Y-85810000D01*
G37*
G36*
X132100000Y-88190000D02*
G01*
X132300000Y-88190000D01*
X132300000Y-88890000D01*
X132100000Y-88890000D01*
X132100000Y-88190000D01*
G37*
G36*
X132300000Y-85810000D02*
G01*
X132100000Y-85810000D01*
X132100000Y-85110000D01*
X132300000Y-85110000D01*
X132300000Y-85810000D01*
G37*
G36*
X132500000Y-88190000D02*
G01*
X132700000Y-88190000D01*
X132700000Y-88890000D01*
X132500000Y-88890000D01*
X132500000Y-88190000D01*
G37*
G36*
X132700000Y-85810000D02*
G01*
X132500000Y-85810000D01*
X132500000Y-85110000D01*
X132700000Y-85110000D01*
X132700000Y-85810000D01*
G37*
G36*
X132900000Y-88190000D02*
G01*
X133100000Y-88190000D01*
X133100000Y-88890000D01*
X132900000Y-88890000D01*
X132900000Y-88190000D01*
G37*
G36*
X133100000Y-85810000D02*
G01*
X132900000Y-85810000D01*
X132900000Y-85110000D01*
X133100000Y-85110000D01*
X133100000Y-85810000D01*
G37*
G36*
X133300000Y-88190000D02*
G01*
X133500000Y-88190000D01*
X133500000Y-88890000D01*
X133300000Y-88890000D01*
X133300000Y-88190000D01*
G37*
G36*
X133500000Y-85810000D02*
G01*
X133300000Y-85810000D01*
X133300000Y-85110000D01*
X133500000Y-85110000D01*
X133500000Y-85810000D01*
G37*
G36*
X133700000Y-88190000D02*
G01*
X133900000Y-88190000D01*
X133900000Y-88890000D01*
X133700000Y-88890000D01*
X133700000Y-88190000D01*
G37*
G36*
X133900000Y-85810000D02*
G01*
X133700000Y-85810000D01*
X133700000Y-85110000D01*
X133900000Y-85110000D01*
X133900000Y-85810000D01*
G37*
G36*
X134100000Y-88190000D02*
G01*
X134300000Y-88190000D01*
X134300000Y-88890000D01*
X134100000Y-88890000D01*
X134100000Y-88190000D01*
G37*
G36*
X134300000Y-85810000D02*
G01*
X134100000Y-85810000D01*
X134100000Y-85110000D01*
X134300000Y-85110000D01*
X134300000Y-85810000D01*
G37*
G36*
X134500000Y-88190000D02*
G01*
X134700000Y-88190000D01*
X134700000Y-88890000D01*
X134500000Y-88890000D01*
X134500000Y-88190000D01*
G37*
G36*
X134700000Y-85810000D02*
G01*
X134500000Y-85810000D01*
X134500000Y-85110000D01*
X134700000Y-85110000D01*
X134700000Y-85810000D01*
G37*
G36*
X134900000Y-88190000D02*
G01*
X135100000Y-88190000D01*
X135100000Y-88890000D01*
X134900000Y-88890000D01*
X134900000Y-88190000D01*
G37*
G36*
X135100000Y-85810000D02*
G01*
X134900000Y-85810000D01*
X134900000Y-85110000D01*
X135100000Y-85110000D01*
X135100000Y-85810000D01*
G37*
G36*
X135300000Y-88190000D02*
G01*
X135500000Y-88190000D01*
X135500000Y-88890000D01*
X135300000Y-88890000D01*
X135300000Y-88190000D01*
G37*
G36*
X135500000Y-85810000D02*
G01*
X135300000Y-85810000D01*
X135300000Y-85110000D01*
X135500000Y-85110000D01*
X135500000Y-85810000D01*
G37*
G36*
X135700000Y-88190000D02*
G01*
X135900000Y-88190000D01*
X135900000Y-88890000D01*
X135700000Y-88890000D01*
X135700000Y-88190000D01*
G37*
G36*
X135900000Y-85810000D02*
G01*
X135700000Y-85810000D01*
X135700000Y-85110000D01*
X135900000Y-85110000D01*
X135900000Y-85810000D01*
G37*
G36*
X136100000Y-88190000D02*
G01*
X136300000Y-88190000D01*
X136300000Y-88890000D01*
X136100000Y-88890000D01*
X136100000Y-88190000D01*
G37*
G36*
X136300000Y-85810000D02*
G01*
X136100000Y-85810000D01*
X136100000Y-85110000D01*
X136300000Y-85110000D01*
X136300000Y-85810000D01*
G37*
G36*
X136500000Y-88190000D02*
G01*
X136700000Y-88190000D01*
X136700000Y-88890000D01*
X136500000Y-88890000D01*
X136500000Y-88190000D01*
G37*
G36*
X136700000Y-85810000D02*
G01*
X136500000Y-85810000D01*
X136500000Y-85110000D01*
X136700000Y-85110000D01*
X136700000Y-85810000D01*
G37*
G36*
X136900000Y-88190000D02*
G01*
X137100000Y-88190000D01*
X137100000Y-88890000D01*
X136900000Y-88890000D01*
X136900000Y-88190000D01*
G37*
G36*
X137100000Y-85810000D02*
G01*
X136900000Y-85810000D01*
X136900000Y-85110000D01*
X137100000Y-85110000D01*
X137100000Y-85810000D01*
G37*
G36*
X137300000Y-88190000D02*
G01*
X137500000Y-88190000D01*
X137500000Y-88890000D01*
X137300000Y-88890000D01*
X137300000Y-88190000D01*
G37*
G36*
X137500000Y-85810000D02*
G01*
X137300000Y-85810000D01*
X137300000Y-85110000D01*
X137500000Y-85110000D01*
X137500000Y-85810000D01*
G37*
G36*
X137700000Y-88190000D02*
G01*
X137900000Y-88190000D01*
X137900000Y-88890000D01*
X137700000Y-88890000D01*
X137700000Y-88190000D01*
G37*
G36*
X137900000Y-85810000D02*
G01*
X137700000Y-85810000D01*
X137700000Y-85110000D01*
X137900000Y-85110000D01*
X137900000Y-85810000D01*
G37*
G36*
X138100000Y-88190000D02*
G01*
X138300000Y-88190000D01*
X138300000Y-88890000D01*
X138100000Y-88890000D01*
X138100000Y-88190000D01*
G37*
G36*
X138300000Y-85810000D02*
G01*
X138100000Y-85810000D01*
X138100000Y-85110000D01*
X138300000Y-85110000D01*
X138300000Y-85810000D01*
G37*
G36*
X138500000Y-88190000D02*
G01*
X138700000Y-88190000D01*
X138700000Y-88890000D01*
X138500000Y-88890000D01*
X138500000Y-88190000D01*
G37*
G36*
X138700000Y-85810000D02*
G01*
X138500000Y-85810000D01*
X138500000Y-85110000D01*
X138700000Y-85110000D01*
X138700000Y-85810000D01*
G37*
G36*
X138900000Y-88190000D02*
G01*
X139100000Y-88190000D01*
X139100000Y-88890000D01*
X138900000Y-88890000D01*
X138900000Y-88190000D01*
G37*
G36*
X139100000Y-85810000D02*
G01*
X138900000Y-85810000D01*
X138900000Y-85110000D01*
X139100000Y-85110000D01*
X139100000Y-85810000D01*
G37*
G36*
X139300000Y-88190000D02*
G01*
X139500000Y-88190000D01*
X139500000Y-88890000D01*
X139300000Y-88890000D01*
X139300000Y-88190000D01*
G37*
G36*
X139500000Y-85810000D02*
G01*
X139300000Y-85810000D01*
X139300000Y-85110000D01*
X139500000Y-85110000D01*
X139500000Y-85810000D01*
G37*
G36*
X139700000Y-88190000D02*
G01*
X139900000Y-88190000D01*
X139900000Y-88890000D01*
X139700000Y-88890000D01*
X139700000Y-88190000D01*
G37*
G36*
X139900000Y-85810000D02*
G01*
X139700000Y-85810000D01*
X139700000Y-85110000D01*
X139900000Y-85110000D01*
X139900000Y-85810000D01*
G37*
G36*
X140100000Y-88190000D02*
G01*
X140300000Y-88190000D01*
X140300000Y-88890000D01*
X140100000Y-88890000D01*
X140100000Y-88190000D01*
G37*
G36*
X140300000Y-85810000D02*
G01*
X140100000Y-85810000D01*
X140100000Y-85110000D01*
X140300000Y-85110000D01*
X140300000Y-85810000D01*
G37*
G36*
X140500000Y-88190000D02*
G01*
X140700000Y-88190000D01*
X140700000Y-88890000D01*
X140500000Y-88890000D01*
X140500000Y-88190000D01*
G37*
G36*
X140700000Y-85810000D02*
G01*
X140500000Y-85810000D01*
X140500000Y-85110000D01*
X140700000Y-85110000D01*
X140700000Y-85810000D01*
G37*
G36*
X140900000Y-88190000D02*
G01*
X141100000Y-88190000D01*
X141100000Y-88890000D01*
X140900000Y-88890000D01*
X140900000Y-88190000D01*
G37*
G36*
X141100000Y-85810000D02*
G01*
X140900000Y-85810000D01*
X140900000Y-85110000D01*
X141100000Y-85110000D01*
X141100000Y-85810000D01*
G37*
G36*
X141300000Y-88190000D02*
G01*
X141500000Y-88190000D01*
X141500000Y-88890000D01*
X141300000Y-88890000D01*
X141300000Y-88190000D01*
G37*
G36*
X141500000Y-85810000D02*
G01*
X141300000Y-85810000D01*
X141300000Y-85110000D01*
X141500000Y-85110000D01*
X141500000Y-85810000D01*
G37*
G36*
X141700000Y-88190000D02*
G01*
X141900000Y-88190000D01*
X141900000Y-88890000D01*
X141700000Y-88890000D01*
X141700000Y-88190000D01*
G37*
G36*
X141900000Y-85810000D02*
G01*
X141700000Y-85810000D01*
X141700000Y-85110000D01*
X141900000Y-85110000D01*
X141900000Y-85810000D01*
G37*
G36*
X142100000Y-88190000D02*
G01*
X142300000Y-88190000D01*
X142300000Y-88890000D01*
X142100000Y-88890000D01*
X142100000Y-88190000D01*
G37*
G36*
X142300000Y-85810000D02*
G01*
X142100000Y-85810000D01*
X142100000Y-85110000D01*
X142300000Y-85110000D01*
X142300000Y-85810000D01*
G37*
G36*
X142500000Y-88190000D02*
G01*
X142700000Y-88190000D01*
X142700000Y-88890000D01*
X142500000Y-88890000D01*
X142500000Y-88190000D01*
G37*
G36*
X142700000Y-85810000D02*
G01*
X142500000Y-85810000D01*
X142500000Y-85110000D01*
X142700000Y-85110000D01*
X142700000Y-85810000D01*
G37*
G36*
X142900000Y-88190000D02*
G01*
X143100000Y-88190000D01*
X143100000Y-88890000D01*
X142900000Y-88890000D01*
X142900000Y-88190000D01*
G37*
G36*
X143100000Y-85810000D02*
G01*
X142900000Y-85810000D01*
X142900000Y-85110000D01*
X143100000Y-85110000D01*
X143100000Y-85810000D01*
G37*
G36*
X143300000Y-88190000D02*
G01*
X143500000Y-88190000D01*
X143500000Y-88890000D01*
X143300000Y-88890000D01*
X143300000Y-88190000D01*
G37*
G36*
X143500000Y-85810000D02*
G01*
X143300000Y-85810000D01*
X143300000Y-85110000D01*
X143500000Y-85110000D01*
X143500000Y-85810000D01*
G37*
G36*
X143900000Y-85810000D02*
G01*
X143700000Y-85810000D01*
X143700000Y-85110000D01*
X143900000Y-85110000D01*
X143900000Y-85810000D01*
G37*
%TD*%
D11*
%TO.C,J4*%
X129300000Y-77900000D03*
D12*
X131840000Y-77900000D03*
X134380000Y-77900000D03*
X136920000Y-77900000D03*
X139460000Y-77900000D03*
X142000000Y-77900000D03*
X144540000Y-77900000D03*
%TD*%
D13*
%TO.C,J3*%
X143800000Y-88540000D03*
X143800000Y-85460000D03*
X143400000Y-88540000D03*
X143400000Y-85460000D03*
X143000000Y-88540000D03*
X143000000Y-85460000D03*
X142600000Y-88540000D03*
X142600000Y-85460000D03*
X142200000Y-88540000D03*
X142200000Y-85460000D03*
X141800000Y-88540000D03*
X141800000Y-85460000D03*
X141400000Y-88540000D03*
X141400000Y-85460000D03*
X141000000Y-88540000D03*
X141000000Y-85460000D03*
X140600000Y-88540000D03*
X140600000Y-85460000D03*
X140200000Y-88540000D03*
X140200000Y-85460000D03*
X139800000Y-88540000D03*
X139800000Y-85460000D03*
X139400000Y-88540000D03*
X139400000Y-85460000D03*
X139000000Y-88540000D03*
X139000000Y-85460000D03*
X138600000Y-88540000D03*
X138600000Y-85460000D03*
X138200000Y-88540000D03*
X138200000Y-85460000D03*
X137800000Y-88540000D03*
X137800000Y-85460000D03*
X137400000Y-88540000D03*
X137400000Y-85460000D03*
X137000000Y-88540000D03*
X137000000Y-85460000D03*
X136600000Y-88540000D03*
X136600000Y-85460000D03*
X136200000Y-88540000D03*
X136200000Y-85460000D03*
X135800000Y-88540000D03*
X135800000Y-85460000D03*
X135400000Y-88540000D03*
X135400000Y-85460000D03*
X135000000Y-88540000D03*
X135000000Y-85460000D03*
X134600000Y-88540000D03*
X134600000Y-85460000D03*
X134200000Y-88540000D03*
X134200000Y-85460000D03*
X133800000Y-88540000D03*
X133800000Y-85460000D03*
X133400000Y-88540000D03*
X133400000Y-85460000D03*
X133000000Y-88540000D03*
X133000000Y-85460000D03*
X132600000Y-88540000D03*
X132600000Y-85460000D03*
X132200000Y-88540000D03*
X132200000Y-85460000D03*
X131800000Y-88540000D03*
X131800000Y-85460000D03*
X131400000Y-88540000D03*
X131400000Y-85460000D03*
X131000000Y-88540000D03*
X131000000Y-85460000D03*
X130600000Y-88540000D03*
X130600000Y-85460000D03*
X130200000Y-88540000D03*
X130200000Y-85460000D03*
%TD*%
D14*
%TO.C,J2*%
X138905000Y-98285000D03*
D15*
X138905000Y-99555000D03*
X138905000Y-100825000D03*
X138905000Y-102095000D03*
X138905000Y-103365000D03*
X138905000Y-104635000D03*
X138905000Y-105905000D03*
X138905000Y-107175000D03*
X138905000Y-108445000D03*
X138905000Y-109715000D03*
X137635000Y-98285000D03*
X137635000Y-99555000D03*
X137635000Y-100825000D03*
X137635000Y-102095000D03*
X137635000Y-103365000D03*
X137635000Y-104635000D03*
X137635000Y-105905000D03*
X137635000Y-107175000D03*
X137635000Y-108445000D03*
X137635000Y-109715000D03*
X136365000Y-98285000D03*
X136365000Y-99555000D03*
X136365000Y-100825000D03*
X136365000Y-102095000D03*
X136365000Y-103365000D03*
X136365000Y-104635000D03*
X136365000Y-105905000D03*
X136365000Y-107175000D03*
X136365000Y-108445000D03*
X136365000Y-109715000D03*
X135095000Y-98285000D03*
X135095000Y-99555000D03*
X135095000Y-100825000D03*
X135095000Y-102095000D03*
X135095000Y-103365000D03*
X135095000Y-104635000D03*
X135095000Y-105905000D03*
X135095000Y-107175000D03*
X135095000Y-108445000D03*
X135095000Y-109715000D03*
%TD*%
D14*
%TO.C,J1*%
X138905000Y-115285000D03*
D15*
X138905000Y-116555000D03*
X138905000Y-117825000D03*
X138905000Y-119095000D03*
X138905000Y-120365000D03*
X138905000Y-121635000D03*
X138905000Y-122905000D03*
X138905000Y-124175000D03*
X138905000Y-125445000D03*
X138905000Y-126715000D03*
X137635000Y-115285000D03*
X137635000Y-116555000D03*
X137635000Y-117825000D03*
X137635000Y-119095000D03*
X137635000Y-120365000D03*
X137635000Y-121635000D03*
X137635000Y-122905000D03*
X137635000Y-124175000D03*
X137635000Y-125445000D03*
X137635000Y-126715000D03*
X136365000Y-115285000D03*
X136365000Y-116555000D03*
X136365000Y-117825000D03*
X136365000Y-119095000D03*
X136365000Y-120365000D03*
X136365000Y-121635000D03*
X136365000Y-122905000D03*
X136365000Y-124175000D03*
X136365000Y-125445000D03*
X136365000Y-126715000D03*
X135095000Y-115285000D03*
X135095000Y-116555000D03*
X135095000Y-117825000D03*
X135095000Y-119095000D03*
X135095000Y-120365000D03*
X135095000Y-121635000D03*
X135095000Y-122905000D03*
X135095000Y-124175000D03*
X135095000Y-125445000D03*
X135095000Y-126715000D03*
%TD*%
M02*
