M48
; DRILL file {KiCad 9.0.3} date 2025-09-30T16:22:12-0400
; FORMAT={-:-/ absolute / inch / decimal}
; #@! TF.CreationDate,2025-09-30T16:22:12-04:00
; #@! TF.GenerationSoftware,Kicad,Pcbnew,9.0.3
; #@! TF.FileFunction,Plated,1,4,PTH
FMAT,2
INCH
; #@! TA.AperFunction,Plated,PTH,ViaDrill
T1C0.0098
; #@! TA.AperFunction,Plated,PTH,ComponentDrill
T2C0.0220
; #@! TA.AperFunction,Plated,PTH,ComponentDrill
T3C0.0394
%
G90
G05
T1
X5.0354Y-3.4843
X5.0394Y-3.6339
X5.0776Y-3.1408
X5.0827Y-3.5276
X5.0866Y-3.3937
X5.0945Y-3.315
X5.0945Y-3.4606
X5.1063Y-3.2559
X5.1181Y-3.1693
X5.1201Y-3.2776
X5.1378Y-3.2559
X5.1575Y-3.2776
X5.1594Y-4.9606
X5.1752Y-3.2559
X5.1772Y-3.2165
X5.1949Y-3.2776
X5.2126Y-3.2559
X5.2303Y-3.2776
X5.2482Y-3.2559
X5.2659Y-3.2756
X5.2837Y-3.2559
X5.2913Y-3.2047
X5.2992Y-5.0551
X5.3014Y-3.2756
X5.3031Y-4.374
X5.3191Y-3.2559
X5.3388Y-3.2756
X5.3543Y-4.4488
X5.3565Y-3.2559
X5.3742Y-3.2756
X5.3898Y-3.1929
X5.3937Y-3.7402
X5.3937Y-3.7795
X5.3937Y-4.3701
X5.3937Y-5.0394
X5.3939Y-3.252
X5.3957Y-3.4211
X5.4114Y-3.2756
X5.4291Y-3.252
X5.4449Y-4.437
X5.4469Y-3.276
X5.4626Y-3.252
X5.4823Y-3.2756
X5.4843Y-4.4724
X5.502Y-3.252
X5.5079Y-5.0512
X5.5105Y-3.1902
X5.5205Y-3.276
X5.5354Y-3.252
X5.5575Y-3.276
X5.5748Y-3.252
X5.5925Y-3.2756
X5.6024Y-3.1929
X5.6102Y-3.252
X5.628Y-3.2756
X5.6476Y-3.252
X5.6673Y-3.2756
X5.6811Y-3.185
X5.687Y-3.252
X5.7047Y-3.3031
X5.7047Y-3.3661
X5.7047Y-3.4055
X5.7126Y-3.2362
X5.7165Y-3.4646
X5.7268Y-3.4997
X5.7441Y-4.8307
T2
X5.3187Y-3.8695
X5.3187Y-3.9195
X5.3187Y-3.9695
X5.3187Y-4.0195
X5.3187Y-4.0695
X5.3187Y-4.1195
X5.3187Y-4.1695
X5.3187Y-4.2195
X5.3187Y-4.2695
X5.3187Y-4.3195
X5.3187Y-4.5388
X5.3187Y-4.5888
X5.3187Y-4.6388
X5.3187Y-4.6888
X5.3187Y-4.7388
X5.3187Y-4.7888
X5.3187Y-4.8388
X5.3187Y-4.8888
X5.3187Y-4.9388
X5.3187Y-4.9888
X5.3687Y-3.8695
X5.3687Y-3.9195
X5.3687Y-3.9695
X5.3687Y-4.0195
X5.3687Y-4.0695
X5.3687Y-4.1195
X5.3687Y-4.1695
X5.3687Y-4.2195
X5.3687Y-4.2695
X5.3687Y-4.3195
X5.3687Y-4.5388
X5.3687Y-4.5888
X5.3687Y-4.6388
X5.3687Y-4.6888
X5.3687Y-4.7388
X5.3687Y-4.7888
X5.3687Y-4.8388
X5.3687Y-4.8888
X5.3687Y-4.9388
X5.3687Y-4.9888
X5.4187Y-3.8695
X5.4187Y-3.9195
X5.4187Y-3.9695
X5.4187Y-4.0195
X5.4187Y-4.0695
X5.4187Y-4.1195
X5.4187Y-4.1695
X5.4187Y-4.2195
X5.4187Y-4.2695
X5.4187Y-4.3195
X5.4187Y-4.5388
X5.4187Y-4.5888
X5.4187Y-4.6388
X5.4187Y-4.6888
X5.4187Y-4.7388
X5.4187Y-4.7888
X5.4187Y-4.8388
X5.4187Y-4.8888
X5.4187Y-4.9388
X5.4187Y-4.9888
X5.4687Y-3.8695
X5.4687Y-3.9195
X5.4687Y-3.9695
X5.4687Y-4.0195
X5.4687Y-4.0695
X5.4687Y-4.1195
X5.4687Y-4.1695
X5.4687Y-4.2195
X5.4687Y-4.2695
X5.4687Y-4.3195
X5.4687Y-4.5388
X5.4687Y-4.5888
X5.4687Y-4.6388
X5.4687Y-4.6888
X5.4687Y-4.7388
X5.4687Y-4.7888
X5.4687Y-4.8388
X5.4687Y-4.8888
X5.4687Y-4.9388
X5.4687Y-4.9888
T3
X5.0906Y-3.0669
X5.1906Y-3.0669
X5.2906Y-3.0669
X5.3906Y-3.0669
X5.4906Y-3.0669
X5.5906Y-3.0669
X5.6906Y-3.0669
M30
